<?xml version="1.0" encoding="UTF-8"?>
<!--Generator: Apple Native CoreSVG 149-->
<!DOCTYPE svg
PUBLIC "-//W3C//DTD SVG 1.1//EN"
       "http://www.w3.org/Graphics/SVG/1.1/DTD/svg11.dtd">
<svg version="1.1" xmlns="http://www.w3.org/2000/svg" xmlns:xlink="http://www.w3.org/1999/xlink" width="3300" height="2200">
 <!--glyph: "", point size: 100.0, font version: "17.0d9e1", template writer version: "59"-->
 <g id="Notes">
  <rect height="2200" id="artboard" style="fill:white;opacity:1" width="3300" x="0" y="0"/>
  <line style="fill:none;stroke:black;opacity:1;stroke-width:0.5;" x1="263" x2="3036" y1="292" y2="292"/>
  <text style="stroke:none;fill:black;font-family:sans-serif;font-size:13;font-weight:bold;" transform="matrix(1 0 0 1 263 322)">Weight/Scale Variations</text>
  <text style="stroke:none;fill:black;font-family:sans-serif;font-size:13;text-anchor:middle;" transform="matrix(1 0 0 1 559.711 322)">Ultralight</text>
  <text style="stroke:none;fill:black;font-family:sans-serif;font-size:13;text-anchor:middle;" transform="matrix(1 0 0 1 856.422 322)">Thin</text>
  <text style="stroke:none;fill:black;font-family:sans-serif;font-size:13;text-anchor:middle;" transform="matrix(1 0 0 1 1153.13 322)">Light</text>
  <text style="stroke:none;fill:black;font-family:sans-serif;font-size:13;text-anchor:middle;" transform="matrix(1 0 0 1 1449.84 322)">Regular</text>
  <text style="stroke:none;fill:black;font-family:sans-serif;font-size:13;text-anchor:middle;" transform="matrix(1 0 0 1 1746.56 322)">Medium</text>
  <text style="stroke:none;fill:black;font-family:sans-serif;font-size:13;text-anchor:middle;" transform="matrix(1 0 0 1 2043.27 322)">Semibold</text>
  <text style="stroke:none;fill:black;font-family:sans-serif;font-size:13;text-anchor:middle;" transform="matrix(1 0 0 1 2339.98 322)">Bold</text>
  <text style="stroke:none;fill:black;font-family:sans-serif;font-size:13;text-anchor:middle;" transform="matrix(1 0 0 1 2636.69 322)">Heavy</text>
  <text style="stroke:none;fill:black;font-family:sans-serif;font-size:13;text-anchor:middle;" transform="matrix(1 0 0 1 2933.4 322)">Black</text>
  <line style="fill:none;stroke:black;opacity:1;stroke-width:0.5;" x1="263" x2="3036" y1="1903" y2="1903"/>
  <g transform="matrix(1 0 0 1 263 1933)">
   <path d="M9.24805 0.830078Q10.8691 0.830078 12.2949 0.214844Q13.7207-0.400391 14.8096-1.49414Q15.8984-2.58789 16.5186-4.01367Q17.1387-5.43945 17.1387-7.05078Q17.1387-8.66211 16.5186-10.0879Q15.8984-11.5137 14.8047-12.6074Q13.7109-13.7012 12.2852-14.3164Q10.8594-14.9316 9.23828-14.9316Q7.62695-14.9316 6.20117-14.3164Q4.77539-13.7012 3.69141-12.6074Q2.60742-11.5137 1.9873-10.0879Q1.36719-8.66211 1.36719-7.05078Q1.36719-5.43945 1.9873-4.01367Q2.60742-2.58789 3.69629-1.49414Q4.78516-0.400391 6.21094 0.214844Q7.63672 0.830078 9.24805 0.830078ZM9.24805-0.654297Q7.91992-0.654297 6.7627-1.14746Q5.60547-1.64062 4.73145-2.51953Q3.85742-3.39844 3.36426-4.56055Q2.87109-5.72266 2.87109-7.05078Q2.87109-8.37891 3.35938-9.54102Q3.84766-10.7031 4.72168-11.582Q5.5957-12.4609 6.75293-12.9541Q7.91016-13.4473 9.23828-13.4473Q10.5762-13.4473 11.7334-12.9541Q12.8906-12.4609 13.7695-11.582Q14.6484-10.7031 15.1465-9.54102Q15.6445-8.37891 15.6445-7.05078Q15.6445-5.72266 15.1514-4.56055Q14.6582-3.39844 13.7842-2.51953Q12.9102-1.64062 11.748-1.14746Q10.5859-0.654297 9.24805-0.654297ZM5.83984-7.04102Q5.83984-6.71875 6.04492-6.51855Q6.25-6.31836 6.5918-6.31836L8.50586-6.31836L8.50586-4.39453Q8.50586-4.0625 8.70605-3.85742Q8.90625-3.65234 9.22852-3.65234Q9.56055-3.65234 9.76562-3.85742Q9.9707-4.0625 9.9707-4.39453L9.9707-6.31836L11.8945-6.31836Q12.2266-6.31836 12.4316-6.51855Q12.6367-6.71875 12.6367-7.04102Q12.6367-7.37305 12.4316-7.57812Q12.2266-7.7832 11.8945-7.7832L9.9707-7.7832L9.9707-9.69727Q9.9707-10.0391 9.76562-10.2441Q9.56055-10.4492 9.22852-10.4492Q8.90625-10.4492 8.70605-10.2441Q8.50586-10.0391 8.50586-9.69727L8.50586-7.7832L6.5918-7.7832Q6.25-7.7832 6.04492-7.57812Q5.83984-7.37305 5.83984-7.04102Z"/>
  </g>
  <g transform="matrix(1 0 0 1 281.867 1933)">
   <path d="M11.709 2.91016Q13.75 2.91016 15.5518 2.12891Q17.3535 1.34766 18.7305-0.0292969Q20.1074-1.40625 20.8887-3.20801Q21.6699-5.00977 21.6699-7.05078Q21.6699-9.0918 20.8887-10.8936Q20.1074-12.6953 18.7305-14.0723Q17.3535-15.4492 15.5469-16.2305Q13.7402-17.0117 11.6992-17.0117Q9.6582-17.0117 7.85645-16.2305Q6.05469-15.4492 4.68262-14.0723Q3.31055-12.6953 2.5293-10.8936Q1.74805-9.0918 1.74805-7.05078Q1.74805-5.00977 2.5293-3.20801Q3.31055-1.40625 4.6875-0.0292969Q6.06445 1.34766 7.86621 2.12891Q9.66797 2.91016 11.709 2.91016ZM11.709 1.25Q9.98047 1.25 8.47656 0.605469Q6.97266-0.0390625 5.83496-1.17676Q4.69727-2.31445 4.05762-3.81836Q3.41797-5.32227 3.41797-7.05078Q3.41797-8.7793 4.05762-10.2832Q4.69727-11.7871 5.83008-12.9297Q6.96289-14.0723 8.4668-14.7119Q9.9707-15.3516 11.6992-15.3516Q13.4277-15.3516 14.9316-14.7119Q16.4355-14.0723 17.5781-12.9297Q18.7207-11.7871 19.3652-10.2832Q20.0098-8.7793 20.0098-7.05078Q20.0098-5.32227 19.3701-3.81836Q18.7305-2.31445 17.5928-1.17676Q16.4551-0.0390625 14.9463 0.605469Q13.4375 1.25 11.709 1.25ZM7.39258-7.04102Q7.39258-6.68945 7.62695-6.46484Q7.86133-6.24023 8.23242-6.24023L10.8789-6.24023L10.8789-3.57422Q10.8789-3.21289 11.1035-2.9834Q11.3281-2.75391 11.6797-2.75391Q12.0508-2.75391 12.2852-2.9834Q12.5195-3.21289 12.5195-3.57422L12.5195-6.24023L15.1758-6.24023Q15.5371-6.24023 15.7715-6.46484Q16.0059-6.68945 16.0059-7.04102Q16.0059-7.41211 15.7715-7.6416Q15.5371-7.87109 15.1758-7.87109L12.5195-7.87109L12.5195-10.5176Q12.5195-10.8984 12.2852-11.1279Q12.0508-11.3574 11.6797-11.3574Q11.3281-11.3574 11.1035-11.1279Q10.8789-10.8984 10.8789-10.5176L10.8789-7.87109L8.23242-7.87109Q7.85156-7.87109 7.62207-7.6416Q7.39258-7.41211 7.39258-7.04102Z"/>
  </g>
  <g transform="matrix(1 0 0 1 305.646 1933)">
   <path d="M14.9707 5.66406Q17.0605 5.66406 18.96 5.01465Q20.8594 4.36523 22.4512 3.19336Q24.043 2.02148 25.2197 0.429688Q26.3965-1.16211 27.0459-3.06641Q27.6953-4.9707 27.6953-7.05078Q27.6953-9.14062 27.0459-11.04Q26.3965-12.9395 25.2197-14.5312Q24.043-16.123 22.4512-17.2998Q20.8594-18.4766 18.9551-19.126Q17.0508-19.7754 14.9609-19.7754Q12.8711-19.7754 10.9717-19.126Q9.07227-18.4766 7.48535-17.2998Q5.89844-16.123 4.72168-14.5312Q3.54492-12.9395 2.90039-11.04Q2.25586-9.14062 2.25586-7.05078Q2.25586-4.9707 2.90527-3.06641Q3.55469-1.16211 4.72656 0.429688Q5.89844 2.02148 7.49023 3.19336Q9.08203 4.36523 10.9814 5.01465Q12.8809 5.66406 14.9707 5.66406ZM14.9707 3.84766Q13.1641 3.84766 11.5283 3.2959Q9.89258 2.74414 8.53516 1.74805Q7.17773 0.751953 6.17676-0.610352Q5.17578-1.97266 4.62891-3.6084Q4.08203-5.24414 4.08203-7.05078Q4.08203-8.86719 4.62891-10.5029Q5.17578-12.1387 6.17188-13.501Q7.16797-14.8633 8.52539-15.8594Q9.88281-16.8555 11.5186-17.4023Q13.1543-17.9492 14.9609-17.9492Q16.7773-17.9492 18.4131-17.4023Q20.0488-16.8555 21.4111-15.8594Q22.7734-14.8633 23.7695-13.501Q24.7656-12.1387 25.3174-10.5029Q25.8691-8.86719 25.8691-7.05078Q25.8789-5.24414 25.332-3.6084Q24.7852-1.97266 23.7842-0.610352Q22.7832 0.751953 21.4209 1.74805Q20.0586 2.74414 18.4229 3.2959Q16.7871 3.84766 14.9707 3.84766ZM9.45312-7.04102Q9.45312-6.66016 9.71191-6.41113Q9.9707-6.16211 10.3711-6.16211L14.0625-6.16211L14.0625-2.46094Q14.0625-2.06055 14.3115-1.80664Q14.5605-1.55273 14.9414-1.55273Q15.3516-1.55273 15.6055-1.80664Q15.8594-2.06055 15.8594-2.46094L15.8594-6.16211L19.5605-6.16211Q19.9609-6.16211 20.2148-6.41113Q20.4688-6.66016 20.4688-7.04102Q20.4688-7.45117 20.2148-7.70508Q19.9609-7.95898 19.5605-7.95898L15.8594-7.95898L15.8594-11.6504Q15.8594-12.0605 15.6055-12.3145Q15.3516-12.5684 14.9414-12.5684Q14.5605-12.5684 14.3115-12.3096Q14.0625-12.0508 14.0625-11.6504L14.0625-7.95898L10.3711-7.95898Q9.96094-7.95898 9.70703-7.70508Q9.45312-7.45117 9.45312-7.04102Z"/>
  </g>
  <text style="stroke:none;fill:black;font-family:sans-serif;font-size:13;font-weight:bold;" transform="matrix(1 0 0 1 263 1953)">Design Variations</text>
  <text style="stroke:none;fill:black;font-family:sans-serif;font-size:13;" transform="matrix(1 0 0 1 263 1971)">Symbols are supported in up to nine weights and three scales.</text>
  <text style="stroke:none;fill:black;font-family:sans-serif;font-size:13;" transform="matrix(1 0 0 1 263 1989)">For optimal layout with text and other symbols, vertically align</text>
  <text style="stroke:none;fill:black;font-family:sans-serif;font-size:13;" transform="matrix(1 0 0 1 263 2007)">symbols with the adjacent text.</text>
  <line style="fill:none;stroke:#00AEEF;stroke-width:0.5;opacity:1.0;" x1="776" x2="776" y1="1919" y2="1933"/>
  <g transform="matrix(1 0 0 1 776 1933)">
   <path d="M3.31055 0.15625Q3.70117 0.15625 3.91602-0.00976562Q4.13086-0.175781 4.26758-0.585938L5.52734-4.0332L11.2891-4.0332L12.5488-0.585938Q12.6855-0.175781 12.9004-0.00976562Q13.1152 0.15625 13.4961 0.15625Q13.8867 0.15625 14.1162-0.0585938Q14.3457-0.273438 14.3457-0.644531Q14.3457-0.869141 14.2383-1.17188L9.6582-13.3691Q9.48242-13.8184 9.17969-14.043Q8.87695-14.2676 8.4082-14.2676Q7.5-14.2676 7.17773-13.3789L2.59766-1.16211Q2.49023-0.859375 2.49023-0.634766Q2.49023-0.263672 2.70996-0.0537109Q2.92969 0.15625 3.31055 0.15625ZM6.00586-5.51758L8.37891-12.0898L8.42773-12.0898L10.8008-5.51758Z"/>
  </g>
  <line style="fill:none;stroke:#00AEEF;stroke-width:0.5;opacity:1.0;" x1="793.197" x2="793.197" y1="1919" y2="1933"/>
  <text style="stroke:none;fill:black;font-family:sans-serif;font-size:13;font-weight:bold;" transform="matrix(1 0 0 1 776 1953)">Margins</text>
  <text style="stroke:none;fill:black;font-family:sans-serif;font-size:13;" transform="matrix(1 0 0 1 776 1971)">Leading and trailing margins on the left and right side of each symbol</text>
  <text style="stroke:none;fill:black;font-family:sans-serif;font-size:13;" transform="matrix(1 0 0 1 776 1989)">can be adjusted by modifying the x-location of the margin guidelines.</text>
  <text style="stroke:none;fill:black;font-family:sans-serif;font-size:13;" transform="matrix(1 0 0 1 776 2007)">Modifications are automatically applied proportionally to all</text>
  <text style="stroke:none;fill:black;font-family:sans-serif;font-size:13;" transform="matrix(1 0 0 1 776 2025)">scales and weights.</text>
  <g transform="matrix(1 0 0 1 1289 1933)">
   <path d="M2.8418 1.86523L4.54102 3.57422Q5.18555 4.22852 5.90332 4.17969Q6.62109 4.13086 7.31445 3.35938L18.0078-8.42773L17.041-9.4043L6.42578 2.27539Q6.16211 2.57812 5.89355 2.61719Q5.625 2.65625 5.27344 2.30469L4.10156 1.14258Q3.75 0.791016 3.79395 0.522461Q3.83789 0.253906 4.14062-0.0195312L15.6152-10.8203L14.6387-11.7871L3.04688-0.898438Q2.30469-0.214844 2.25098 0.498047Q2.19727 1.21094 2.8418 1.86523ZM9.25781-16.3281Q8.94531-16.0254 8.90625-15.6348Q8.86719-15.2441 9.04297-14.9512Q9.21875-14.6777 9.55566-14.541Q9.89258-14.4043 10.3809-14.5215Q11.4746-14.7754 12.5977-14.7314Q13.7207-14.6875 14.7949-13.9844L14.209-12.5293Q13.9551-11.9043 14.0674-11.4404Q14.1797-10.9766 14.5801-10.5664L16.875-8.25195Q17.2363-7.88086 17.5781-7.82227Q17.9199-7.76367 18.3398-7.8418L19.4043-8.03711L20.0684-7.36328L20.0293-6.80664Q20-6.43555 20.1221-6.12305Q20.2441-5.81055 20.6055-5.44922L21.3672-4.70703Q21.7285-4.3457 22.1533-4.33105Q22.5781-4.31641 22.9297-4.66797L25.8398-7.58789Q26.1914-7.93945 26.1816-8.35449Q26.1719-8.76953 25.8105-9.13086L25.0391-9.89258Q24.6875-10.2539 24.3799-10.3857Q24.0723-10.5176 23.7109-10.4883L23.1348-10.4395L22.4902-11.0742L22.7344-12.1973Q22.832-12.6172 22.6953-12.9834Q22.5586-13.3496 22.1191-13.7891L19.9219-15.9766Q18.6719-17.2168 17.2607-17.8369Q15.8496-18.457 14.4189-18.4814Q12.9883-18.5059 11.665-17.959Q10.3418-17.4121 9.25781-16.3281ZM10.752-15.957Q11.6602-16.6211 12.7002-16.9043Q13.7402-17.1875 14.8047-17.085Q15.8691-16.9824 16.8701-16.5137Q17.8711-16.0449 18.7012-15.2051L21.1328-12.793Q21.3086-12.6172 21.3525-12.4512Q21.3965-12.2852 21.3379-12.0312L21.0156-10.5469L22.5195-9.0625L23.5059-9.12109Q23.6914-9.13086 23.7891-9.09668Q23.8867-9.0625 24.0332-8.91602L24.6094-8.33984L22.168-5.89844L21.5918-6.47461Q21.4453-6.62109 21.4062-6.71875Q21.3672-6.81641 21.377-7.01172L21.4453-7.98828L19.9512-9.47266L18.4277-9.21875Q18.1836-9.16992 18.042-9.2041Q17.9004-9.23828 17.7148-9.41406L15.7129-11.416Q15.5176-11.5918 15.4932-11.7529Q15.4688-11.9141 15.5859-12.1875L16.4648-14.2773Q15.293-15.3711 13.8281-15.791Q12.3633-16.2109 10.8398-15.7617Q10.7227-15.7324 10.6885-15.8057Q10.6543-15.8789 10.752-15.957Z"/>
  </g>
  <text style="stroke:none;fill:black;font-family:sans-serif;font-size:13;font-weight:bold;" transform="matrix(1 0 0 1 1289 1953)">Exporting</text>
  <text style="stroke:none;fill:black;font-family:sans-serif;font-size:13;" transform="matrix(1 0 0 1 1289 1971)">Symbols should be outlined when exporting to ensure the</text>
  <text style="stroke:none;fill:black;font-family:sans-serif;font-size:13;" transform="matrix(1 0 0 1 1289 1989)">design is preserved when submitting to Xcode.</text>
  <text id="template-version" style="stroke:none;fill:black;font-family:sans-serif;font-size:13;text-anchor:end;" transform="matrix(1 0 0 1 3036 1933)">Template v.3.0</text>
  <text style="stroke:none;fill:black;font-family:sans-serif;font-size:13;text-anchor:end;" transform="matrix(1 0 0 1 3036 1951)">Requires Xcode 13 or greater</text>
  <text id="descriptive-name" style="stroke:none;fill:black;font-family:sans-serif;font-size:13;text-anchor:end;" transform="matrix(1 0 0 1 3036 1969)">Generated from reddit.fill</text>
  <text style="stroke:none;fill:black;font-family:sans-serif;font-size:13;text-anchor:end;" transform="matrix(1 0 0 1 3036 1987)">Typeset at 100 points</text>
  <text style="stroke:none;fill:black;font-family:sans-serif;font-size:13;" transform="matrix(1 0 0 1 263 726)">Small</text>
  <text style="stroke:none;fill:black;font-family:sans-serif;font-size:13;" transform="matrix(1 0 0 1 263 1156)">Medium</text>
  <text style="stroke:none;fill:black;font-family:sans-serif;font-size:13;" transform="matrix(1 0 0 1 263 1586)">Large</text>
 </g>
 <g id="Guides">
  <g id="H-reference" style="fill:#27AAE1;stroke:none;" transform="matrix(1 0 0 1 339 696)">
   <path d="M0.976562 0L3.66211 0L29.3457-67.1387L30.0293-67.1387L30.0293-70.459L28.125-70.459ZM11.6699-24.4629L46.9727-24.4629L46.2402-26.709L12.4512-26.709ZM55.127 0L57.7637 0L30.6152-70.459L29.4434-70.459L29.4434-67.1387Z"/>
  </g>
  <line id="Baseline-S" style="fill:none;stroke:#27AAE1;opacity:1;stroke-width:0.5;" x1="263" x2="3036" y1="696" y2="696"/>
  <line id="Capline-S" style="fill:none;stroke:#27AAE1;opacity:1;stroke-width:0.5;" x1="263" x2="3036" y1="625.541" y2="625.541"/>
  <g id="H-reference" style="fill:#27AAE1;stroke:none;" transform="matrix(1 0 0 1 339 1126)">
   <path d="M0.976562 0L3.66211 0L29.3457-67.1387L30.0293-67.1387L30.0293-70.459L28.125-70.459ZM11.6699-24.4629L46.9727-24.4629L46.2402-26.709L12.4512-26.709ZM55.127 0L57.7637 0L30.6152-70.459L29.4434-70.459L29.4434-67.1387Z"/>
  </g>
  <line id="Baseline-M" style="fill:none;stroke:#27AAE1;opacity:1;stroke-width:0.5;" x1="263" x2="3036" y1="1126" y2="1126"/>
  <line id="Capline-M" style="fill:none;stroke:#27AAE1;opacity:1;stroke-width:0.5;" x1="263" x2="3036" y1="1055.54" y2="1055.54"/>
  <g id="H-reference" style="fill:#27AAE1;stroke:none;" transform="matrix(1 0 0 1 339 1556)">
   <path d="M0.976562 0L3.66211 0L29.3457-67.1387L30.0293-67.1387L30.0293-70.459L28.125-70.459ZM11.6699-24.4629L46.9727-24.4629L46.2402-26.709L12.4512-26.709ZM55.127 0L57.7637 0L30.6152-70.459L29.4434-70.459L29.4434-67.1387Z"/>
  </g>
  <line id="Baseline-L" style="fill:none;stroke:#27AAE1;opacity:1;stroke-width:0.5;" x1="263" x2="3036" y1="1556" y2="1556"/>
  <line id="Capline-L" style="fill:none;stroke:#27AAE1;opacity:1;stroke-width:0.5;" x1="263" x2="3036" y1="1485.54" y2="1485.54"/>
  <line id="left-margin-Regular-M" style="fill:none;stroke:#00AEEF;stroke-width:0.5;opacity:1.0;" x1="1390.68" x2="1390.68" y1="1030.78" y2="1150.12"/>
  <line id="right-margin-Regular-M" style="fill:none;stroke:#00AEEF;stroke-width:0.5;opacity:1.0;" x1="1509.01" x2="1509.01" y1="1030.78" y2="1150.12"/>
 </g>
 <g id="Symbols">
  <g id="Black-L" transform="matrix(1 0 0 1 2853.37 1556)">
   <path d="M154.756-42.4059C154.756-51.4899 147.48-58.7846 138.419-58.7846C134.026-58.7846 130.045-56.9953 127.162-54.2426C116.042-62.3631 100.667-67.5933 83.5068-68.1439L90.92-103.241L115.219-98.0109C115.493-91.8173 120.573-86.8624 126.888-86.8624C133.34-86.8624 138.556-92.0926 138.556-98.5615C138.556-105.03 133.34-110.261 126.888-110.261C122.357-110.261 118.376-107.645 116.454-103.792L89.2726-109.572C88.5862-109.71 87.7625-109.572 87.0761-109.159C86.3897-108.747 85.9779-108.058 85.8406-107.37L77.6037-68.2815C60.169-67.7309 44.6563-62.6384 33.262-54.3802C30.3791-57.1329 26.3979-58.9222 22.0049-58.9222C12.9444-58.9222 5.66849-51.6275 5.66849-42.5435C5.66849-35.9369 9.64964-30.1562 15.2782-27.6788C15.0036-26.0271 14.8663-24.3755 14.8663-22.7239C14.8663 2.46359 44.1072 22.8338 80.2121 22.8338C116.317 22.8338 145.558 2.46359 145.558-22.7239C145.558-24.3755 145.421-26.0271 145.146-27.6788C150.774-30.0186 154.756-35.6617 154.756-42.4059ZM42.197-30.7628C42.197-37.4684 47.6185-42.8899 54.3241-42.8899C61.0296-42.8899 66.4512-37.4684 66.4512-30.7628C66.4512-24.0573 61.0296-18.6357 54.3241-18.6357C47.6185-18.6357 42.197-24.0573 42.197-30.7628ZM108.249 0.378734C100.422 8.63737 85.4447 9.20693 80.9918 9.20693C76.539 9.20693 61.5613 8.63737 53.7351 0.378734C52.5207-0.902778 52.5207-2.89624 53.7351-4.03536C54.9495-5.31688 56.8386-5.31688 57.9181-4.03536C62.9107 1.23308 73.4355 2.94176 80.8569 2.94176C88.2783 2.94176 98.9381 1.09069 103.931-4.17775C105.145-5.45927 107.034-5.45927 108.114-4.17775C109.463-2.75385 109.463-0.760388 108.249 0.378734ZM106.845-18.6357C100.14-18.6357 94.7183-24.0573 94.7183-30.7628C94.7183-37.4684 100.14-42.8899 106.845-42.8899C113.551-42.8899 118.972-37.4684 118.972-30.7628C118.972-24.0573 113.551-18.6357 106.845-18.6357Z"/>
  </g>
  <g id="Heavy-L" transform="matrix(1 0 0 1 2557.59 1556)">
   <path d="M152.479-41.2894C152.479-50.2192 145.332-57.3902 136.431-57.3902C132.116-57.3902 128.205-55.6313 125.374-52.9253C114.45-60.908 99.3471-66.0494 82.4906-66.5906L89.7726-101.092L113.641-95.9509C113.911-89.8624 118.901-84.9916 125.104-84.9916C131.442-84.9916 136.566-90.133 136.566-96.4921C136.566-102.851 131.442-107.993 125.104-107.993C120.654-107.993 116.743-105.422 114.855-101.634L88.1544-107.316C87.4801-107.452 86.671-107.316 85.9967-106.91C85.3225-106.504 84.9179-105.828 84.7831-105.151L76.6919-66.7259C59.5657-66.1847 44.3275-61.1786 33.1348-53.0606C30.3029-55.7666 26.3922-57.5255 22.0769-57.5255C13.1767-57.5255 6.02951-50.3545 6.02951-41.4247C6.02951-34.9302 9.94022-29.2476 15.4691-26.8122C15.1994-25.1886 15.0646-23.565 15.0646-21.9413C15.0646 2.81872 43.7881 22.8433 79.2541 22.8433C114.72 22.8433 143.444 2.81872 143.444-21.9413C143.444-23.565 143.309-25.1886 143.039-26.8122C148.568-29.1123 152.479-34.6596 152.479-41.2894ZM41.7111-29.7653C41.7111-36.3928 47.0695-41.7512 53.6971-41.7512C60.3246-41.7512 65.683-36.3928 65.683-29.7653C65.683-23.1378 60.3246-17.7794 53.6971-17.7794C47.0695-17.7794 41.7111-23.1378 41.7111-29.7653ZM106.46 0.339498C98.7384 8.37963 83.96 8.93412 79.5665 8.93412C75.1729 8.93412 60.3946 8.37963 52.6726 0.339498C51.4743-0.908109 51.4743-2.84883 52.6726-3.95781C53.8708-5.20542 55.7347-5.20542 56.7998-3.95781C61.726 1.17124 72.1107 2.83471 79.4333 2.83471C86.7559 2.83471 97.2739 1.03261 102.2-4.09644C103.398-5.34404 105.262-5.34404 106.327-4.09644C107.659-2.71021 107.659-0.769486 106.46 0.339498ZM104.992-17.7794C98.3644-17.7794 93.006-23.1378 93.006-29.7653C93.006-36.3928 98.3644-41.7512 104.992-41.7512C111.619-41.7512 116.978-36.3928 116.978-29.7653C116.978-23.1378 111.619-17.7794 104.992-17.7794Z"/>
  </g>
  <g id="Bold-L" transform="matrix(1 0 0 1 2262.06 1556)">
   <path d="M149.751-39.8636C149.751-48.621 142.751-55.6535 134.034-55.6535C129.807-55.6535 125.977-53.9286 123.203-51.2748C112.504-59.1034 97.7114-64.1456 81.2013-64.6763L88.3337-98.5119L111.712-93.4697C111.976-87.4987 116.863-82.7219 122.939-82.7219C129.147-82.7219 134.166-87.7641 134.166-94.0005C134.166-100.237 129.147-105.279 122.939-105.279C118.58-105.279 114.75-102.758 112.901-99.0426L86.7487-104.616C86.0883-104.748 85.2958-104.616 84.6354-104.217C83.975-103.819 83.5788-103.156 83.4467-102.493L75.5219-64.809C58.7477-64.2783 43.8226-59.3688 32.8599-51.4075C30.0862-54.0613 26.2559-55.7862 22.0293-55.7862C13.312-55.7862 6.31171-48.7537 6.31171-39.9963C6.31171-33.6272 10.142-28.0543 15.5573-25.6659C15.2932-24.0737 15.1611-22.4814 15.1611-20.8892C15.1611 3.39281 43.2942 23.0307 78.0314 23.0307C112.769 23.0307 140.902 3.39281 140.902-20.8892C140.902-22.4814 140.77-24.0737 140.505-25.6659C145.921-27.9216 149.751-33.3619 149.751-39.8636ZM41.046-28.4726C41.046-35.0128 46.3338-40.3006 52.874-40.3006C59.4142-40.3006 64.702-35.0128 64.702-28.4726C64.702-21.9324 59.4142-16.6446 52.874-16.6446C46.3338-16.6446 41.046-21.9324 41.046-28.4726ZM104.396 0.50871C96.7827 8.27048 82.2117 8.80578 77.8798 8.80578C73.5479 8.80578 58.9769 8.27048 51.3632 0.50871C50.1818-0.695702 50.1818-2.56923 51.3632-3.63982C52.5446-4.84424 54.3824-4.84424 55.4326-3.63982C60.2896 1.31165 70.5287 2.91754 77.7485 2.91754C84.9684 2.91754 95.3388 1.17783 100.196-3.77365C101.377-4.97806 103.215-4.97806 104.265-3.77365C105.578-2.43541 105.578-0.561879 104.396 0.50871ZM102.738-16.6446C96.1978-16.6446 90.9099-21.9324 90.9099-28.4726C90.9099-35.0128 96.1978-40.3006 102.738-40.3006C109.278-40.3006 114.566-35.0128 114.566-28.4726C114.566-21.9324 109.278-16.6446 102.738-16.6446Z"/>
  </g>
  <g id="Semibold-L" transform="matrix(1 0 0 1 1966.16 1556)">
   <path d="M147.871-38.8807C147.871-47.5192 140.972-54.4563 132.38-54.4563C128.215-54.4563 124.44-52.7547 121.707-50.137C111.163-57.8593 96.5838-62.8331 80.3125-63.3566L87.3417-96.7329L110.382-91.7592C110.642-85.8692 115.458-81.1573 121.446-81.1573C127.564-81.1573 132.511-86.131 132.511-92.2827C132.511-98.4344 127.564-103.408 121.446-103.408C117.151-103.408 113.376-100.921 111.553-97.2564L85.7797-102.754C85.1288-102.885 84.3478-102.754 83.697-102.361C83.0461-101.968 82.6556-101.314 82.5254-100.659L74.7152-63.4875C58.1837-62.9639 43.4745-58.1211 32.6704-50.2679C29.9368-52.8856 26.1619-54.5872 21.9965-54.5872C13.4053-54.5872 6.50625-47.6501 6.50625-39.0116C6.50625-32.729 10.2812-27.2317 15.6181-24.8757C15.3578-23.3051 15.2276-21.7344 15.2276-20.1638C15.2276 3.78859 42.9538 23.1599 77.1885 23.1599C111.423 23.1599 139.149 3.78859 139.149-20.1638C139.149-21.7344 139.019-23.3051 138.759-24.8757C144.096-27.1008 147.871-32.4672 147.871-38.8807ZM40.5874-27.5814C40.5874-34.0614 45.8266-39.3006 52.3066-39.3006C58.7866-39.3006 64.0258-34.0614 64.0258-27.5814C64.0258-21.1014 58.7866-15.8622 52.3066-15.8622C45.8266-15.8622 40.5874-21.1014 40.5874-27.5814ZM102.974 0.625365C95.4345 8.19524 81.0065 8.7173 76.717 8.7173C72.4276 8.7173 57.9995 8.19524 50.4605 0.625365C49.2907-0.549271 49.2907-2.37648 50.4605-3.4206C51.6304-4.59524 53.4501-4.59524 54.49-3.4206C59.2994 1.40845 69.438 2.97464 76.587 2.97464C83.7361 2.97464 94.0047 1.27794 98.8141-3.55112C99.9839-4.72575 101.804-4.72575 102.844-3.55112C104.143-2.24597 104.143-0.418756 102.974 0.625365ZM101.184-15.8622C94.7041-15.8622 89.4649-21.1014 89.4649-27.5814C89.4649-34.0614 94.7041-39.3006 101.184-39.3006C107.664-39.3006 112.903-34.0614 112.903-27.5814C112.903-21.1014 107.664-15.8622 101.184-15.8622Z"/>
  </g>
  <g id="Medium-L" transform="matrix(1 0 0 1 1670.07 1556)">
   <path d="M146.445-38.1354C146.445-46.6838 139.623-53.5485 131.127-53.5485C127.008-53.5485 123.275-51.8647 120.572-49.2743C110.146-56.916 95.7288-61.8379 79.6386-62.3559L86.5896-95.384L109.373-90.4622C109.631-84.6337 114.393-79.9709 120.314-79.9709C126.364-79.9709 131.256-84.8927 131.256-90.9802C131.256-97.0678 126.364-101.99 120.314-101.99C116.067-101.99 112.334-99.5287 110.532-95.9021L85.0449-101.342C84.4013-101.471 83.629-101.342 82.9854-100.953C82.3418-100.565 81.9556-99.9172 81.8269-99.2696L74.1036-62.4855C57.756-61.9674 43.2106-57.1751 32.5267-49.4038C29.8236-51.9942 26.0906-53.678 21.9716-53.678C13.476-53.678 6.65376-46.8133 6.65376-38.2649C6.65376-32.0479 10.3867-26.608 15.6642-24.2766C15.4068-22.7223 15.2781-21.168 15.2781-19.6138C15.2781 4.08869 42.6957 23.2579 76.5493 23.2579C110.403 23.2579 137.821 4.08869 137.821-19.6138C137.821-21.168 137.692-22.7223 137.434-24.2766C142.712-26.4784 146.445-31.7888 146.445-38.1354ZM40.2397-26.9057C40.2397-33.3401 45.442-38.5423 51.8763-38.5423C58.3107-38.5423 63.513-33.3401 63.513-26.9057C63.513-20.4713 58.3107-15.269 51.8763-15.269C45.442-15.269 40.2397-20.4713 40.2397-26.9057ZM101.895 0.713817C94.4123 8.13818 80.0926 8.65021 75.8354 8.65021C71.5782 8.65021 57.2585 8.13818 49.7761 0.713817C48.615-0.43824 48.615-2.23033 49.7761-3.25438C50.9372-4.40644 52.7432-4.40644 53.7753-3.25438C58.5485 1.48185 68.611 3.01793 75.7064 3.01793C82.8017 3.01793 92.9932 1.35385 97.7664-3.38238C98.9275-4.53444 100.734-4.53444 101.766-3.38238C103.056-2.10232 103.056-0.310234 101.895 0.713817ZM100.006-15.269C93.5715-15.269 88.3693-20.4713 88.3693-26.9057C88.3693-33.3401 93.5715-38.5423 100.006-38.5423C106.44-38.5423 111.643-33.3401 111.643-26.9057C111.643-20.4713 106.44-15.269 100.006-15.269Z"/>
  </g>
  <g id="Regular-L" transform="matrix(1 0 0 1 1374.16 1556)">
   <path d="M144.585-37.1633C144.585-45.5941 137.863-52.3644 129.492-52.3644C125.434-52.3644 121.755-50.7038 119.092-48.1489C108.819-55.6856 94.6135-60.5398 78.7596-61.0507L85.6085-93.6245L108.058-88.7704C108.311-83.0221 113.004-78.4234 118.838-78.4234C124.799-78.4234 129.619-83.2776 129.619-89.2814C129.619-95.2852 124.799-100.139 118.838-100.139C114.653-100.139 110.975-97.7122 109.199-94.1355L84.0865-99.5006C83.4524-99.6283 82.6914-99.5006 82.0572-99.1174C81.4231-98.7342 81.0426-98.0955 80.9157-97.4568L73.3058-61.1785C57.1983-60.6675 42.8663-55.9411 32.3393-48.2767C29.6758-50.8315 25.9977-52.4921 21.9391-52.4921C13.5682-52.4921 6.84617-45.7219 6.84617-37.291C6.84617-31.1595 10.5243-25.7944 15.7244-23.495C15.4707-21.9622 15.3439-20.4293 15.3439-18.8964C15.3439 4.48011 42.359 23.3857 75.7156 23.3857C109.072 23.3857 136.087 4.48011 136.087-18.8964C136.087-20.4293 135.961-21.9622 135.707-23.495C140.907-25.6666 144.585-30.904 144.585-37.1633ZM39.7862-26.0243C39.7862-32.3992 44.9403-37.5533 51.3152-37.5533C57.69-37.5533 62.8442-32.3992 62.8442-26.0243C62.8442-19.6494 57.69-14.4953 51.3152-14.4953C44.9403-14.4953 39.7862-19.6494 39.7862-26.0243ZM100.487 0.829189C93.0789 8.06376 78.9005 8.5627 74.6854 8.5627C70.4702 8.5627 56.2919 8.06376 48.8834 0.829189C47.7338-0.293417 47.7338-2.03969 48.8834-3.03757C50.033-4.16017 51.8212-4.16017 52.8431-3.03757C57.5692 1.57759 67.5323 3.0744 74.5576 3.0744C81.5829 3.0744 91.6738 1.45286 96.3999-3.1623C97.5495-4.28491 99.3378-4.28491 100.36-3.1623C101.637-1.91496 101.637-0.168683 100.487 0.829189ZM98.4691-14.4953C92.0943-14.4953 86.9401-19.6494 86.9401-26.0243C86.9401-32.3992 92.0943-37.5533 98.4691-37.5533C104.844-37.5533 109.998-32.3992 109.998-26.0243C109.998-19.6494 104.844-14.4953 98.4691-14.4953Z"/>
  </g>
  <g id="Light-L" transform="matrix(1 0 0 1 1078.37 1556)">
   <path d="M143.297-35.9024C143.297-44.3333 136.596-51.1035 128.25-51.1035C124.204-51.1035 120.537-49.4429 117.882-46.8881C107.64-54.4248 93.4782-59.2789 77.6727-59.7899L84.5007-92.3637L106.881-87.5095C107.134-81.7612 111.813-77.1626 117.629-77.1626C123.572-77.1626 128.377-82.0167 128.377-88.0205C128.377-94.0243 123.572-98.8784 117.629-98.8784C113.456-98.8784 109.79-96.4514 108.019-92.8746L82.9834-98.2397C82.3511-98.3675 81.5925-98.2397 80.9602-97.8565C80.328-97.4733 79.9487-96.8346 79.8222-96.1959L72.2356-59.9176C56.1771-59.4066 41.8889-54.6802 31.394-47.0158C28.7387-49.5706 25.0718-51.2312 21.0256-51.2312C12.6802-51.2312 5.97869-44.461 5.97869-36.0301C5.97869-29.8986 9.64558-24.5335 14.8298-22.2342C14.5769-20.7013 14.4505-19.1684 14.4505-17.6355C14.4505 5.74098 41.3831 24.6466 74.638 24.6466C107.893 24.6466 134.826 5.74098 134.826-17.6355C134.826-19.1684 134.699-20.7013 134.446-22.2342C139.63-24.4058 143.297-29.6431 143.297-35.9024ZM38.9187-24.7634C38.9187-31.1383 44.0728-36.2924 50.4477-36.2924C56.8225-36.2924 61.9767-31.1383 61.9767-24.7634C61.9767-18.3886 56.8225-13.2344 50.4477-13.2344C44.0728-13.2344 38.9187-18.3886 38.9187-24.7634ZM100.033 2.3487C92.5666 9.34132 78.2765 9.82357 74.0281 9.82357C69.7797 9.82357 55.4896 9.34132 48.0227 2.3487C46.864 1.26364 46.864-0.424237 48.0227-1.38874C49.1813-2.4738 50.9837-2.4738 52.0136-1.38874C56.777 3.07207 66.8187 4.51882 73.8993 4.51882C80.98 4.51882 91.1505 2.95151 95.9138-1.5093C97.0725-2.59436 98.8748-2.59436 99.9048-1.5093C101.192-0.303675 101.192 1.3842 100.033 2.3487ZM97.1814-13.2344C90.8065-13.2344 85.6524-18.3886 85.6524-24.7634C85.6524-31.1383 90.8065-36.2924 97.1814-36.2924C103.556-36.2924 108.71-31.1383 108.71-24.7634C108.71-18.3886 103.556-13.2344 97.1814-13.2344Z"/>
  </g>
  <g id="Thin-L" transform="matrix(1 0 0 1 782.885 1556)">
   <path d="M141.594-34.2348C141.594-42.6657 134.92-49.4359 126.608-49.4359C122.578-49.4359 118.926-47.7753 116.282-45.2205C106.081-52.7572 91.9767-57.6113 76.2352-58.1223L83.0355-90.6961L105.326-85.8419C105.577-80.0936 110.237-75.495 116.03-75.495C121.949-75.495 126.734-80.3491 126.734-86.3529C126.734-92.3567 121.949-97.2108 116.03-97.2108C111.874-97.2108 108.222-94.7838 106.459-91.207L81.5243-96.5721C80.8947-96.6999 80.1391-96.5721 79.5094-96.1889C78.8797-95.8057 78.5019-95.167 78.376-94.5283L70.8201-58.25C54.8266-57.739 40.5962-53.0126 30.1438-45.3482C27.4992-47.903 23.8472-49.5636 19.8174-49.5636C11.5058-49.5636 4.83138-42.7934 4.83138-34.3625C4.83138-28.231 8.48343-22.8659 13.6467-20.5666C13.3948-19.0337 13.2689-17.5008 13.2689-15.9679C13.2689 7.40859 40.0925 26.3142 73.2128 26.3142C106.333 26.3142 133.157 7.40859 133.157-15.9679C133.157-17.5008 133.031-19.0337 132.779-20.5666C137.942-22.7382 141.594-27.9755 141.594-34.2348ZM37.7714-23.0958C37.7714-29.4707 42.9255-34.6248 49.3004-34.6248C55.6752-34.6248 60.8294-29.4707 60.8294-23.0958C60.8294-16.721 55.6752-11.5668 49.3004-11.5668C42.9255-11.5668 37.7714-16.721 37.7714-23.0958ZM99.4332 4.35837C91.8891 11.031 77.4511 11.4912 73.1588 11.4912C68.8664 11.4912 54.4285 11.031 46.8844 4.35837C45.7137 3.32297 45.7137 1.71233 46.8844 0.791973C48.055-0.243433 49.876-0.243433 50.9166 0.791973C55.7292 5.04864 65.8748 6.42918 73.0287 6.42918C80.1826 6.42918 90.4583 4.9336 95.2709 0.676928C96.4416-0.358478 98.2626-0.358478 99.3031 0.676928C100.604 1.82738 100.604 3.43801 99.4332 4.35837ZM95.4782-11.5668C89.1033-11.5668 83.9492-16.721 83.9492-23.0958C83.9492-29.4707 89.1033-34.6248 95.4782-34.6248C101.853-34.6248 107.007-29.4707 107.007-23.0958C107.007-16.721 101.853-11.5668 95.4782-11.5668Z"/>
  </g>
  <g id="Ultralight-L" transform="matrix(1 0 0 1 486.799 1556)">
   <path d="M140.722-33.3807C140.722-41.8115 134.061-48.5818 125.767-48.5818C121.746-48.5818 118.101-46.9211 115.462-44.3663C105.283-51.903 91.2077-56.7572 75.4989-57.2681L82.2851-89.8419L104.529-84.9878C104.78-79.2395 109.43-74.6408 115.211-74.6408C121.117-74.6408 125.893-79.495 125.893-85.4988C125.893-91.5026 121.117-96.3567 115.211-96.3567C111.064-96.3567 107.419-93.9296 105.66-90.3529L80.777-95.718C80.1487-95.8457 79.3946-95.718 78.7663-95.3348C78.1379-94.9515 77.7609-94.3128 77.6353-93.6741L70.095-57.3959C54.1349-56.8849 39.9341-52.1585 29.5035-44.4941C26.8644-47.0489 23.22-48.7095 19.1985-48.7095C10.9043-48.7095 4.24373-41.9393 4.24373-33.5084C4.24373-27.3769 7.88818-22.0118 13.0407-19.7124C12.7893-18.1795 12.6637-16.6467 12.6637-15.1138C12.6637 8.26272 39.4315 27.1683 72.4828 27.1683C105.534 27.1683 132.302 8.26272 132.302-15.1138C132.302-16.6467 132.176-18.1795 131.925-19.7124C137.077-21.884 140.722-27.1214 140.722-33.3807ZM37.1837-22.2417C37.1837-28.6166 42.3379-33.7707 48.7127-33.7707C55.0876-33.7707 60.2417-28.6166 60.2417-22.2417C60.2417-15.8668 55.0876-10.7127 48.7127-10.7127C42.3379-10.7127 37.1837-15.8668 37.1837-22.2417ZM99.1258 5.38772C91.5421 11.8964 77.0284 12.3453 72.7135 12.3453C68.3987 12.3453 53.885 11.8964 46.3013 5.38772C45.1245 4.37774 45.1245 2.80668 46.3013 1.90892C47.4781 0.898949 49.3087 0.898949 50.3547 1.90892C55.1926 6.06103 65.3913 7.40766 72.5828 7.40766C79.7742 7.40766 90.1038 5.94881 94.9416 1.7967C96.1184 0.78673 97.949 0.78673 98.995 1.7967C100.303 2.91889 100.303 4.48996 99.1258 5.38772ZM94.6058-10.7127C88.231-10.7127 83.0768-15.8668 83.0768-22.2417C83.0768-28.6166 88.231-33.7707 94.6058-33.7707C100.981-33.7707 106.135-28.6166 106.135-22.2417C106.135-15.8668 100.981-10.7127 94.6058-10.7127Z"/>
  </g>
  <g id="Black-M" transform="matrix(1 0 0 1 2870.71 1126)">
   <path d="M121.678-41.5781C121.678-48.7484 115.933-54.5063 108.779-54.5063C105.311-54.5063 102.167-53.094 99.8912-50.9212C91.1114-57.3309 78.9714-61.4592 65.4223-61.8938L71.2755-89.5969L90.461-85.4686C90.6778-80.5798 94.6883-76.6688 99.6744-76.6688C104.769-76.6688 108.888-80.7971 108.888-85.9032C108.888-91.0092 104.769-95.1376 99.6744-95.1376C96.0974-95.1376 92.954-93.0734 91.4365-90.0315L69.9748-94.5944C69.4329-94.703 68.7825-94.5944 68.2406-94.2684C67.6986-93.9425 67.3734-93.3993 67.265-92.8561L60.7615-62.0024C46.9956-61.5679 34.7473-57.5482 25.7507-51.0298C23.4745-53.2026 20.3311-54.6149 16.8625-54.6149C9.70861-54.6149 3.96381-48.857 3.96381-41.6868C3.96381-36.4721 7.10719-31.9092 11.5513-29.9537C11.3345-28.65 11.2261-27.3463 11.2261-26.0427C11.2261-6.16157 34.3137 9.91711 62.8209 9.91711C91.3282 9.91711 114.416-6.16157 114.416-26.0427C114.416-27.3463 114.307-28.65 114.091-29.9537C118.535-31.8006 121.678-36.2548 121.678-41.5781ZM32.9918-32.4556C32.9918-37.7177 37.2463-41.9722 42.5085-41.9722C47.7706-41.9722 52.0251-37.7177 52.0251-32.4556C52.0251-27.1934 47.7706-22.9389 42.5085-22.9389C37.2463-22.9389 32.9918-27.1934 32.9918-32.4556ZM85.34-7.40283C79.1793-0.849507 67.389-0.397554 63.8837-0.397554C60.3785-0.397554 48.5882-0.849507 42.4275-7.40283C41.4715-8.41972 41.4715-10.0016 42.4275-10.9055C43.3834-11.9224 44.8705-11.9224 45.7203-10.9055C49.6504-6.7249 57.9355-5.36904 63.7775-5.36904C69.6196-5.36904 78.0109-6.83788 81.941-11.0184C82.897-12.0353 84.384-12.0353 85.2338-11.0184C86.296-9.88857 86.296-8.30673 85.34-7.40283ZM84.196-22.9389C78.9339-22.9389 74.6794-27.1934 74.6794-32.4556C74.6794-37.7177 78.9339-41.9722 84.196-41.9722C89.4582-41.9722 93.7127-37.7177 93.7127-32.4556C93.7127-27.1934 89.4582-22.9389 84.196-22.9389Z"/>
  </g>
  <g id="Heavy-M" transform="matrix(1 0 0 1 2574.84 1126)">
   <path d="M119.571-40.603C119.571-47.6226 113.95-53.2595 106.951-53.2595C103.557-53.2595 100.481-51.8768 98.2542-49.7497C89.6639-56.0248 77.7859-60.0663 64.5292-60.4917L70.2561-87.6127L89.0276-83.5711C89.2397-78.7851 93.1637-74.9563 98.0421-74.9563C103.027-74.9563 107.057-78.9978 107.057-83.9966C107.057-88.9953 103.027-93.0369 98.0421-93.0369C94.5424-93.0369 91.4668-91.0161 89.9821-88.0381L68.9834-92.5051C68.4532-92.6115 67.8168-92.5051 67.2866-92.186C66.7563-91.867 66.4381-91.3352 66.3321-90.8034L59.9689-60.5981C46.5001-60.1727 34.516-56.2375 25.7135-49.8561C23.4864-51.9832 20.4109-53.3658 17.0171-53.3658C10.0176-53.3658 4.39676-47.7289 4.39676-40.7094C4.39676-35.6043 7.47232-31.1373 11.8205-29.2229C11.6084-27.9466 11.5024-26.6703 11.5024-25.394C11.5024-5.93073 34.0918 9.81007 61.9839 9.81007C89.876 9.81007 112.465-5.93073 112.465-25.394C112.465-26.6703 112.359-27.9466 112.147-29.2229C116.495-31.0309 119.571-35.3915 119.571-40.603ZM32.5969-31.5967C32.5969-36.7826 36.7897-40.9754 41.9756-40.9754C47.1614-40.9754 51.3542-36.7826 51.3542-31.5967C51.3542-26.4109 47.1614-22.218 41.9756-22.218C36.7897-22.218 32.5969-26.4109 32.5969-31.5967ZM83.6338-7.58136C77.5803-1.21932 65.9952-0.780561 62.551-0.780561C59.1067-0.780561 47.5216-1.21932 41.4681-7.58136C40.5288-8.56857 40.5288-10.1042 41.4681-10.9818C42.4075-11.969 43.8686-11.969 44.7036-10.9818C48.5653-6.92322 56.7062-5.60693 62.4466-5.60693C68.187-5.60693 76.4323-7.03291 80.294-11.0914C81.2333-12.0787 82.6945-12.0787 83.5295-11.0914C84.5732-9.99455 84.5732-8.45888 83.6338-7.58136ZM82.503-22.218C77.3171-22.218 73.1243-26.4109 73.1243-31.5967C73.1243-36.7826 77.3171-40.9754 82.503-40.9754C87.6888-40.9754 91.8817-36.7826 91.8817-31.5967C91.8817-26.4109 87.6888-22.218 82.503-22.218Z"/>
  </g>
  <g id="Bold-M" transform="matrix(1 0 0 1 2279.05 1126)">
   <path d="M117.214-39.5122C117.214-46.3632 111.732-51.8648 104.905-51.8648C101.595-51.8648 98.5953-50.5153 96.4231-48.4393C88.0447-54.5636 76.4597-58.5081 63.53-58.9233L69.1157-85.3931L87.4241-81.4486C87.6309-76.7774 91.4581-73.0405 96.2162-73.0405C101.078-73.0405 105.008-76.985 105.008-81.8638C105.008-86.7425 101.078-90.687 96.2162-90.687C92.8028-90.687 89.8031-88.7148 88.355-85.8083L67.8744-90.168C67.3572-90.2718 66.7366-90.168 66.2194-89.8566C65.7022-89.5452 65.3919-89.0262 65.2885-88.5072L59.0822-59.0271C45.9457-58.6119 34.2573-54.7712 25.672-48.5431C23.4998-50.6191 20.5001-51.9686 17.1901-51.9686C10.3633-51.9686 4.88108-46.467 4.88108-39.616C4.88108-34.6335 7.88076-30.2738 12.1217-28.4053C11.9148-27.1597 11.8114-25.914 11.8114-24.6684C11.8114-5.67249 33.8435 9.69032 61.0475 9.69032C88.2516 9.69032 110.284-5.67249 110.284-24.6684C110.284-25.914 110.18-27.1597 109.973-28.4053C114.214-30.17 117.214-34.4259 117.214-39.5122ZM32.1551-30.636C32.1551-35.7365 36.2789-39.8603 41.3794-39.8603C46.4799-39.8603 50.6037-35.7365 50.6037-30.636C50.6037-25.5355 46.4799-21.4117 41.3794-21.4117C36.2789-21.4117 32.1551-25.5355 32.1551-30.636ZM81.7252-7.78108C75.7917-1.63301 64.4361-1.20901 61.0601-1.20901C57.6841-1.20901 46.3285-1.63301 40.395-7.78108C39.4742-8.73509 39.4742-10.2191 40.395-11.0671C41.3157-12.0211 42.7479-12.0211 43.5663-11.0671C47.3515-7.14507 55.3311-5.87306 60.9578-5.87306C66.5844-5.87306 74.6663-7.25107 78.4515-11.1731C79.3723-12.1271 80.8045-12.1271 81.6229-11.1731C82.6459-10.1131 82.6459-8.62908 81.7252-7.78108ZM80.609-21.4117C75.5085-21.4117 71.3847-25.5355 71.3847-30.636C71.3847-35.7365 75.5085-39.8603 80.609-39.8603C85.7095-39.8603 89.8334-35.7365 89.8334-30.636C89.8334-25.5355 85.7095-21.4117 80.609-21.4117Z"/>
  </g>
  <g id="Semibold-M" transform="matrix(1 0 0 1 1982.98 1126)">
   <path d="M115.589-38.7602C115.589-45.495 110.203-50.9032 103.495-50.9032C100.242-50.9032 97.2951-49.5767 95.1608-47.5358C86.9284-53.5563 75.5455-57.4339 62.8412-57.8421L68.3295-83.8629L86.3186-79.9853C86.5219-75.3934 90.2823-71.7198 94.9575-71.7198C99.7343-71.7198 103.596-75.5974 103.596-80.3934C103.596-85.1894 99.7343-89.067 94.9575-89.067C91.6036-89.067 88.6562-87.1282 87.2333-84.271L67.1099-88.5568C66.6017-88.6588 65.9919-88.5568 65.4837-88.2507C64.9756-87.9445 64.6707-87.4343 64.569-86.9241L58.471-57.9441C45.5635-57.536 34.0789-53.7604 25.6433-47.6379C23.509-49.6787 20.5616-51.0053 17.3094-51.0053C10.6015-51.0053 5.21496-45.597 5.21496-38.8623C5.21496-33.9642 8.16234-29.6785 12.3293-27.8417C12.1261-26.6172 12.0244-25.3927 12.0244-24.1682C12.0244-5.49447 33.6724 9.60777 60.402 9.60777C87.1317 9.60777 108.78-5.49447 108.78-24.1682C108.78-25.3927 108.678-26.6172 108.475-27.8417C112.642-29.5764 115.589-33.7602 115.589-38.7602ZM31.8505-29.9737C31.8505-35.0154 35.9268-39.0916 40.9684-39.0916C46.0101-39.0916 50.0864-35.0154 50.0864-29.9737C50.0864-24.932 46.0101-20.8558 40.9684-20.8558C35.9268-20.8558 31.8505-24.932 31.8505-29.9737ZM80.4094-7.91876C74.5586-1.91821 63.3612-1.50438 60.0323-1.50438C56.7033-1.50438 45.506-1.91821 39.6551-7.91876C38.7472-8.84988 38.7472-10.2983 39.6551-11.1259C40.563-12.0571 41.9753-12.0571 42.7823-11.1259C46.5148-7.29801 54.3832-6.05652 59.9314-6.05652C65.4796-6.05652 73.4489-7.40147 77.1814-11.2294C78.0893-12.1605 79.5015-12.1605 80.3085-11.2294C81.3173-10.1948 81.3173-8.74642 80.4094-7.91876ZM79.3033-20.8558C74.2617-20.8558 70.1854-24.932 70.1854-29.9737C70.1854-35.0154 74.2617-39.0916 79.3033-39.0916C84.345-39.0916 88.4213-35.0154 88.4213-29.9737C88.4213-24.932 84.345-20.8558 79.3033-20.8558Z"/>
  </g>
  <g id="Medium-M" transform="matrix(1 0 0 1 1686.76 1126)">
   <path d="M114.357-38.19C114.357-44.8367 109.043-50.1742 102.425-50.1742C99.2169-50.1742 96.3092-48.865 94.2036-46.8508C86.082-52.7926 74.8522-56.6194 62.319-57.0223L67.7333-82.7026L85.4804-78.8757C85.681-74.3439 89.3908-70.7184 94.003-70.7184C98.7155-70.7184 102.526-74.5453 102.526-79.2786C102.526-84.0118 98.7155-87.8387 94.003-87.8387C90.6943-87.8387 87.7865-85.9252 86.3828-83.1054L66.5301-87.3351C66.0288-87.4358 65.4272-87.3351 64.9259-87.033C64.4246-86.7309 64.1238-86.2273 64.0235-85.7238L58.0075-57.123C45.2737-56.7201 33.9437-52.994 25.6216-46.9515C23.516-48.9657 20.6083-50.2749 17.3998-50.2749C10.7822-50.2749 5.46813-44.9374 5.46813-38.2907C5.46813-33.4568 8.37585-29.2271 12.4868-27.4144C12.2862-26.2059 12.186-24.9974 12.186-23.7889C12.186-5.35948 33.5426 9.54518 59.9126 9.54518C86.2826 9.54518 107.639-5.35948 107.639-23.7889C107.639-24.9974 107.539-26.2059 107.338-27.4144C111.449-29.1264 114.357-33.2554 114.357-38.19ZM31.6196-29.4715C31.6196-34.4686 35.6597-38.5087 40.6568-38.5087C45.6539-38.5087 49.6941-34.4686 49.6941-29.4715C49.6941-24.4744 45.6539-20.4343 40.6568-20.4343C35.6597-20.4343 31.6196-24.4744 31.6196-29.4715ZM79.4117-8.02316C73.6236-2.13446 62.5462-1.72834 59.2529-1.72834C55.9597-1.72834 44.8823-2.13446 39.0942-8.02316C38.196-8.93692 38.196-10.3583 39.0942-11.1706C39.9923-12.0843 41.3895-12.0843 42.1878-11.1706C45.8803-7.41398 53.6644-6.19563 59.1531-6.19563C64.6419-6.19563 72.5258-7.51551 76.2183-11.2721C77.1164-12.1859 78.5136-12.1859 79.3119-11.2721C80.3099-10.2568 80.3099-8.83539 79.4117-8.02316ZM78.3133-20.4343C73.3163-20.4343 69.2761-24.4744 69.2761-29.4715C69.2761-34.4686 73.3163-38.5087 78.3133-38.5087C83.3104-38.5087 87.3506-34.4686 87.3506-29.4715C87.3506-24.4744 83.3104-20.4343 78.3133-20.4343Z"/>
  </g>
  <g id="Regular-M" transform="matrix(1 0 0 1 1390.68 1126)">
   <path d="M112.75-37.4463C112.75-43.978 107.53-49.2232 101.031-49.2232C97.8792-49.2232 95.0232-47.9367 92.9551-45.9574C84.978-51.7963 73.948-55.557 61.6377-55.9529L66.9558-81.1892L84.3871-77.4285C84.5841-72.975 88.2279-69.4123 92.7581-69.4123C97.3868-69.4123 101.129-73.173 101.129-77.8244C101.129-82.4758 97.3868-86.2365 92.7581-86.2365C89.5082-86.2365 86.6522-84.3561 85.2735-81.5851L65.774-85.7416C65.2816-85.8406 64.6907-85.7416 64.1983-85.4447C63.7059-85.1478 63.4104-84.653 63.3119-84.1582L57.403-56.0519C44.8958-55.656 33.7673-51.9943 25.5933-46.0563C23.5251-48.0356 20.6692-49.3222 17.5177-49.3222C11.0179-49.3222 5.79835-44.077 5.79835-37.5453C5.79835-32.7949 8.65433-28.6383 12.6921-26.8569C12.4951-25.6694 12.3967-24.4818 12.3967-23.2942C12.3967-5.18341 33.3734 9.46353 59.2742 9.46353C85.175 9.46353 106.152-5.18341 106.152-23.2942C106.152-24.4818 106.053-25.6694 105.856-26.8569C109.894-28.5394 112.75-32.597 112.75-37.4463ZM31.3183-28.8165C31.3183-33.7553 35.3115-37.7485 40.2503-37.7485C45.1892-37.7485 49.1823-33.7553 49.1823-28.8165C49.1823-23.8776 45.1892-19.8845 40.2503-19.8845C35.3115-19.8845 31.3183-23.8776 31.3183-28.8165ZM78.1104-8.15933C72.404-2.41652 61.4832-2.02047 58.2364-2.02047C54.9897-2.02047 44.0688-2.41652 38.3625-8.15933C37.477-9.05045 37.477-10.4366 38.3625-11.2288C39.2479-12.1199 40.6253-12.1199 41.4124-11.2288C45.0527-7.56524 52.7268-6.37708 58.138-6.37708C63.5493-6.37708 71.3218-7.66426 74.9621-11.3278C75.8475-12.2189 77.2249-12.2189 78.012-11.3278C78.9959-10.3376 78.9959-8.95144 78.1104-8.15933ZM77.022-19.8845C72.0831-19.8845 68.09-23.8776 68.09-28.8165C68.09-33.7553 72.0831-37.7485 77.022-37.7485C81.9609-37.7485 85.954-33.7553 85.954-28.8165C85.954-23.8776 81.9609-19.8845 77.022-19.8845Z"/>
  </g>
  <g id="Light-M" transform="matrix(1 0 0 1 1094.8 1126)">
   <path d="M111.595-36.3159C111.595-42.8476 106.394-48.0928 99.9174-48.0928C96.777-48.0928 93.9311-46.8062 91.8703-44.8269C83.9213-50.6659 72.9302-54.4266 60.6633-54.8225L65.9626-80.0588L83.3325-76.2981C83.5288-71.8446 87.1598-68.2818 91.674-68.2818C96.2864-68.2818 100.015-72.0425 100.015-76.6939C100.015-81.3453 96.2864-85.106 91.674-85.106C88.4355-85.106 85.5896-83.2257 84.2157-80.4546L64.7849-84.6112C64.2943-84.7102 63.7055-84.6112 63.2148-84.3143C62.7241-84.0174 62.4297-83.5226 62.3316-83.0277L56.4435-54.9214C43.9803-54.5256 32.891-50.8638 24.7458-44.9259C22.6849-46.9052 19.839-48.1918 16.6987-48.1918C10.2218-48.1918 5.02061-42.9466 5.02061-36.4148C5.02061-31.6645 7.86653-27.5079 11.8901-25.7265C11.6938-24.5389 11.5957-23.3513 11.5957-22.1637C11.5957-4.05298 32.4985 10.594 58.308 10.594C84.1176 10.594 105.02-4.05298 105.02-22.1637C105.02-23.3513 104.922-24.5389 104.726-25.7265C108.75-27.4089 111.595-31.4665 111.595-36.3159ZM30.5406-27.686C30.5406-32.6249 34.5337-36.618 39.4726-36.618C44.4115-36.618 48.4046-32.6249 48.4046-27.686C48.4046-22.7472 44.4115-18.754 39.4726-18.754C34.5337-18.754 30.5406-22.7472 30.5406-27.686ZM77.7035-6.79701C71.9447-1.27113 60.9237-0.890031 57.6471-0.890031C54.3706-0.890031 43.3496-1.27113 37.5908-6.79701C36.6972-7.65447 36.6972-8.9883 37.5908-9.7505C38.4844-10.608 39.8744-10.608 40.6688-9.7505C44.3424-6.22536 52.087-5.08208 57.5479-5.08208C63.0087-5.08208 70.8526-6.32064 74.5262-9.84577C75.4198-10.7032 76.8099-10.7032 77.6042-9.84577C78.5971-8.89303 78.5971-7.5592 77.7035-6.79701ZM75.8674-18.754C70.9286-18.754 66.9354-22.7472 66.9354-27.686C66.9354-32.6249 70.9286-36.618 75.8674-36.618C80.8063-36.618 84.7994-32.6249 84.7994-27.686C84.7994-22.7472 80.8063-18.754 75.8674-18.754Z"/>
  </g>
  <g id="Thin-M" transform="matrix(1 0 0 1 799.184 1126)">
   <path d="M110.068-34.8208C110.068-41.3525 104.892-46.5977 98.445-46.5977C95.3193-46.5977 92.4867-45.3111 90.4355-43.3318C82.5237-49.1708 71.584-52.9315 59.3745-53.3274L64.649-78.5637L81.9377-74.803C82.133-70.3495 85.7471-66.7867 90.2402-66.7867C94.831-66.7867 98.5427-70.5474 98.5427-75.1988C98.5427-79.8502 94.831-83.6109 90.2402-83.6109C87.0168-83.6109 84.1842-81.7306 82.8168-78.9595L63.4769-83.1161C62.9885-83.2151 62.4024-83.1161 61.914-82.8192C61.4257-82.5223 61.1326-82.0275 61.0349-81.5327L55.1744-53.4263C42.7695-53.0305 31.7321-49.3687 23.6249-43.4308C21.5737-45.4101 18.7411-46.6967 15.6155-46.6967C9.16883-46.6967 3.99198-41.4515 3.99198-34.9197C3.99198-30.1694 6.8246-26.0128 10.8293-24.2314C10.634-23.0438 10.5363-21.8562 10.5363-20.6686C10.5363-2.55789 31.3414 12.0891 57.0302 12.0891C82.7191 12.0891 103.524-2.55789 103.524-20.6686C103.524-21.8562 103.426-23.0438 103.231-24.2314C107.236-25.9138 110.068-29.9714 110.068-34.8208ZM29.512-26.1909C29.512-31.1298 33.5051-35.1229 38.444-35.1229C43.3829-35.1229 47.376-31.1298 47.376-26.1909C47.376-21.2521 43.3829-17.2589 38.444-17.2589C33.5051-17.2589 29.512-21.2521 29.512-26.1909ZM77.1653-4.99523C71.3373 0.243752 60.1837 0.605061 56.8678 0.605061C53.5518 0.605061 42.3982 0.243752 36.5702-4.99523C35.6659-5.80818 35.6659-7.07276 36.5702-7.79538C37.4746-8.60832 38.8813-8.60832 39.6852-7.79538C43.4031-4.45327 51.2407-3.36934 56.7673-3.36934C62.2939-3.36934 70.232-4.54359 73.9499-7.8857C74.8542-8.69865 76.261-8.69865 77.0648-7.8857C78.0697-6.98243 78.0697-5.71785 77.1653-4.99523ZM74.3405-17.2589C69.4016-17.2589 65.4085-21.2521 65.4085-26.1909C65.4085-31.1298 69.4016-35.1229 74.3405-35.1229C79.2793-35.1229 83.2725-31.1298 83.2725-26.1909C83.2725-21.2521 79.2793-17.2589 74.3405-17.2589Z"/>
  </g>
  <g id="Ultralight-M" transform="matrix(1 0 0 1 503.034 1126)">
   <path d="M109.286-34.055C109.286-40.5867 104.122-45.8319 97.6908-45.8319C94.5727-45.8319 91.7469-44.5454 89.7006-42.5661C81.8079-48.405 70.8945-52.1657 58.7143-52.5616L63.9762-77.7979L81.2233-74.0372C81.4181-69.5837 85.0235-66.021 89.5058-66.021C94.0855-66.021 97.7883-69.7817 97.7883-74.4331C97.7883-79.0845 94.0855-82.8452 89.5058-82.8452C86.2902-82.8452 83.4644-80.9648 82.1002-78.1938L62.8069-82.3503C62.3197-82.4493 61.735-82.3503 61.2478-82.0534C60.7606-81.7565 60.4683-81.2617 60.3708-80.7669L54.5244-52.6606C42.1493-52.2647 31.1384-48.603 23.0508-42.665C21.0046-44.6443 18.1788-45.9309 15.0606-45.9309C8.62952-45.9309 3.46513-40.6857 3.46513-34.154C3.46513-29.4036 6.29093-25.247 10.286-23.4656C10.0911-22.278 9.99369-21.0905 9.99369-19.9029C9.99369-1.79211 30.7487 12.8548 56.3757 12.8548C82.0028 12.8548 102.758-1.79211 102.758-19.9029C102.758-21.0905 102.66-22.278 102.465-23.4656C106.461-25.1481 109.286-29.2057 109.286-34.055ZM28.9851-25.4252C28.9851-30.364 32.9783-34.3572 37.9171-34.3572C42.856-34.3572 46.8491-30.364 46.8491-25.4252C46.8491-20.4863 42.856-16.4932 37.9171-16.4932C32.9783-16.4932 28.9851-20.4863 28.9851-25.4252ZM76.8897-4.07237C71.0262 1.01966 59.8047 1.37084 56.4686 1.37084C53.1325 1.37084 41.911 1.01966 36.0475-4.07237C35.1377-4.86251 35.1377-6.09162 36.0475-6.79397C36.9574-7.58412 38.3727-7.58412 39.1814-6.79397C42.9219-3.54561 50.8073-2.49208 56.3675-2.49208C61.9277-2.49208 69.9142-3.6334 73.6546-6.88177C74.5645-7.67191 75.9798-7.67191 76.7886-6.88177C77.7995-6.00383 77.7995-4.77472 76.8897-4.07237ZM73.5583-16.4932C68.6195-16.4932 64.6263-20.4863 64.6263-25.4252C64.6263-30.364 68.6195-34.3572 73.5583-34.3572C78.4972-34.3572 82.4903-30.364 82.4903-25.4252C82.4903-20.4863 78.4972-16.4932 73.5583-16.4932Z"/>
  </g>
  <g id="Black-S" transform="matrix(1 0 0 1 2884.07 696)">
   <path d="M95.93-40.4346C95.93-46.0995 91.3913-50.6487 85.7394-50.6487C82.9991-50.6487 80.5156-49.5328 78.7173-47.8162C71.7808-52.8803 62.1897-56.1419 51.4852-56.4853L56.1096-78.3725L71.267-75.1109C71.4383-71.2484 74.6068-68.1585 78.546-68.1585C82.5709-68.1585 85.825-71.4201 85.825-75.4542C85.825-79.4884 82.5709-82.75 78.546-82.75C75.7201-82.75 73.2366-81.1192 72.0377-78.7159L55.0819-82.3208C54.6538-82.4067 54.1399-82.3208 53.7118-82.0633C53.2836-81.8058 53.0267-81.3767 52.941-80.9475L47.8029-56.5711C36.9272-56.2278 27.2504-53.052 20.1427-47.902C18.3444-49.6187 15.8609-50.7345 13.1206-50.7345C7.46867-50.7345 2.93-46.1854 2.93-40.5204C2.93-36.4005 5.41343-32.7955 8.92448-31.2505C8.7532-30.2205 8.66757-29.1905 8.66757-28.1605C8.66757-12.4532 26.9079 0.25 49.43 0.25C71.9521 0.25 90.1924-12.4532 90.1924-28.1605C90.1924-29.1905 90.1068-30.2205 89.9355-31.2505C93.4466-32.7097 95.93-36.2288 95.93-40.4346ZM25.93-33.25C25.93-37.3971 29.2829-40.75 33.43-40.75C37.5771-40.75 40.93-37.3971 40.93-33.25C40.93-29.1029 37.5771-25.75 33.43-25.75C29.2829-25.75 25.93-29.1029 25.93-33.25ZM67.374-13.2885C62.5104-8.10732 53.2023-7.75 50.435-7.75C47.6678-7.75 38.3597-8.10732 33.496-13.2885C32.7413-14.0924 32.7413-15.3431 33.496-16.0577C34.2507-16.8617 35.4247-16.8617 36.0956-16.0577C39.1983-12.7525 45.7391-11.6805 50.3512-11.6805C54.9633-11.6805 61.5879-12.8418 64.6906-16.147C65.4453-16.951 66.6193-16.951 67.2902-16.147C68.1287-15.2537 68.1287-14.0031 67.374-13.2885ZM66.43-25.75C62.2829-25.75 58.93-29.1029 58.93-33.25C58.93-37.3971 62.2829-40.75 66.43-40.75C70.5771-40.75 73.93-37.3971 73.93-33.25C73.93-29.1029 70.5771-25.75 66.43-25.75Z"/>
  </g>
  <g id="Heavy-S" transform="matrix(1 0 0 1 2587.96 696)">
   <path d="M94.2755-39.7451C94.2755-45.2811 89.8405-49.7268 84.3176-49.7268C81.6399-49.7268 79.2132-48.6363 77.4559-46.9587C70.6779-51.9077 61.3058-55.0951 50.8459-55.4306L55.3646-76.82L70.1758-73.6325C70.3432-69.858 73.4393-66.8383 77.2886-66.8383C81.2215-66.8383 84.4013-70.0257 84.4013-73.9681C84.4013-77.9104 81.2215-81.0979 77.2886-81.0979C74.5272-81.0979 72.1005-79.5041 70.9289-77.1555L54.3604-80.6785C53.942-80.7623 53.44-80.6785 53.0216-80.4268C52.6032-80.1752 52.3521-79.7558 52.2684-79.3364L47.2477-55.5145C36.6204-55.179 27.1646-52.0754 20.2192-47.0426C18.462-48.7202 16.0353-49.8107 13.3575-49.8107C7.83469-49.8107 3.39968-45.365 3.39968-39.829C3.39968-35.8027 5.82638-32.2798 9.25724-30.7699C9.08988-29.7634 9.0062-28.7568 9.0062-27.7503C9.0062-12.4002 26.8299 0.0139789 48.8376 0.0139789C70.8453 0.0139789 88.669-12.4002 88.669-27.7503C88.669-28.7568 88.5853-29.7634 88.4179-30.7699C91.8488-32.1959 94.2755-35.635 94.2755-39.7451ZM25.6916-32.6599C25.6916-36.7418 28.9918-40.0419 33.0736-40.0419C37.1554-40.0419 40.4556-36.7418 40.4556-32.6599C40.4556-28.5781 37.1554-25.278 33.0736-25.278C28.9918-25.278 25.6916-28.5781 25.6916-32.6599ZM65.9668-13.6153C61.2015-8.56999 52.0818-8.22204 49.3705-8.22204C46.6592-8.22204 37.5394-8.56999 32.7742-13.6153C32.0347-14.3981 32.0347-15.616 32.7742-16.3119C33.5136-17.0948 34.6638-17.0948 35.3211-16.3119C38.361-13.0933 44.7695-12.0495 49.2883-12.0495C53.8071-12.0495 60.2978-13.1803 63.3377-16.3989C64.0771-17.1817 65.2274-17.1817 65.8846-16.3989C66.7062-15.529 66.7062-14.3112 65.9668-13.6153ZM65.1295-25.278C61.0477-25.278 57.7475-28.5781 57.7475-32.6599C57.7475-36.7418 61.0477-40.0419 65.1295-40.0419C69.2113-40.0419 72.5115-36.7418 72.5115-32.6599C72.5115-28.5781 69.2113-25.278 65.1295-25.278Z"/>
  </g>
  <g id="Bold-S" transform="matrix(1 0 0 1 2291.93 696)">
   <path d="M92.425-38.9739C92.425-44.3658 88.1059-48.6957 82.7275-48.6957C80.1198-48.6957 77.7565-47.6337 76.0452-45.9997C69.4443-50.8198 60.3173-53.9243 50.1308-54.251L54.5314-75.0835L68.9554-71.9791C69.1184-68.3027 72.1336-65.3617 75.8822-65.3617C79.7123-65.3617 82.809-68.4661 82.809-72.3058C82.809-76.1456 79.7123-79.25 75.8822-79.25C73.193-79.25 70.8297-77.6978 69.6888-75.4103L53.5535-78.8415C53.146-78.9232 52.657-78.8415 52.2496-78.5964C51.8421-78.3513 51.5977-77.9429 51.5162-77.5344L46.6267-54.3327C36.2772-54.0059 27.0686-50.9832 20.3048-46.0814C18.5935-47.7154 16.2302-48.7774 13.6225-48.7774C8.24406-48.7774 3.925-44.4475 3.925-39.0556C3.925-35.1342 6.28826-31.7029 9.62942-30.2324C9.46644-29.2521 9.38494-28.2717 9.38494-27.2914C9.38494-12.341 26.7427-0.25 48.175-0.25C69.6073-0.25 86.9651-12.341 86.9651-27.2914C86.9651-28.2717 86.8836-29.2521 86.7206-30.2324C90.0617-31.6213 92.425-34.9708 92.425-38.9739ZM25.425-32C25.425-36.0088 28.6662-39.25 32.675-39.25C36.6838-39.25 39.925-36.0088 39.925-32C39.925-27.9912 36.6838-24.75 32.675-24.75C28.6662-24.75 25.425-27.9912 25.425-32ZM64.3929-13.9808C59.7376-9.08747 50.8285-8.75 48.1798-8.75C45.5312-8.75 36.622-9.08747 31.9668-13.9808C31.2444-14.7401 31.2444-15.9212 31.9668-16.5962C32.6891-17.3555 33.8128-17.3555 34.4549-16.5962C37.4246-13.4746 43.6851-12.4622 48.0996-12.4622C52.514-12.4622 58.8547-13.5589 61.8245-16.6805C62.5468-17.4398 63.6705-17.4398 64.3126-16.6805C65.1152-15.8368 65.1152-14.6557 64.3929-13.9808ZM63.675-24.75C59.6662-24.75 56.425-27.9912 56.425-32C56.425-36.0088 59.6662-39.25 63.675-39.25C67.6838-39.25 70.925-36.0088 70.925-32C70.925-27.9912 67.6838-24.75 63.675-24.75Z"/>
  </g>
  <g id="Semibold-S" transform="matrix(1 0 0 1 1995.69 696)">
   <path d="M91.1492-38.4422C91.1492-43.7348 86.9101-47.9848 81.6312-47.9848C79.0717-47.9848 76.7522-46.9424 75.0725-45.3386C68.5939-50.0698 59.6357-53.117 49.6378-53.4378L53.9569-73.8863L68.114-70.8391C68.2739-67.2305 71.2333-64.3437 74.9125-64.3437C78.6718-64.3437 81.7111-67.3909 81.7111-71.1598C81.7111-74.9288 78.6718-77.976 74.9125-77.976C72.2731-77.976 69.9536-76.4524 68.8338-74.2071L52.9971-77.575C52.5972-77.6552 52.1173-77.575 51.7174-77.3345C51.3174-77.0939 51.0775-76.693 50.9975-76.292L46.1985-53.518C36.0406-53.1972 27.0025-50.2302 20.3638-45.4187C18.6842-47.0226 16.3647-48.065 13.8052-48.065C8.5263-48.065 4.28718-43.8149 4.28718-38.5224C4.28718-34.6732 6.6067-31.3053 9.88602-29.8618C9.72605-28.8995 9.64607-27.9373 9.64607-26.975C9.64607-12.3002 26.6825-0.432 47.7182-0.432C68.7538-0.432 85.7903-12.3002 85.7903-26.975C85.7903-27.9373 85.7103-28.8995 85.5503-29.8618C88.8297-31.2251 91.1492-34.5129 91.1492-38.4422ZM25.2412-31.545C25.2412-35.5035 28.4417-38.704 32.4002-38.704C36.3587-38.704 39.5592-35.5035 39.5592-31.545C39.5592-27.5865 36.3587-24.386 32.4002-24.386C28.4417-24.386 25.2412-27.5865 25.2412-31.545ZM63.3077-14.2328C58.7284-9.44424 49.9644-9.114 47.3589-9.114C44.7534-9.114 35.9895-9.44424 31.4101-14.2328C30.6995-14.9758 30.6995-16.1317 31.4101-16.7922C32.1207-17.5352 33.2261-17.5352 33.8577-16.7922C36.779-13.7374 42.9375-12.7467 47.28-12.7467C51.6225-12.7467 57.8599-13.82 60.7812-16.8747C61.4918-17.6178 62.5971-17.6178 63.2288-16.8747C64.0183-16.0491 64.0183-14.8933 63.3077-14.2328ZM62.6722-24.386C58.7137-24.386 55.5132-27.5865 55.5132-31.545C55.5132-35.5035 58.7137-38.704 62.6722-38.704C66.6307-38.704 69.8312-35.5035 69.8312-31.545C69.8312-27.5865 66.6307-24.386 62.6722-24.386Z"/>
  </g>
  <g id="Medium-S" transform="matrix(1 0 0 1 1699.33 696)">
   <path d="M90.1818-38.039C90.1818-43.2562 86.0033-47.4458 80.7999-47.4458C78.277-47.4458 75.9906-46.4182 74.335-44.8372C67.949-49.5011 59.1189-52.5049 49.264-52.8211L53.5213-72.9785L67.4759-69.9747C67.6336-66.4175 70.5507-63.5717 74.1773-63.5717C77.8828-63.5717 80.8787-66.5756 80.8787-70.2909C80.8787-74.0062 77.8828-77.01 74.1773-77.01C71.5756-77.01 69.2893-75.5081 68.1855-73.2947L52.5752-76.6148C52.181-76.6938 51.708-76.6148 51.3138-76.3776C50.9196-76.1405 50.6831-75.7452 50.6042-75.35L45.8738-52.9002C35.8612-52.584 26.9523-49.6592 20.4086-44.9163C18.753-46.4972 16.4666-47.5249 13.9437-47.5249C8.74031-47.5249 4.5618-43.3353 4.5618-38.1181C4.5618-34.3238 6.84815-31.0037 10.0806-29.5808C9.9229-28.6323 9.84407-27.6837 9.84407-26.7351C9.84407-12.2692 26.6369-0.57 47.3718-0.57C68.1067-0.57 84.8995-12.2692 84.8995-26.7351C84.8995-27.6837 84.8207-28.6323 84.663-29.5808C87.8954-30.9247 90.1818-34.1657 90.1818-38.039ZM25.1018-31.2C25.1018-35.1204 28.2714-38.29 32.1918-38.29C36.1122-38.29 39.2818-35.1204 39.2818-31.2C39.2818-27.2796 36.1122-24.11 32.1918-24.11C28.2714-24.11 25.1018-27.2796 25.1018-31.2ZM62.4849-14.4238C57.9631-9.71476 49.3092-9.39 46.7365-9.39C44.1637-9.39 35.5099-9.71476 30.988-14.4238C30.2864-15.1546 30.2864-16.2912 30.988-16.9408C31.6897-17.6715 32.7812-17.6715 33.4049-16.9408C36.2895-13.9367 42.3706-12.9624 46.6585-12.9624C50.9465-12.9624 57.1055-14.0179 59.9901-17.022C60.6918-17.7527 61.7833-17.7527 62.407-17.022C63.1866-16.21 63.1866-15.0734 62.4849-14.4238ZM61.9118-24.11C57.9914-24.11 54.8218-27.2796 54.8218-31.2C54.8218-35.1204 57.9914-38.29 61.9118-38.29C65.8322-38.29 69.0018-35.1204 69.0018-31.2C69.0018-27.2796 65.8322-24.11 61.9118-24.11Z"/>
  </g>
  <g id="Regular-S" transform="matrix(1 0 0 1 1403.08 696)">
   <path d="M88.92-37.5132C88.92-42.6321 84.8206-46.7428 79.7156-46.7428C77.2404-46.7428 74.9973-45.7345 73.373-44.1833C67.1078-48.7593 58.4449-51.7066 48.7764-52.0168L52.9531-71.7945L66.6438-68.8472C66.7985-65.357 69.6603-62.5649 73.2183-62.5649C76.8537-62.5649 79.7929-65.5122 79.7929-69.1574C79.7929-72.8027 76.8537-75.75 73.2183-75.75C70.6659-75.75 68.4228-74.2764 67.3399-72.1047L52.025-75.3622C51.6382-75.4398 51.1741-75.3622 50.7874-75.1295C50.4007-74.8968 50.1686-74.509 50.0913-74.1213L45.4504-52.0944C35.6272-51.7841 26.8869-48.9144 20.467-44.2609C18.8427-45.812 16.5996-46.8203 14.1244-46.8203C9.01945-46.8203 4.92-42.7097 4.92-37.5907C4.92-33.8679 7.16309-30.6104 10.3344-29.2143C10.1797-28.2836 10.1023-27.3529 10.1023-26.4222C10.1023-12.2288 26.5775-0.75 46.92-0.75C67.2625-0.75 83.7377-12.2288 83.7377-26.4222C83.7377-27.3529 83.6603-28.2836 83.5056-29.2143C86.6769-30.5328 88.92-33.7128 88.92-37.5132ZM24.92-30.75C24.92-34.6206 28.0494-37.75 31.92-37.75C35.7906-37.75 38.92-34.6206 38.92-30.75C38.92-26.8794 35.7906-23.75 31.92-23.75C28.0494-23.75 24.92-26.8794 24.92-30.75ZM61.4117-14.6731C56.9649-10.0676 48.4547-9.75 45.9246-9.75C43.3945-9.75 34.8843-10.0676 30.4375-14.6731C29.7475-15.3877 29.7475-16.4994 30.4375-17.1346C31.1275-17.8493 32.2009-17.8493 32.8142-17.1346C35.651-14.1967 41.6312-13.2438 45.8479-13.2438C50.0647-13.2438 56.1215-14.2761 58.9583-17.214C59.6483-17.9287 60.7217-17.9287 61.335-17.214C62.1017-16.42 62.1017-15.3083 61.4117-14.6731ZM60.92-23.75C57.0494-23.75 53.92-26.8794 53.92-30.75C53.92-34.6206 57.0494-37.75 60.92-37.75C64.7906-37.75 67.92-34.6206 67.92-30.75C67.92-26.8794 64.7906-23.75 60.92-23.75Z"/>
  </g>
  <g id="Light-S" transform="matrix(1 0 0 1 1107.1 696)">
   <path d="M87.8987-36.5132C87.8987-41.6321 83.8155-45.7428 78.7308-45.7428C76.2655-45.7428 74.0313-44.7345 72.4134-43.1833C66.1731-47.7593 57.5445-50.7066 47.9143-51.0168L52.0745-70.7945L65.7108-67.8472C65.8649-64.357 68.7154-61.5649 72.2593-61.5649C75.8803-61.5649 78.8078-64.5122 78.8078-68.1574C78.8078-71.8027 75.8803-74.75 72.2593-74.75C69.717-74.75 67.4828-73.2764 66.4042-71.1047L51.15-74.3622C50.7648-74.4398 50.3026-74.3622 49.9174-74.1295C49.5322-73.8968 49.3011-73.509 49.224-73.1213L44.6016-51.0944C34.8173-50.7841 26.1117-47.9144 19.7173-43.2609C18.0994-44.812 15.8652-45.8203 13.3999-45.8203C8.31518-45.8203 4.232-41.7097 4.232-36.5907C4.232-32.8679 6.46619-29.6104 9.62488-28.2143C9.4708-27.2836 9.39376-26.3529 9.39376-25.4222C9.39376-11.2288 25.8035 0.25 46.0653 0.25C66.3272 0.25 82.7369-11.2288 82.7369-25.4222C82.7369-26.3529 82.6599-27.2836 82.5058-28.2143C85.6645-29.5328 87.8987-32.7128 87.8987-36.5132ZM24.232-29.75C24.232-33.6206 27.3614-36.75 31.232-36.75C35.1026-36.75 38.232-33.6206 38.232-29.75C38.232-25.8794 35.1026-22.75 31.232-22.75C27.3614-22.75 24.232-25.8794 24.232-29.75ZM61.0517-13.4679C56.5586-9.05438 47.9597-8.75 45.4033-8.75C42.8469-8.75 34.248-9.05438 29.7549-13.4679C29.0577-14.1528 29.0577-15.2182 29.7549-15.8269C30.4521-16.5118 31.5367-16.5118 32.1564-15.8269C35.0227-13.0114 41.0651-12.0982 45.3258-12.0982C49.5866-12.0982 55.7065-13.0875 58.5728-15.903C59.27-16.5879 60.3545-16.5879 60.9743-15.903C61.7489-15.1421 61.7489-14.0767 61.0517-13.4679ZM59.8987-22.75C56.0281-22.75 52.8987-25.8794 52.8987-29.75C52.8987-33.6206 56.0281-36.75 59.8987-36.75C63.7693-36.75 66.8987-33.6206 66.8987-29.75C66.8987-25.8794 63.7693-22.75 59.8987-22.75Z"/>
  </g>
  <g id="Thin-S" transform="matrix(1 0 0 1 811.359 696)">
   <path d="M86.5479-35.1906C86.5479-40.3095 82.4862-44.4202 77.4283-44.4202C74.976-44.4202 72.7535-43.4119 71.1442-41.8607C64.9367-46.4367 56.3536-49.384 46.7742-49.6942L50.9125-69.4719L64.4769-66.5246C64.6302-63.0345 67.4657-60.2423 70.9909-60.2423C74.5928-60.2423 77.5049-63.1896 77.5049-66.8349C77.5049-70.4802 74.5928-73.4274 70.9909-73.4274C68.462-73.4274 66.2395-71.9538 65.1667-69.7821L49.9929-73.0396C49.6097-73.1172 49.1499-73.0396 48.7667-72.8069C48.3836-72.5743 48.1536-72.1865 48.077-71.7987L43.4789-49.7718C33.7462-49.4615 25.0865-46.5918 18.7257-41.9383C17.1164-43.4895 14.894-44.4977 12.4417-44.4977C7.38373-44.4977 3.32206-40.3871 3.32206-35.2682C3.32206-31.5453 5.54448-28.2878 8.68653-26.8917C8.53326-25.961 8.45662-25.0303 8.45662-24.0996C8.45662-9.90622 24.7799 1.57258 44.935 1.57258C65.09 1.57258 81.4133-9.90622 81.4133-24.0996C81.4133-25.0303 81.3367-25.961 81.1834-26.8917C84.3255-28.2103 86.5479-31.3902 86.5479-35.1906ZM23.3221-28.4274C23.3221-32.298 26.4515-35.4274 30.3221-35.4274C34.1927-35.4274 37.3221-32.298 37.3221-28.4274C37.3221-24.5568 34.1927-21.4274 30.3221-21.4274C26.4515-21.4274 23.3221-24.5568 23.3221-28.4274ZM60.5757-11.8741C56.0213-7.7143 47.3052-7.42742 44.7139-7.42742C42.1226-7.42742 33.4065-7.7143 28.8521-11.8741C28.1454-12.5196 28.1454-13.5236 28.8521-14.0974C29.5588-14.7429 30.6581-14.7429 31.2863-14.0974C34.1917-11.4437 40.3166-10.5831 44.6354-10.5831C48.9542-10.5831 55.1575-11.5155 58.0629-14.1691C58.7696-14.8146 59.8689-14.8146 60.4971-14.1691C61.2824-13.4519 61.2824-12.4478 60.5757-11.8741ZM58.5479-21.4274C54.6773-21.4274 51.5479-24.5568 51.5479-28.4274C51.5479-32.298 54.6773-35.4274 58.5479-35.4274C62.4185-35.4274 65.5479-32.298 65.5479-28.4274C65.5479-24.5568 62.4185-21.4274 58.5479-21.4274Z"/>
  </g>
  <g id="Ultralight-S" transform="matrix(1 0 0 1 515.144 696)">
   <path d="M85.856-34.5132C85.856-39.6321 81.8054-43.7428 76.7612-43.7428C74.3155-43.7428 72.0991-42.7345 70.4941-41.1833C64.3035-45.7593 55.7437-48.7066 46.1903-49.0168L50.3173-68.7945L63.845-65.8472C63.9978-62.357 66.8256-59.5649 70.3413-59.5649C73.9333-59.5649 76.8376-62.5122 76.8376-66.1574C76.8376-69.8027 73.9333-72.75 70.3413-72.75C67.8192-72.75 65.6028-71.2764 64.5328-69.1047L49.4002-72.3622C49.0181-72.4398 48.5595-72.3622 48.1774-72.1295C47.7952-71.8968 47.5659-71.509 47.4895-71.1213L42.9039-49.0944C33.1976-48.7841 24.5613-45.9144 18.2179-41.2609C16.6129-42.812 14.3965-43.8203 11.9508-43.8203C6.90664-43.8203 2.856-39.7097 2.856-34.5907C2.856-30.8679 5.07239-27.6104 8.20591-26.2143C8.05305-25.2836 7.97663-24.3529 7.97663-23.4222C7.97663-9.2288 24.2556 2.25 44.356 2.25C64.4564 2.25 80.7354-9.2288 80.7354-23.4222C80.7354-24.3529 80.6589-25.2836 80.5061-26.2143C83.6396-27.5328 85.856-30.7128 85.856-34.5132ZM22.856-27.75C22.856-31.6206 25.9854-34.75 29.856-34.75C33.7266-34.75 36.856-31.6206 36.856-27.75C36.856-23.8794 33.7266-20.75 29.856-20.75C25.9854-20.75 22.856-23.8794 22.856-27.75ZM60.3318-11.0577C55.7461-7.02792 46.9699-6.75 44.3607-6.75C41.7516-6.75 32.9754-7.02792 28.3897-11.0577C27.6781-11.683 27.6781-12.6557 28.3897-13.2115C29.1013-13.8368 30.2082-13.8368 30.8407-13.2115C33.7661-10.6408 39.9331-9.80707 44.2817-9.80707C48.6302-9.80707 54.8763-10.7103 57.8017-13.281C58.5133-13.9063 59.6202-13.9063 60.2527-13.281C61.0434-12.5862 61.0434-11.6135 60.3318-11.0577ZM57.856-20.75C53.9854-20.75 50.856-23.8794 50.856-27.75C50.856-31.6206 53.9854-34.75 57.856-34.75C61.7266-34.75 64.856-31.6206 64.856-27.75C64.856-23.8794 61.7266-20.75 57.856-20.75Z"/>
  </g>
 </g>
</svg>
