<?xml version="1.0" encoding="UTF-8"?>
<!--Generator: Apple Native CoreSVG 149-->
<!DOCTYPE svg
PUBLIC "-//W3C//DTD SVG 1.1//EN"
       "http://www.w3.org/Graphics/SVG/1.1/DTD/svg11.dtd">
<svg version="1.1" xmlns="http://www.w3.org/2000/svg" xmlns:xlink="http://www.w3.org/1999/xlink" width="3300" height="2200">
 <!--glyph: "", point size: 100.0, font version: "17.0d9e1", template writer version: "59"-->
 <style>.multicolor-0:white {fill:#FFFFFF;opacity:1.0}
.multicolor-1:black {fill:#000000;opacity:1.0}

.hierarchical-0:tertiary {fill:#8E8E8E}
.hierarchical-1:primary {fill:#212121}

.SFSymbolsPreview000000 {fill:#000000;opacity:1.0}
.SFSymbolsPreviewFFFFFF {fill:#FFFFFF;opacity:1.0}
</style>
 <g id="Notes">
  <rect height="2200" id="artboard" style="fill:white;opacity:1" width="3300" x="0" y="0"/>
  <line style="fill:none;stroke:black;opacity:1;stroke-width:0.5;" x1="263" x2="3036" y1="292" y2="292"/>
  <text style="stroke:none;fill:black;font-family:sans-serif;font-size:13;font-weight:bold;" transform="matrix(1 0 0 1 263 322)">Weight/Scale Variations</text>
  <text style="stroke:none;fill:black;font-family:sans-serif;font-size:13;text-anchor:middle;" transform="matrix(1 0 0 1 559.711 322)">Ultralight</text>
  <text style="stroke:none;fill:black;font-family:sans-serif;font-size:13;text-anchor:middle;" transform="matrix(1 0 0 1 856.422 322)">Thin</text>
  <text style="stroke:none;fill:black;font-family:sans-serif;font-size:13;text-anchor:middle;" transform="matrix(1 0 0 1 1153.13 322)">Light</text>
  <text style="stroke:none;fill:black;font-family:sans-serif;font-size:13;text-anchor:middle;" transform="matrix(1 0 0 1 1449.84 322)">Regular</text>
  <text style="stroke:none;fill:black;font-family:sans-serif;font-size:13;text-anchor:middle;" transform="matrix(1 0 0 1 1746.56 322)">Medium</text>
  <text style="stroke:none;fill:black;font-family:sans-serif;font-size:13;text-anchor:middle;" transform="matrix(1 0 0 1 2043.27 322)">Semibold</text>
  <text style="stroke:none;fill:black;font-family:sans-serif;font-size:13;text-anchor:middle;" transform="matrix(1 0 0 1 2339.98 322)">Bold</text>
  <text style="stroke:none;fill:black;font-family:sans-serif;font-size:13;text-anchor:middle;" transform="matrix(1 0 0 1 2636.69 322)">Heavy</text>
  <text style="stroke:none;fill:black;font-family:sans-serif;font-size:13;text-anchor:middle;" transform="matrix(1 0 0 1 2933.4 322)">Black</text>
  <line style="fill:none;stroke:black;opacity:1;stroke-width:0.5;" x1="263" x2="3036" y1="1903" y2="1903"/>
  <g transform="matrix(1 0 0 1 263 1933)">
   <path d="M9.24805 0.830078Q10.8691 0.830078 12.2949 0.214844Q13.7207-0.400391 14.8096-1.49414Q15.8984-2.58789 16.5186-4.01367Q17.1387-5.43945 17.1387-7.05078Q17.1387-8.66211 16.5186-10.0879Q15.8984-11.5137 14.8047-12.6074Q13.7109-13.7012 12.2852-14.3164Q10.8594-14.9316 9.23828-14.9316Q7.62695-14.9316 6.20117-14.3164Q4.77539-13.7012 3.69141-12.6074Q2.60742-11.5137 1.9873-10.0879Q1.36719-8.66211 1.36719-7.05078Q1.36719-5.43945 1.9873-4.01367Q2.60742-2.58789 3.69629-1.49414Q4.78516-0.400391 6.21094 0.214844Q7.63672 0.830078 9.24805 0.830078ZM9.24805-0.654297Q7.91992-0.654297 6.7627-1.14746Q5.60547-1.64062 4.73145-2.51953Q3.85742-3.39844 3.36426-4.56055Q2.87109-5.72266 2.87109-7.05078Q2.87109-8.37891 3.35938-9.54102Q3.84766-10.7031 4.72168-11.582Q5.5957-12.4609 6.75293-12.9541Q7.91016-13.4473 9.23828-13.4473Q10.5762-13.4473 11.7334-12.9541Q12.8906-12.4609 13.7695-11.582Q14.6484-10.7031 15.1465-9.54102Q15.6445-8.37891 15.6445-7.05078Q15.6445-5.72266 15.1514-4.56055Q14.6582-3.39844 13.7842-2.51953Q12.9102-1.64062 11.748-1.14746Q10.5859-0.654297 9.24805-0.654297ZM5.83984-7.04102Q5.83984-6.71875 6.04492-6.51855Q6.25-6.31836 6.5918-6.31836L8.50586-6.31836L8.50586-4.39453Q8.50586-4.0625 8.70605-3.85742Q8.90625-3.65234 9.22852-3.65234Q9.56055-3.65234 9.76562-3.85742Q9.9707-4.0625 9.9707-4.39453L9.9707-6.31836L11.8945-6.31836Q12.2266-6.31836 12.4316-6.51855Q12.6367-6.71875 12.6367-7.04102Q12.6367-7.37305 12.4316-7.57812Q12.2266-7.7832 11.8945-7.7832L9.9707-7.7832L9.9707-9.69727Q9.9707-10.0391 9.76562-10.2441Q9.56055-10.4492 9.22852-10.4492Q8.90625-10.4492 8.70605-10.2441Q8.50586-10.0391 8.50586-9.69727L8.50586-7.7832L6.5918-7.7832Q6.25-7.7832 6.04492-7.57812Q5.83984-7.37305 5.83984-7.04102Z"/>
  </g>
  <g transform="matrix(1 0 0 1 281.867 1933)">
   <path d="M11.709 2.91016Q13.75 2.91016 15.5518 2.12891Q17.3535 1.34766 18.7305-0.0292969Q20.1074-1.40625 20.8887-3.20801Q21.6699-5.00977 21.6699-7.05078Q21.6699-9.0918 20.8887-10.8936Q20.1074-12.6953 18.7305-14.0723Q17.3535-15.4492 15.5469-16.2305Q13.7402-17.0117 11.6992-17.0117Q9.6582-17.0117 7.85645-16.2305Q6.05469-15.4492 4.68262-14.0723Q3.31055-12.6953 2.5293-10.8936Q1.74805-9.0918 1.74805-7.05078Q1.74805-5.00977 2.5293-3.20801Q3.31055-1.40625 4.6875-0.0292969Q6.06445 1.34766 7.86621 2.12891Q9.66797 2.91016 11.709 2.91016ZM11.709 1.25Q9.98047 1.25 8.47656 0.605469Q6.97266-0.0390625 5.83496-1.17676Q4.69727-2.31445 4.05762-3.81836Q3.41797-5.32227 3.41797-7.05078Q3.41797-8.7793 4.05762-10.2832Q4.69727-11.7871 5.83008-12.9297Q6.96289-14.0723 8.4668-14.7119Q9.9707-15.3516 11.6992-15.3516Q13.4277-15.3516 14.9316-14.7119Q16.4355-14.0723 17.5781-12.9297Q18.7207-11.7871 19.3652-10.2832Q20.0098-8.7793 20.0098-7.05078Q20.0098-5.32227 19.3701-3.81836Q18.7305-2.31445 17.5928-1.17676Q16.4551-0.0390625 14.9463 0.605469Q13.4375 1.25 11.709 1.25ZM7.39258-7.04102Q7.39258-6.68945 7.62695-6.46484Q7.86133-6.24023 8.23242-6.24023L10.8789-6.24023L10.8789-3.57422Q10.8789-3.21289 11.1035-2.9834Q11.3281-2.75391 11.6797-2.75391Q12.0508-2.75391 12.2852-2.9834Q12.5195-3.21289 12.5195-3.57422L12.5195-6.24023L15.1758-6.24023Q15.5371-6.24023 15.7715-6.46484Q16.0059-6.68945 16.0059-7.04102Q16.0059-7.41211 15.7715-7.6416Q15.5371-7.87109 15.1758-7.87109L12.5195-7.87109L12.5195-10.5176Q12.5195-10.8984 12.2852-11.1279Q12.0508-11.3574 11.6797-11.3574Q11.3281-11.3574 11.1035-11.1279Q10.8789-10.8984 10.8789-10.5176L10.8789-7.87109L8.23242-7.87109Q7.85156-7.87109 7.62207-7.6416Q7.39258-7.41211 7.39258-7.04102Z"/>
  </g>
  <g transform="matrix(1 0 0 1 305.646 1933)">
   <path d="M14.9707 5.66406Q17.0605 5.66406 18.96 5.01465Q20.8594 4.36523 22.4512 3.19336Q24.043 2.02148 25.2197 0.429688Q26.3965-1.16211 27.0459-3.06641Q27.6953-4.9707 27.6953-7.05078Q27.6953-9.14062 27.0459-11.04Q26.3965-12.9395 25.2197-14.5312Q24.043-16.123 22.4512-17.2998Q20.8594-18.4766 18.9551-19.126Q17.0508-19.7754 14.9609-19.7754Q12.8711-19.7754 10.9717-19.126Q9.07227-18.4766 7.48535-17.2998Q5.89844-16.123 4.72168-14.5312Q3.54492-12.9395 2.90039-11.04Q2.25586-9.14062 2.25586-7.05078Q2.25586-4.9707 2.90527-3.06641Q3.55469-1.16211 4.72656 0.429688Q5.89844 2.02148 7.49023 3.19336Q9.08203 4.36523 10.9814 5.01465Q12.8809 5.66406 14.9707 5.66406ZM14.9707 3.84766Q13.1641 3.84766 11.5283 3.2959Q9.89258 2.74414 8.53516 1.74805Q7.17773 0.751953 6.17676-0.610352Q5.17578-1.97266 4.62891-3.6084Q4.08203-5.24414 4.08203-7.05078Q4.08203-8.86719 4.62891-10.5029Q5.17578-12.1387 6.17188-13.501Q7.16797-14.8633 8.52539-15.8594Q9.88281-16.8555 11.5186-17.4023Q13.1543-17.9492 14.9609-17.9492Q16.7773-17.9492 18.4131-17.4023Q20.0488-16.8555 21.4111-15.8594Q22.7734-14.8633 23.7695-13.501Q24.7656-12.1387 25.3174-10.5029Q25.8691-8.86719 25.8691-7.05078Q25.8789-5.24414 25.332-3.6084Q24.7852-1.97266 23.7842-0.610352Q22.7832 0.751953 21.4209 1.74805Q20.0586 2.74414 18.4229 3.2959Q16.7871 3.84766 14.9707 3.84766ZM9.45312-7.04102Q9.45312-6.66016 9.71191-6.41113Q9.9707-6.16211 10.3711-6.16211L14.0625-6.16211L14.0625-2.46094Q14.0625-2.06055 14.3115-1.80664Q14.5605-1.55273 14.9414-1.55273Q15.3516-1.55273 15.6055-1.80664Q15.8594-2.06055 15.8594-2.46094L15.8594-6.16211L19.5605-6.16211Q19.9609-6.16211 20.2148-6.41113Q20.4688-6.66016 20.4688-7.04102Q20.4688-7.45117 20.2148-7.70508Q19.9609-7.95898 19.5605-7.95898L15.8594-7.95898L15.8594-11.6504Q15.8594-12.0605 15.6055-12.3145Q15.3516-12.5684 14.9414-12.5684Q14.5605-12.5684 14.3115-12.3096Q14.0625-12.0508 14.0625-11.6504L14.0625-7.95898L10.3711-7.95898Q9.96094-7.95898 9.70703-7.70508Q9.45312-7.45117 9.45312-7.04102Z"/>
  </g>
  <text style="stroke:none;fill:black;font-family:sans-serif;font-size:13;font-weight:bold;" transform="matrix(1 0 0 1 263 1953)">Design Variations</text>
  <text style="stroke:none;fill:black;font-family:sans-serif;font-size:13;" transform="matrix(1 0 0 1 263 1971)">Symbols are supported in up to nine weights and three scales.</text>
  <text style="stroke:none;fill:black;font-family:sans-serif;font-size:13;" transform="matrix(1 0 0 1 263 1989)">For optimal layout with text and other symbols, vertically align</text>
  <text style="stroke:none;fill:black;font-family:sans-serif;font-size:13;" transform="matrix(1 0 0 1 263 2007)">symbols with the adjacent text.</text>
  <line style="fill:none;stroke:#00AEEF;stroke-width:0.5;opacity:1.0;" x1="776" x2="776" y1="1919" y2="1933"/>
  <g transform="matrix(1 0 0 1 776 1933)">
   <path d="M3.31055 0.15625Q3.70117 0.15625 3.91602-0.00976562Q4.13086-0.175781 4.26758-0.585938L5.52734-4.0332L11.2891-4.0332L12.5488-0.585938Q12.6855-0.175781 12.9004-0.00976562Q13.1152 0.15625 13.4961 0.15625Q13.8867 0.15625 14.1162-0.0585938Q14.3457-0.273438 14.3457-0.644531Q14.3457-0.869141 14.2383-1.17188L9.6582-13.3691Q9.48242-13.8184 9.17969-14.043Q8.87695-14.2676 8.4082-14.2676Q7.5-14.2676 7.17773-13.3789L2.59766-1.16211Q2.49023-0.859375 2.49023-0.634766Q2.49023-0.263672 2.70996-0.0537109Q2.92969 0.15625 3.31055 0.15625ZM6.00586-5.51758L8.37891-12.0898L8.42773-12.0898L10.8008-5.51758Z"/>
  </g>
  <line style="fill:none;stroke:#00AEEF;stroke-width:0.5;opacity:1.0;" x1="793.197" x2="793.197" y1="1919" y2="1933"/>
  <text style="stroke:none;fill:black;font-family:sans-serif;font-size:13;font-weight:bold;" transform="matrix(1 0 0 1 776 1953)">Margins</text>
  <text style="stroke:none;fill:black;font-family:sans-serif;font-size:13;" transform="matrix(1 0 0 1 776 1971)">Leading and trailing margins on the left and right side of each symbol</text>
  <text style="stroke:none;fill:black;font-family:sans-serif;font-size:13;" transform="matrix(1 0 0 1 776 1989)">can be adjusted by modifying the x-location of the margin guidelines.</text>
  <text style="stroke:none;fill:black;font-family:sans-serif;font-size:13;" transform="matrix(1 0 0 1 776 2007)">Modifications are automatically applied proportionally to all</text>
  <text style="stroke:none;fill:black;font-family:sans-serif;font-size:13;" transform="matrix(1 0 0 1 776 2025)">scales and weights.</text>
  <g transform="matrix(1 0 0 1 1289 1933)">
   <path d="M2.8418 1.86523L4.54102 3.57422Q5.18555 4.22852 5.90332 4.17969Q6.62109 4.13086 7.31445 3.35938L18.0078-8.42773L17.041-9.4043L6.42578 2.27539Q6.16211 2.57812 5.89355 2.61719Q5.625 2.65625 5.27344 2.30469L4.10156 1.14258Q3.75 0.791016 3.79395 0.522461Q3.83789 0.253906 4.14062-0.0195312L15.6152-10.8203L14.6387-11.7871L3.04688-0.898438Q2.30469-0.214844 2.25098 0.498047Q2.19727 1.21094 2.8418 1.86523ZM9.25781-16.3281Q8.94531-16.0254 8.90625-15.6348Q8.86719-15.2441 9.04297-14.9512Q9.21875-14.6777 9.55566-14.541Q9.89258-14.4043 10.3809-14.5215Q11.4746-14.7754 12.5977-14.7314Q13.7207-14.6875 14.7949-13.9844L14.209-12.5293Q13.9551-11.9043 14.0674-11.4404Q14.1797-10.9766 14.5801-10.5664L16.875-8.25195Q17.2363-7.88086 17.5781-7.82227Q17.9199-7.76367 18.3398-7.8418L19.4043-8.03711L20.0684-7.36328L20.0293-6.80664Q20-6.43555 20.1221-6.12305Q20.2441-5.81055 20.6055-5.44922L21.3672-4.70703Q21.7285-4.3457 22.1533-4.33105Q22.5781-4.31641 22.9297-4.66797L25.8398-7.58789Q26.1914-7.93945 26.1816-8.35449Q26.1719-8.76953 25.8105-9.13086L25.0391-9.89258Q24.6875-10.2539 24.3799-10.3857Q24.0723-10.5176 23.7109-10.4883L23.1348-10.4395L22.4902-11.0742L22.7344-12.1973Q22.832-12.6172 22.6953-12.9834Q22.5586-13.3496 22.1191-13.7891L19.9219-15.9766Q18.6719-17.2168 17.2607-17.8369Q15.8496-18.457 14.4189-18.4814Q12.9883-18.5059 11.665-17.959Q10.3418-17.4121 9.25781-16.3281ZM10.752-15.957Q11.6602-16.6211 12.7002-16.9043Q13.7402-17.1875 14.8047-17.085Q15.8691-16.9824 16.8701-16.5137Q17.8711-16.0449 18.7012-15.2051L21.1328-12.793Q21.3086-12.6172 21.3525-12.4512Q21.3965-12.2852 21.3379-12.0312L21.0156-10.5469L22.5195-9.0625L23.5059-9.12109Q23.6914-9.13086 23.7891-9.09668Q23.8867-9.0625 24.0332-8.91602L24.6094-8.33984L22.168-5.89844L21.5918-6.47461Q21.4453-6.62109 21.4062-6.71875Q21.3672-6.81641 21.377-7.01172L21.4453-7.98828L19.9512-9.47266L18.4277-9.21875Q18.1836-9.16992 18.042-9.2041Q17.9004-9.23828 17.7148-9.41406L15.7129-11.416Q15.5176-11.5918 15.4932-11.7529Q15.4688-11.9141 15.5859-12.1875L16.4648-14.2773Q15.293-15.3711 13.8281-15.791Q12.3633-16.2109 10.8398-15.7617Q10.7227-15.7324 10.6885-15.8057Q10.6543-15.8789 10.752-15.957Z"/>
  </g>
  <text style="stroke:none;fill:black;font-family:sans-serif;font-size:13;font-weight:bold;" transform="matrix(1 0 0 1 1289 1953)">Exporting</text>
  <text style="stroke:none;fill:black;font-family:sans-serif;font-size:13;" transform="matrix(1 0 0 1 1289 1971)">Symbols should be outlined when exporting to ensure the</text>
  <text style="stroke:none;fill:black;font-family:sans-serif;font-size:13;" transform="matrix(1 0 0 1 1289 1989)">design is preserved when submitting to Xcode.</text>
  <text id="template-version" style="stroke:none;fill:black;font-family:sans-serif;font-size:13;text-anchor:end;" transform="matrix(1 0 0 1 3036 1933)">Template v.3.0</text>
  <text style="stroke:none;fill:black;font-family:sans-serif;font-size:13;text-anchor:end;" transform="matrix(1 0 0 1 3036 1951)">Requires Xcode 13 or greater</text>
  <text id="descriptive-name" style="stroke:none;fill:black;font-family:sans-serif;font-size:13;text-anchor:end;" transform="matrix(1 0 0 1 3036 1969)">Generated from custom.arrow.clockwise.circle.fill</text>
  <text style="stroke:none;fill:black;font-family:sans-serif;font-size:13;text-anchor:end;" transform="matrix(1 0 0 1 3036 1987)">Typeset at 100 points</text>
  <text style="stroke:none;fill:black;font-family:sans-serif;font-size:13;" transform="matrix(1 0 0 1 263 726)">Small</text>
  <text style="stroke:none;fill:black;font-family:sans-serif;font-size:13;" transform="matrix(1 0 0 1 263 1156)">Medium</text>
  <text style="stroke:none;fill:black;font-family:sans-serif;font-size:13;" transform="matrix(1 0 0 1 263 1586)">Large</text>
 </g>
 <g id="Guides">
  <g id="H-reference" style="fill:#27AAE1;stroke:none;" transform="matrix(1 0 0 1 339 696)">
   <path d="M0.976562 0L3.66211 0L29.3457-67.1387L30.0293-67.1387L30.0293-70.459L28.125-70.459ZM11.6699-24.4629L46.9727-24.4629L46.2402-26.709L12.4512-26.709ZM55.127 0L57.7637 0L30.6152-70.459L29.4434-70.459L29.4434-67.1387Z"/>
  </g>
  <line id="Baseline-S" style="fill:none;stroke:#27AAE1;opacity:1;stroke-width:0.5;" x1="263" x2="3036" y1="696" y2="696"/>
  <line id="Capline-S" style="fill:none;stroke:#27AAE1;opacity:1;stroke-width:0.5;" x1="263" x2="3036" y1="625.541" y2="625.541"/>
  <g id="H-reference" style="fill:#27AAE1;stroke:none;" transform="matrix(1 0 0 1 339 1126)">
   <path d="M0.976562 0L3.66211 0L29.3457-67.1387L30.0293-67.1387L30.0293-70.459L28.125-70.459ZM11.6699-24.4629L46.9727-24.4629L46.2402-26.709L12.4512-26.709ZM55.127 0L57.7637 0L30.6152-70.459L29.4434-70.459L29.4434-67.1387Z"/>
  </g>
  <line id="Baseline-M" style="fill:none;stroke:#27AAE1;opacity:1;stroke-width:0.5;" x1="263" x2="3036" y1="1126" y2="1126"/>
  <line id="Capline-M" style="fill:none;stroke:#27AAE1;opacity:1;stroke-width:0.5;" x1="263" x2="3036" y1="1055.54" y2="1055.54"/>
  <g id="H-reference" style="fill:#27AAE1;stroke:none;" transform="matrix(1 0 0 1 339 1556)">
   <path d="M0.976562 0L3.66211 0L29.3457-67.1387L30.0293-67.1387L30.0293-70.459L28.125-70.459ZM11.6699-24.4629L46.9727-24.4629L46.2402-26.709L12.4512-26.709ZM55.127 0L57.7637 0L30.6152-70.459L29.4434-70.459L29.4434-67.1387Z"/>
  </g>
  <line id="Baseline-L" style="fill:none;stroke:#27AAE1;opacity:1;stroke-width:0.5;" x1="263" x2="3036" y1="1556" y2="1556"/>
  <line id="Capline-L" style="fill:none;stroke:#27AAE1;opacity:1;stroke-width:0.5;" x1="263" x2="3036" y1="1485.54" y2="1485.54"/>
  <line id="left-margin-Regular-M" style="fill:none;stroke:#00AEEF;stroke-width:0.5;opacity:1.0;" x1="1391" x2="1391" y1="1030.78" y2="1150.12"/>
  <line id="right-margin-Regular-M" style="fill:none;stroke:#00AEEF;stroke-width:0.5;opacity:1.0;" x1="1508.69" x2="1508.69" y1="1030.78" y2="1150.12"/>
 </g>
 <g id="Symbols">
  <g id="Black-L" transform="matrix(1 0 0 1 2853.78 1556)">
   <path class="multicolor-0:white hierarchical-0:tertiary SFSymbolsPreviewFFFFFF" d="M79.607 33.2177Q93.6473 33.2177 105.933 27.9228Q118.218 22.6279 127.586 13.2496Q136.954 3.87125 142.26-8.41402Q147.566-20.6992 147.566-34.7187Q147.566-48.7384 142.26-61.0236Q136.954-73.3088 127.575-82.6871Q118.197-92.0655 105.912-97.3605Q93.6266-102.655 79.5863-102.655Q65.5681-102.655 53.2822-97.3605Q40.9964-92.0655 31.6393-82.6871Q22.2824-73.3088 16.9765-61.0236Q11.6705-48.7384 11.6705-34.7187Q11.6705-20.6992 16.9765-8.41402Q22.2824 3.87125 31.6497 13.2496Q41.0171 22.6279 53.3029 27.9228Q65.5888 33.2177 79.607 33.2177Z"/>
   <path class="multicolor-1:black hierarchical-1:primary SFSymbolsPreview000000" d="M50.3158-31.8029Q50.3158-39.0974 53.5497-45.2526Q56.7836-51.4078 62.2068-55.4952Q67.6301-59.5825 74.2487-60.4585Q74.5508-60.517 74.8614-60.5436Q75.1719-60.5703 75.4688-60.6261L74.1661-62.0882Q73.6642-62.8239 73.1608-63.7001Q72.6574-64.5764 72.6574-65.9984Q72.6574-68.0273 74.2343-69.7904Q75.8112-71.5535 78.7382-71.5535Q80.1421-71.5535 81.3401-70.9015Q82.5383-70.2495 83.3894-69.3751L94.7162-57.9434Q96.4404-56.1971 96.4898-53.5797Q96.539-50.9623 94.6577-49.159L83.3051-37.7232Q81.6005-35.8809 78.9147-35.8809Q76.3381-35.8809 74.5568-37.4397Q72.7755-38.9983 72.7755-41.8436Q72.7755-43.8764 73.5288-44.8633L75.2145-46.7619Q74.4183-46.3866 73.6509-46.2114Q70.7576-45.6858 68.4644-43.5615Q66.1712-41.4372 64.8355-38.3459Q63.4998-35.2546 63.4998-31.72Q63.4998-27.308 65.6532-23.6417Q67.8066-19.9755 71.4723-17.7929Q75.138-15.6102 79.6083-15.6102Q84.0775-15.6102 87.7139-17.7637Q91.3504-19.917 93.522-23.5834Q95.6937-27.2497 95.6937-31.72Q95.6937-34.49 97.6442-36.401Q99.5949-38.3121 102.366-38.3121Q105.057-38.3121 106.978-36.401Q108.9-34.49 108.9-31.72Q108.9-23.6663 104.927-16.9914Q100.954-10.3165 94.3072-6.33181Q87.6608-2.34709 79.6083-2.34709Q71.5339-2.34709 64.8992-6.33181Q58.2645-10.3165 54.2902-17.0122Q50.3158-23.7077 50.3158-31.8029Z"/>
  </g>
  <g id="Heavy-L" transform="matrix(1 0 0 1 2558.01 1556)">
   <path class="multicolor-0:white hierarchical-0:tertiary SFSymbolsPreviewFFFFFF" d="M78.6628 32.2597Q92.4997 32.2597 104.614 27.0389Q116.728 21.8181 125.971 12.5602Q135.213 3.30241 140.452-8.81154Q145.691-20.9254 145.691-34.7326Q145.691-48.5397 140.452-60.6536Q135.213-72.7675 125.956-82.0254Q116.698-91.2833 104.584-96.5041Q92.4699-101.725 78.633-101.725Q64.832-101.725 52.715-96.5041Q40.5981-91.2833 31.373-82.0254Q22.1479-72.7675 16.9092-60.6536Q11.6705-48.5397 11.6705-34.7326Q11.6705-20.9254 16.9092-8.81154Q22.1479 3.30241 31.3878 12.5602Q40.6279 21.8181 52.7448 27.0389Q64.8617 32.2597 78.6628 32.2597Z"/>
   <path class="multicolor-1:black hierarchical-1:primary SFSymbolsPreview000000" d="M49.5059-31.8076Q49.5059-39.2571 52.8838-45.4642Q56.2618-51.6712 61.8887-55.6797Q67.5156-59.6881 74.3044-60.3574Q74.6692-60.4021 75.0398-60.4123Q75.4104-60.4226 75.751-60.4551L73.5531-62.8077Q73.047-63.4924 72.5946-64.3378Q72.1423-65.1832 72.1423-66.457Q72.1423-68.3918 73.6097-70.0109Q75.0771-71.6301 77.717-71.6301Q78.9731-71.6301 80.0669-71.0541Q81.1607-70.4782 81.9286-69.6684L93.5468-57.9221Q95.1184-56.3145 95.1676-53.8991Q95.2166-51.4837 93.5021-49.8376L81.8301-38.0996Q80.2557-36.4061 77.8569-36.4061Q75.4847-36.4061 73.8611-37.8691Q72.2376-39.332 72.2376-41.8856Q72.2376-43.8385 73.0864-44.8658L75.9882-47.9163Q75.1132-47.694 74.1174-47.5601Q70.5696-47.1586 67.7327-44.891Q64.8958-42.6235 63.2307-39.1724Q61.5657-35.7213 61.5657-31.6886Q61.5657-26.9806 63.8554-23.0921Q66.1453-19.2037 70.0307-16.8916Q73.9163-14.5793 78.6688-14.5793Q83.4155-14.5793 87.2786-16.8693Q91.1418-19.1591 93.436-23.0475Q95.7303-26.936 95.7303-31.6886Q95.7303-34.2125 97.5205-35.9654Q99.3108-37.7185 101.841-37.7185Q104.29-37.7185 106.058-35.9654Q107.826-34.2125 107.826-31.6886Q107.826-23.6591 103.881-17.0177Q99.9367-10.3763 93.3145-6.4108Q86.6923-2.44531 78.6688-2.44531Q70.6096-2.44531 64.0083-6.4108Q57.4071-10.3763 53.4565-17.0475Q49.5059-23.7186 49.5059-31.8076Z"/>
  </g>
  <g id="Bold-L" transform="matrix(1 0 0 1 2262.47 1556)">
   <path class="multicolor-0:white hierarchical-0:tertiary SFSymbolsPreviewFFFFFF" d="M77.477 31.0585Q91.0633 31.0585 102.961 25.9321Q114.859 20.8058 123.945 11.7014Q133.031 2.597 138.183-9.30084Q143.335-21.1986 143.335-34.748Q143.335-48.2974 138.183-60.1951Q133.031-72.093 123.926-81.1974Q114.822-90.3017 102.924-95.4281Q91.0264-100.554 77.44-100.554Q63.9049-100.554 52-95.4281Q40.0951-90.3017 31.0347-81.1974Q21.9745-72.093 16.8225-60.1951Q11.6705-48.2974 11.6705-34.748Q11.6705-21.1986 16.8225-9.30084Q21.9745 2.597 31.0532 11.7014Q40.1321 20.8058 52.037 25.9321Q63.9419 31.0585 77.477 31.0585Z"/>
   <path class="multicolor-1:black hierarchical-1:primary SFSymbolsPreview000000" d="M48.5769-31.8159Q48.5769-39.4157 52.103-45.662Q55.6292-51.9083 61.4695-55.8142Q67.3099-59.7199 74.2919-60.158Q74.7815-60.1872 75.2682-60.1733Q75.7549-60.1595 76.1875-60.1602L72.7466-63.7477Q72.2413-64.3698 71.8562-65.162Q71.4711-65.9542 71.4711-67.039Q71.4711-68.8284 72.7872-70.2576Q74.1033-71.6869 76.3819-71.6869Q77.4582-71.6869 78.418-71.2004Q79.3779-70.7138 80.0442-69.9821L92.0227-57.8436Q93.4065-56.4085 93.451-54.2578Q93.4955-52.1072 91.9935-50.6572L79.9211-38.515Q78.5211-37.0195 76.4837-37.0195Q74.3803-37.0195 72.962-38.3466Q71.5437-39.6736 71.5437-41.8576Q71.5437-43.6896 72.4822-44.7449L76.9716-49.3141Q75.9106-49.2889 74.5125-49.2013Q70.1952-48.9385 66.7213-46.4948Q63.2475-44.0512 61.1981-40.1718Q59.1487-36.2923 59.1487-31.6679Q59.1487-26.5913 61.6069-22.4241Q64.0652-18.2569 68.2253-15.7841Q72.3855-13.3111 77.4912-13.3111Q82.5828-13.3111 86.7284-15.7695Q90.8738-18.2277 93.3211-22.3949Q95.7684-26.5621 95.7684-31.6679Q95.7684-33.8675 97.3446-35.4106Q98.921-36.9538 101.135-36.9538Q103.268-36.9538 104.83-35.4106Q106.391-33.8675 106.391-31.6679Q106.391-23.6885 102.496-17.109Q98.6005-10.5295 92.0285-6.60134Q85.4564-2.67318 77.4912-2.67318Q69.4749-2.67318 62.9355-6.60134Q56.3962-10.5295 52.4865-17.146Q48.5769-23.7625 48.5769-31.8159Z"/>
  </g>
  <g id="Semibold-L" transform="matrix(1 0 0 1 1966.58 1556)">
   <path class="multicolor-0:white hierarchical-0:tertiary SFSymbolsPreviewFFFFFF" d="M76.6595 30.2304Q90.0731 30.2304 101.822 25.1691Q113.571 20.1078 122.548 11.1093Q131.526 2.1107 136.618-9.63816Q141.71-21.3869 141.71-34.7586Q141.71-48.1303 136.618-59.8791Q131.526-71.6279 122.527-80.6265Q113.529-89.6251 101.78-94.6864Q90.0312-99.7476 76.6176-99.7476Q63.2658-99.7476 51.5071-94.6864Q39.7483-89.6251 30.8015-80.6265Q21.8549-71.6279 16.7627-59.8791Q11.6705-48.1303 11.6705-34.7586Q11.6705-21.3869 16.7627-9.63816Q21.8549 2.1107 30.8225 11.1093Q39.7903 20.1078 51.549 25.1691Q63.3078 30.2304 76.6595 30.2304Z"/>
   <path class="multicolor-1:black hierarchical-1:primary SFSymbolsPreview000000" d="M47.9364-31.8215Q47.9364-39.525 51.5647-45.7984Q55.193-52.0717 61.1805-55.9069Q67.1681-59.7419 74.2833-60.0205Q74.8589-60.0391 75.4256-60.0086Q75.9924-59.9782 76.4885-59.957L72.1905-64.3958Q71.6859-64.9747 71.3472-65.7301Q71.0084-66.4857 71.0084-67.4403Q71.0084-69.1293 72.2202-70.4277Q73.432-71.7261 75.4614-71.7261Q76.4139-71.7261 77.2813-71.3012Q78.1489-70.8763 78.7451-70.1983L90.9721-57.7894Q92.2263-56.4733 92.2676-54.5051Q92.3089-52.537 90.9535-51.2222L78.605-38.8014Q77.3252-37.4424 75.537-37.4424Q73.619-37.4424 72.3422-38.6758Q71.0654-39.9092 71.0654-41.8384Q71.0654-43.587 72.0657-44.6616L77.6496-50.2777Q76.4604-50.3884 74.7849-50.3327Q69.9371-50.1656 66.0241-47.6005Q62.1111-45.0354 59.7968-40.8607Q57.4825-36.6859 57.4825-31.6536Q57.4825-26.3229 60.0568-21.9635Q62.6312-17.6042 66.9806-15.0205Q71.3301-12.4368 76.6794-12.4368Q82.0088-12.4368 86.349-15.0113Q90.6892-17.5856 93.2419-21.9449Q95.7946-26.3043 95.7946-31.6536Q95.7946-33.6296 97.2234-35.0281Q98.6523-36.4267 100.648-36.4267Q102.563-36.4267 103.983-35.0281Q105.403-33.6296 105.403-31.6536Q105.403-23.7088 101.541-17.1719Q97.6794-10.6351 91.1419-6.73269Q84.6044-2.83027 76.6794-2.83027Q68.6926-2.83027 62.1959-6.73269Q55.6993-10.6351 51.8178-17.2139Q47.9364-23.7927 47.9364-31.8215Z"/>
  </g>
  <g id="Medium-L" transform="matrix(1 0 0 1 1670.48 1556)">
   <path class="multicolor-0:white hierarchical-0:tertiary SFSymbolsPreviewFFFFFF" d="M76.0397 29.6025Q89.3223 29.6025 100.958 24.5906Q112.594 19.5787 121.49 10.6603Q130.385 1.74196 135.432-9.89393Q140.479-21.5297 140.479-34.7667Q140.479-48.0036 135.432-59.6394Q130.385-71.2753 121.467-80.1937Q112.548-89.112 100.912-94.1239Q89.2766-99.1358 75.9939-99.1358Q62.7813-99.1358 51.1333-94.1239Q39.4854-89.112 30.6247-80.1937Q21.7642-71.2753 16.7174-59.6394Q11.6705-48.0036 11.6705-34.7667Q11.6705-21.5297 16.7174-9.89393Q21.7642 1.74196 30.6476 10.6603Q39.5311 19.5787 51.179 24.5906Q62.827 29.6025 76.0397 29.6025Z"/>
   <path class="multicolor-1:black hierarchical-1:primary SFSymbolsPreview000000" d="M47.4508-31.8258Q47.4508-39.6078 51.1565-45.9018Q54.8623-52.1957 60.9614-55.9772Q67.0605-59.7585 74.2768-59.9162Q74.9176-59.9267 75.545-59.8837Q76.1725-59.8406 76.7166-59.8028L71.7689-64.8872Q71.2648-65.4334 70.9612-66.161Q70.6576-66.8887 70.6576-67.7446Q70.6576-69.3576 71.7902-70.5566Q72.923-71.7558 74.7635-71.7558Q75.622-71.7558 76.4195-71.3777Q77.217-70.9995 77.76-70.3623L90.1754-57.7484Q91.3314-56.5224 91.3704-54.6926Q91.4093-52.8629 90.1649-51.6507L77.6071-39.0185Q76.4185-37.763 74.8192-37.763Q73.0417-37.763 71.8722-38.9254Q70.7027-40.0877 70.7027-41.8238Q70.7027-43.5092 71.7499-44.5984L78.1637-51.0084Q76.8773-51.2221 74.9915-51.1906Q69.7414-51.096 65.4954-48.4389Q61.2495-45.7817 58.7343-41.3831Q56.2192-36.9844 56.2192-31.6428Q56.2192-26.1193 58.8815-21.6143Q61.5439-17.1093 66.0369-14.4416Q70.5299-11.7739 76.0638-11.7739Q81.5736-11.7739 86.0614-14.4364Q90.5491-17.0987 93.1818-21.6038Q95.8145-26.1088 95.8145-31.6428Q95.8145-33.4493 97.1315-34.7381Q98.4485-36.027 100.279-36.027Q102.029-36.027 103.341-34.7381Q104.653-33.4493 104.653-31.6428Q104.653-23.7241 100.817-17.2196Q96.981-10.7152 90.4696-6.83229Q83.9584-2.94938 76.0638-2.94938Q68.0995-2.94938 61.6351-6.83229Q55.1709-10.7152 51.3108-17.2654Q47.4508-23.8156 47.4508-31.8258Z"/>
  </g>
  <g id="Regular-L" transform="matrix(1 0 0 1 1374.57 1556)">
   <path class="multicolor-0:white hierarchical-0:tertiary SFSymbolsPreviewFFFFFF" d="M75.2312 28.7834Q88.343 28.7834 99.8315 23.8359Q111.32 18.8884 120.108 10.0747Q128.897 1.261 133.885-10.2275Q138.872-21.716 138.872-34.7772Q138.872-47.8383 133.885-59.3268Q128.897-70.8154 120.083-79.6291Q111.269-88.4428 99.7809-93.3903Q88.2923-98.3379 75.1805-98.3379Q62.1492-98.3379 50.6458-93.3903Q39.1424-88.4428 30.3941-79.6291Q21.646-70.8154 16.6582-59.3268Q11.6705-47.8383 11.6705-34.7772Q11.6705-21.716 16.6582-10.2275Q21.646 1.261 30.4194 10.0747Q39.193 18.8884 50.6964 23.8359Q62.1998 28.7834 75.2312 28.7834Z"/>
   <path class="multicolor-1:black hierarchical-1:primary SFSymbolsPreview000000" d="M46.8174-31.8314Q46.8174-39.7159 50.6241-46.0367Q54.4309-52.3573 60.6756-56.0688Q66.9203-59.7802 74.2683-59.7802Q74.9942-59.7802 75.7007-59.7207Q76.4073-59.6613 77.0143-59.6018L71.219-65.5282Q70.7155-66.0316 70.4577-66.7229Q70.1999-67.4144 70.1999-68.1414Q70.1999-69.6552 71.2294-70.7248Q72.259-71.7946 73.8532-71.7946Q74.5891-71.7946 75.2953-71.4774Q76.0014-71.1601 76.4752-70.5762L89.1363-57.6948Q90.1642-56.5865 90.2-54.9372Q90.2358-53.288 89.1363-52.2095L76.3055-39.3017Q75.2358-38.1812 73.8829-38.1812Q72.2887-38.1812 71.2592-39.251Q70.2297-40.3207 70.2297-41.8047Q70.2297-43.4077 71.3379-44.5159L78.8342-51.9615Q77.421-52.3095 75.2609-52.3095Q69.4862-52.3095 64.8059-49.5324Q60.1256-46.7552 57.3484-42.0645Q54.5713-37.3737 54.5713-31.6287Q54.5713-25.8539 57.3484-21.1588Q60.1256-16.4637 64.8059-13.6865Q69.4862-10.9092 75.2609-10.9092Q81.0059-10.9092 85.6862-13.6865Q90.3664-16.4637 93.1035-21.1588Q95.8405-25.8539 95.8405-31.6287Q95.8405-33.2141 97.0116-34.3598Q98.1828-35.5056 99.7978-35.5056Q101.332-35.5056 102.504-34.3598Q103.675-33.2141 103.675-31.6287Q103.675-23.7442 99.8724-17.2818Q96.07-10.8196 89.5928-6.9622Q83.1157-3.10475 75.2609-3.10475Q67.3258-3.10475 60.9036-6.9622Q54.4816-10.8196 50.6495-17.3326Q46.8174-23.8455 46.8174-31.8314Z"/>
  </g>
  <g id="Light-L" transform="matrix(1 0 0 1 1078.79 1556)">
   <path class="multicolor-0:white hierarchical-0:tertiary SFSymbolsPreviewFFFFFF" d="M74.3077 27.8599Q87.2553 27.8599 98.5694 22.9945Q109.883 18.1291 118.549 9.44878Q127.214 0.768463 132.12-10.5457Q137.025-21.8597 137.025-34.7772Q137.025-47.6946 132.12-59.0088Q127.214-70.3229 118.534-79.0032Q109.853-87.6835 98.5393-92.5489Q87.2252-97.4144 74.2776-97.4144Q61.4104-97.4144 50.0712-92.5489Q38.7319-87.6835 30.1068-79.0032Q21.4818-70.3229 16.5762-59.0088Q11.6705-47.6946 11.6705-34.7772Q11.6705-21.8597 16.5762-10.5457Q21.4818 0.768463 30.1218 9.44878Q38.7621 18.1291 50.1013 22.9945Q61.4405 27.8599 74.3077 27.8599Z"/>
   <path class="multicolor-1:black hierarchical-1:primary SFSymbolsPreview000000" d="M46.6532-31.8519Q46.6532-39.5723 50.3676-45.7596Q54.0821-51.9469 60.2241-55.5558Q66.3662-59.1646 73.7347-59.1646Q74.8505-59.1646 75.9059-59.064Q76.9615-58.9636 77.8762-58.863L70.357-66.4927Q69.8947-66.9551 69.7086-67.513Q69.5227-68.0711 69.5227-68.634Q69.5227-69.8604 70.347-70.7248Q71.1714-71.5894 72.4782-71.5894Q73.1115-71.5894 73.6945-71.303Q74.2776-71.0165 74.6898-70.4736L87.5971-57.3049Q88.5019-56.3197 88.5069-54.9475Q88.5119-53.5753 87.5971-52.6404L74.4585-39.2606Q73.5941-38.3659 72.5284-38.3659Q71.2216-38.3659 70.3972-39.2305Q69.5729-40.095 69.5729-41.2712Q69.5729-42.6483 70.5581-43.6335L79.6756-52.7208Q77.5647-53.2535 74.3579-53.2535Q68.3164-53.2535 63.4309-50.3635Q58.5454-47.4734 55.6553-42.598Q52.7653-37.7226 52.7653-31.7313Q52.7653-25.6897 55.6553-20.7792Q58.5454-15.8686 63.4309-12.9785Q68.3164-10.0883 74.3579-10.0883Q80.3492-10.0883 85.2347-12.9785Q90.1202-15.8686 92.9701-20.7792Q95.82-25.6897 95.82-31.7313Q95.82-32.9678 96.7448-33.8775Q97.6697-34.7873 98.9564-34.7873Q100.163-34.7873 101.088-33.8775Q102.012-32.9678 102.012-31.7313Q102.012-24.0109 98.3333-17.723Q94.654-11.4352 88.341-7.69073Q82.0281-3.94612 74.3579-3.94612Q66.6075-3.94612 60.3598-7.69073Q54.1122-11.4352 50.3827-17.7533Q46.6532-24.0712 46.6532-31.8519Z"/>
  </g>
  <g id="Thin-L" transform="matrix(1 0 0 1 783.296 1556)">
   <path class="multicolor-0:white hierarchical-0:tertiary SFSymbolsPreviewFFFFFF" d="M73.0864 26.6386Q85.8168 26.6386 96.9002 21.8817Q107.983 17.1249 116.486 8.62096Q124.988 0.117042 129.786-10.9664Q134.582-22.0497 134.582-34.7772Q134.582-47.5046 129.786-58.5881Q124.988-69.6715 116.484-78.1753Q107.98-86.6793 96.8972-91.436Q85.8138-96.193 73.0833-96.193Q60.4333-96.193 49.3112-91.436Q38.1891-86.6793 29.7268-78.1753Q21.2647-69.6715 16.4676-58.5881Q11.6705-47.5046 11.6705-34.7772Q11.6705-22.0497 16.4676-10.9664Q21.2647 0.117042 29.7283 8.62096Q38.1921 17.1249 49.3142 21.8817Q60.4363 26.6386 73.0864 26.6386Z"/>
   <path class="multicolor-1:black hierarchical-1:primary SFSymbolsPreview000000" d="M46.4361-31.8791Q46.4361-39.3823 50.0283-45.3932Q53.6206-51.4041 59.627-54.8772Q65.6334-58.3504 73.029-58.3504Q74.6605-58.3504 76.1773-58.1955Q77.6943-58.0408 79.0161-57.8859L69.2171-67.7684Q68.809-68.1765 68.7179-68.558Q68.627-68.9396 68.627-69.2854Q68.627-70.1319 69.1799-70.7248Q69.7328-71.3179 70.6597-71.3179Q71.1573-71.3179 71.5775-71.0723Q71.9976-70.8265 72.3285-70.3379L85.5615-56.7892Q86.3034-55.9669 86.2676-54.961Q86.232-53.9553 85.5615-53.2103L72.0157-39.2063Q71.4228-38.6102 70.737-38.6102Q69.8102-38.6102 69.2573-39.2033Q68.7043-39.7964 68.7043-40.5655Q68.7043-41.6441 69.5267-42.4664L80.7885-53.725Q77.7547-54.5021 73.1637-54.5021Q66.7693-54.5021 61.6124-51.4628Q56.4555-48.4234 53.4161-43.3037Q50.3768-38.184 50.3768-31.8671Q50.3768-25.4726 53.4161-20.277Q56.4555-15.0815 61.6124-12.0421Q66.7693-9.00265 73.1637-9.00265Q79.4806-9.00265 84.6375-12.0421Q89.7944-15.0815 92.7936-20.277Q95.7929-25.4726 95.7929-31.8671Q95.7929-32.642 96.392-33.2397Q96.9912-33.8373 97.8435-33.8373Q98.6157-33.8373 99.2148-33.2397Q99.814-32.642 99.814-31.8671Q99.814-24.3637 96.2976-18.3066Q92.7811-12.2495 86.6853-8.65427Q80.5895-5.05892 73.1637-5.05892Q65.6575-5.05892 59.6406-8.65427Q53.6236-12.2495 50.0298-18.3096Q46.4361-24.3698 46.4361-31.8791Z"/>
  </g>
  <g id="Ultralight-L" transform="matrix(1 0 0 1 487.211 1556)">
   <path class="multicolor-0:white hierarchical-0:tertiary SFSymbolsPreviewFFFFFF" d="M72.4608 26.013Q85.08 26.013 96.0452 21.3117Q107.01 16.6105 115.429 8.19695Q123.848-0.216613 128.59-11.1819Q133.331-22.147 133.331-34.7772Q133.331-47.4073 128.59-58.3726Q123.848-69.3379 115.435-77.7513Q107.021-86.1649 96.0561-90.866Q85.0908-95.5674 72.4717-95.5674Q59.9328-95.5674 48.9219-90.866Q37.911-86.1649 29.5322-77.7513Q21.1535-69.3379 16.412-58.3726Q11.6705-47.4073 11.6705-34.7772Q11.6705-22.147 16.412-11.1819Q21.1535-0.216613 29.5267 8.19695Q37.9001 16.6105 48.911 21.3117Q59.9219 26.013 72.4608 26.013Z"/>
   <path class="multicolor-1:black hierarchical-1:primary SFSymbolsPreview000000" d="M46.3249-31.893Q46.3249-39.285 49.8545-45.2055Q53.3843-51.1261 59.3212-54.5297Q65.258-57.9333 72.6676-57.9333Q74.5632-57.9333 76.3164-57.7506Q78.0697-57.5681 79.5999-57.3854L68.6332-68.4219Q68.2529-68.8021 68.2105-69.0932Q68.1682-69.3845 68.1682-69.6191Q68.1682-70.2709 68.5821-70.7248Q68.996-71.1789 69.7282-71.1789Q70.1564-71.1789 70.4931-70.9541Q70.8298-70.7292 71.119-70.2684L84.5188-56.5251Q85.1774-55.7862 85.1207-54.968Q85.0642-54.15 84.5188-53.5023L70.7645-39.1785Q70.3106-38.7353 69.8195-38.7353Q69.0873-38.7353 68.6734-39.1894Q68.2594-39.6435 68.2594-40.2041Q68.2594-41.1297 68.9984-41.8686L81.3584-54.2394Q77.852-55.1416 72.552-55.1416Q65.9768-55.1416 60.6809-52.0259Q55.385-48.91 52.2691-43.6651Q49.1534-38.4203 49.1534-31.9366Q49.1534-25.3614 52.2691-20.0199Q55.385-14.6783 60.6809-11.5624Q65.9768-8.44658 72.552-8.44658Q79.0358-8.44658 84.3317-11.5624Q89.6276-14.6783 92.7033-20.0199Q95.779-25.3614 95.779-31.9366Q95.779-32.4752 96.2113-32.913Q96.6436-33.3508 97.2735-33.3508Q97.8232-33.3508 98.2556-32.913Q98.6879-32.4752 98.6879-31.9366Q98.6879-24.5444 95.255-18.6055Q91.8219-12.6665 85.8373-9.14779Q79.8527-5.62888 72.552-5.62888Q65.171-5.62888 59.2722-9.14779Q53.3734-12.6665 49.8491-18.5946Q46.3249-24.5227 46.3249-31.893Z"/>
  </g>
  <g id="Black-M" transform="matrix(1 0 0 1 2871.03 1126)">
   <path class="multicolor-0:white hierarchical-0:tertiary SFSymbolsPreviewFFFFFF" d="M62.3613 18.4976Q73.3915 18.4976 83.033 14.3428Q92.6745 10.188 100.023 2.83676Q107.371-4.51447 111.529-14.156Q115.686-23.7974 115.686-34.822Q115.686-45.8468 111.529-55.4882Q107.371-65.1297 100.02-72.4809Q92.669-79.8322 83.0275-83.987Q73.386-88.1417 62.3558-88.1417Q51.3309-88.1417 41.6895-83.987Q32.0482-79.8322 24.7023-72.4809Q17.3565-65.1297 13.199-55.4882Q9.04166-45.8468 9.04166-34.822Q9.04166-23.7974 13.199-14.156Q17.3565-4.51447 24.705 2.83676Q32.0537 10.188 41.695 14.3428Q51.3364 18.4976 62.3613 18.4976Z"/>
   <path class="multicolor-1:black hierarchical-1:primary SFSymbolsPreview000000" d="M39.6556-32.5736Q39.6556-38.0695 42.0247-42.7756Q44.3939-47.4816 48.4064-50.7022Q52.4191-53.9227 57.4034-54.7791Q57.6364-54.8363 57.8727-54.8654Q58.1089-54.8945 58.3432-54.9522L57.8696-55.5506Q57.4901-56.1586 57.0659-56.846Q56.6417-57.5333 56.6417-58.7402Q56.6417-60.3539 57.9297-61.8158Q59.2177-63.2778 61.6931-63.2778Q62.8939-63.2778 63.895-62.7114Q64.8963-62.1451 65.6187-61.4177L74.1771-52.7925Q75.6273-51.337 75.6616-49.1732Q75.6958-47.0093 74.12-45.4965L65.5574-36.8325Q64.1526-35.308 61.8641-35.308Q59.7312-35.308 58.2434-36.5701Q56.7555-37.832 56.7555-40.2455Q56.7555-41.8584 57.2404-42.5716L57.721-43.275Q57.0772-42.8778 56.5373-42.7065Q54.8219-42.1927 53.4848-40.6548Q52.1477-39.1168 51.3806-37.006Q50.6136-34.8952 50.6136-32.5515Q50.6136-29.3517 52.1799-26.673Q53.7464-23.9944 56.4253-22.3994Q59.1041-20.8044 62.361-20.8044Q65.6183-20.8044 68.2685-22.3708Q70.9189-23.9372 72.5113-26.6159Q74.1037-29.2946 74.1037-32.5515Q74.1037-34.8618 75.7193-36.4461Q77.335-38.0306 79.645-38.0306Q81.8926-38.0306 83.4797-36.4461Q85.0669-34.8618 85.0669-32.5515Q85.0669-26.3134 81.981-21.137Q78.895-15.9606 73.7473-12.8722Q68.5994-9.78381 62.361-9.78381Q56.1174-9.78381 50.9721-12.8722Q45.8268-15.9606 42.7412-21.1425Q39.6556-26.3245 39.6556-32.5736Z"/>
  </g>
  <g id="Heavy-M" transform="matrix(1 0 0 1 2575.15 1126)">
   <path class="multicolor-0:white hierarchical-0:tertiary SFSymbolsPreviewFFFFFF" d="M61.5234 17.6462Q72.3699 17.6462 81.86 13.5563Q91.3502 9.46643 98.5878 2.22065Q105.825-5.02512 109.925-14.5152Q114.024-24.0053 114.024-34.8355Q114.024-45.6658 109.925-55.1559Q105.825-64.646 98.5797-71.8918Q91.3339-79.1376 81.8438-83.2275Q72.3537-87.3174 61.5072-87.3174Q50.6794-87.3174 41.1881-83.2275Q31.6968-79.1376 24.4684-71.8918Q17.2401-64.646 13.1409-55.1559Q9.04166-45.6658 9.04166-34.8355Q9.04166-24.0053 13.1409-14.5152Q17.2401-5.02512 24.4765 2.22065Q31.713 9.46643 41.2043 13.5563Q50.6957 17.6462 61.5234 17.6462Z"/>
   <path class="multicolor-1:black hierarchical-1:primary SFSymbolsPreview000000" d="M38.879-32.5763Q38.879-38.2389 41.3974-43.008Q43.9159-47.777 48.1371-50.9299Q52.3584-54.0827 57.5071-54.737Q57.7654-54.7807 58.0282-54.7976Q58.291-54.8145 58.5395-54.8532L57.3499-56.1649Q56.9624-56.727 56.5815-57.3965Q56.2006-58.066 56.2006-59.143Q56.2006-60.6914 57.4005-62.0314Q58.6004-63.3715 60.8217-63.3715Q61.8874-63.3715 62.798-62.8767Q63.7086-62.3819 64.3555-61.7139L73.1759-52.8077Q74.4884-51.4764 74.5253-49.4845Q74.5621-47.4925 73.1322-46.1202L64.2859-37.2043Q62.9894-35.8043 60.955-35.8043Q58.9954-35.8043 57.6428-36.9918Q56.2903-38.1791 56.2903-40.3358Q56.2903-41.8914 56.8799-42.6555L58.3996-44.3335Q57.7433-44.0688 57.0765-43.9379Q54.7461-43.5454 52.8964-41.8778Q51.0466-40.2102 49.968-37.7647Q48.8894-35.3193 48.8894-32.5114Q48.8894-29.0467 50.5787-26.1707Q52.2681-23.2948 55.1429-21.5836Q58.0177-19.8724 61.5259-19.8724Q65.0317-19.8724 67.8847-21.5618Q70.7377-23.2511 72.4395-26.1271Q74.1414-29.0031 74.1414-32.5114Q74.1414-34.6132 75.6229-36.0649Q77.1046-37.5166 79.2089-37.5166Q81.2508-37.5166 82.7106-36.0649Q84.1704-34.6132 84.1704-32.5114Q84.1704-26.2818 81.101-21.122Q78.0316-15.9622 72.8923-12.8822Q67.753-9.80221 61.5259-9.80221Q55.2801-9.80221 50.1514-12.8822Q45.0227-15.9622 41.9508-21.1382Q38.879-26.3143 38.879-32.5763Z"/>
  </g>
  <g id="Bold-M" transform="matrix(1 0 0 1 2279.37 1126)">
   <path class="multicolor-0:white hierarchical-0:tertiary SFSymbolsPreviewFFFFFF" d="M60.5861 16.6939Q71.2271 16.6939 80.5479 12.6766Q89.8687 8.65925 96.9824 1.53145Q104.096-5.59635 108.13-14.9171Q112.164-24.2378 112.164-34.8506Q112.164-45.4634 108.13-54.7841Q104.096-64.1049 96.9682-71.2327Q89.8405-78.3606 80.5197-82.3779Q71.1989-86.3952 60.5579-86.3952Q49.9507-86.3952 40.6272-82.3779Q31.3037-78.3606 24.2068-71.2327Q17.11-64.1049 13.0758-54.7841Q9.04166-45.4634 9.04166-34.8506Q9.04166-24.2378 13.0758-14.9171Q17.11-5.59635 24.2209 1.53145Q31.3319 8.65925 40.6554 12.6766Q49.9789 16.6939 60.5861 16.6939Z"/>
   <path class="multicolor-1:black hierarchical-1:primary SFSymbolsPreview000000" d="M38.0103-32.5794Q38.0103-38.4284 40.6957-43.2679Q43.3813-48.1074 47.8358-51.1846Q52.2904-54.2618 57.6231-54.69Q57.9097-54.7186 58.2021-54.7218Q58.4946-54.725 58.7591-54.7425L56.7686-56.8521Q56.3721-57.3628 56.0396-58.0123Q55.7072-58.6618 55.7072-59.5937Q55.7072-61.0688 56.8085-62.2726Q57.9098-63.4764 59.8469-63.4764Q60.7616-63.4764 61.5708-63.0616Q62.38-62.6468 62.9423-62.0452L72.0559-52.8246Q73.2143-51.6324 73.2541-49.8327Q73.2938-48.033 72.0273-46.8178L62.8635-37.6202Q61.6883-36.3596 59.9381-36.3596Q58.1722-36.3596 56.971-37.4635Q55.7698-38.5673 55.7698-40.4367Q55.7698-41.9283 56.4766-42.7493L59.1588-45.5175Q58.4883-45.4011 57.6798-45.3154Q54.6612-45.0585 52.2381-43.2459Q49.815-41.4333 48.3878-38.6135Q46.9607-35.7936 46.9607-32.4665Q46.9607-28.7056 48.7875-25.6089Q50.6144-22.5122 53.7083-20.6711Q56.8023-18.8299 60.5917-18.8299Q64.3756-18.8299 67.4553-20.6568Q70.535-22.4837 72.3592-25.5804Q74.1835-28.6771 74.1835-32.4665Q74.1835-34.3352 75.5151-35.6384Q76.8468-36.9417 78.721-36.9417Q80.5329-36.9417 81.8502-35.6384Q83.1677-34.3352 83.1677-32.4665Q83.1677-26.2464 80.1167-21.1052Q77.0657-15.964 71.936-12.8934Q66.8062-9.82279 60.5917-9.82279Q54.3434-9.82279 49.2333-12.8934Q44.1232-15.964 41.0667-21.1335Q38.0103-26.3029 38.0103-32.5794Z"/>
  </g>
  <g id="Semibold-M" transform="matrix(1 0 0 1 1983.3 1126)">
   <path class="multicolor-0:white hierarchical-0:tertiary SFSymbolsPreviewFFFFFF" d="M59.94 16.0373Q70.4393 16.0373 79.6434 12.0701Q88.8474 8.1028 95.8756 1.05631Q102.904-5.99015 106.893-15.1942Q110.883-24.3982 110.883-34.861Q110.883-45.3239 106.893-54.5279Q102.904-63.7319 95.8573-70.7784Q88.8109-77.8249 79.6069-81.7921Q70.4028-85.7594 59.9035-85.7594Q49.4483-85.7594 40.2405-81.7921Q31.0327-77.8249 24.0264-70.7784Q17.0203-63.7319 13.031-54.5279Q9.04166-45.3239 9.04166-34.861Q9.04166-24.3982 13.031-15.1942Q17.0203-5.99015 24.0447 1.05631Q31.0692 8.1028 40.277 12.0701Q49.4848 16.0373 59.94 16.0373Z"/>
   <path class="multicolor-1:black hierarchical-1:primary SFSymbolsPreview000000" d="M37.4114-32.5815Q37.4114-38.559 40.212-43.4471Q43.0127-48.3351 47.6281-51.3602Q52.2435-54.3852 57.703-54.6576Q58.0092-54.6758 58.322-54.6695Q58.6349-54.6633 58.9105-54.6662L56.3678-57.3258Q55.9651-57.8012 55.6661-58.4368Q55.3671-59.0726 55.3671-59.9044Q55.3671-61.329 56.4004-62.4388Q57.4337-63.5487 59.1749-63.5487Q59.9854-63.5487 60.7248-63.1891Q61.4641-62.8294 61.9681-62.2735L71.2838-52.8362Q72.3359-51.7399 72.3777-50.0727Q72.4195-48.4056 71.2656-47.2988L61.8829-37.9069Q60.7912-36.7424 59.237-36.7424Q57.6048-36.7424 56.5079-37.7887Q55.411-38.835 55.411-40.5062Q55.411-41.9538 56.1986-42.814L59.6822-46.3337Q59.002-46.3195 58.0957-46.265Q54.6027-46.1016 51.7843-44.1891Q48.9659-42.2765 47.2984-39.1986Q45.631-36.1206 45.631-32.4355Q45.631-28.4704 47.5526-25.2216Q49.4743-21.9727 52.7193-20.042Q55.9644-18.1112 59.9476-18.1112Q63.9232-18.1112 67.1592-20.0329Q70.3952-21.9546 72.3039-25.2034Q74.2126-28.4523 74.2126-32.4355Q74.2126-34.1435 75.4408-35.3444Q76.6692-36.5453 78.3847-36.5453Q80.0379-36.5453 81.2571-35.3444Q82.4763-34.1435 82.4763-32.4355Q82.4763-26.222 79.4381-21.0936Q76.3998-15.9652 71.2767-12.9011Q66.1535-9.83697 59.9476-9.83697Q53.6977-9.83697 48.6004-12.9011Q43.5031-15.9652 40.4572-21.1302Q37.4114-26.295 37.4114-32.5815Z"/>
  </g>
  <g id="Medium-M" transform="matrix(1 0 0 1 1687.08 1126)">
   <path class="multicolor-0:white hierarchical-0:tertiary SFSymbolsPreviewFFFFFF" d="M59.45 15.5395Q69.842 15.5395 78.9575 11.6102Q88.073 7.68086 95.0365 0.696045Q102-6.28874 105.955-15.4043Q109.911-24.5197 109.911-34.8689Q109.911-45.2181 105.955-54.3335Q102-63.4491 95.015-70.4339Q88.0302-77.4187 78.9147-81.348Q69.7992-85.2773 59.4073-85.2773Q49.0674-85.2773 39.9473-81.348Q30.8272-77.4187 23.8897-70.4339Q16.9523-63.4491 12.997-54.3335Q9.04166-45.2181 9.04166-34.8689Q9.04166-24.5197 12.997-15.4043Q16.9523-6.28874 23.9111 0.696045Q30.8699 7.68086 39.99 11.6102Q49.1102 15.5395 59.45 15.5395Z"/>
   <path class="multicolor-1:black hierarchical-1:primary SFSymbolsPreview000000" d="M36.9573-32.5831Q36.9573-38.6581 39.8452-43.583Q42.7333-48.5079 47.4706-51.4934Q52.208-54.4788 57.7637-54.633Q58.0846-54.6433 58.413-54.6299Q58.7414-54.6166 59.0253-54.6083L56.0639-57.6851Q55.6565-58.1335 55.3829-58.7587Q55.1092-59.3841 55.1092-60.1399Q55.1092-61.5263 56.0909-62.5649Q57.0728-63.6036 58.6653-63.6036Q59.3969-63.6036 60.0833-63.2857Q60.7697-62.9678 61.2294-62.4467L70.6983-52.8451Q71.6699-51.8214 71.7132-50.2547Q71.7565-48.6881 70.688-47.6635L61.1394-38.1243Q60.1111-37.0326 58.7054-37.0326Q57.1745-37.0326 56.1567-38.0353Q55.139-39.0379 55.139-40.559Q55.139-41.9731 55.9878-42.8631L60.079-46.9526Q59.3914-47.0159 58.411-46.9851Q54.5583-46.8926 51.4402-44.9042Q48.3221-42.9158 46.4724-39.6422Q44.6228-36.3686 44.6228-32.412Q44.6228-28.2921 46.6163-24.9279Q48.6099-21.5637 51.9695-19.565Q55.3291-17.5662 59.4593-17.5662Q63.5803-17.5662 66.9348-19.5599Q70.2892-21.5534 72.2619-24.9176Q74.2346-28.2818 74.2346-32.412Q74.2346-33.9981 75.3845-35.1215Q76.5344-36.2448 78.1297-36.2448Q79.6626-36.2448 80.8073-35.1215Q81.9522-33.9981 81.9522-32.412Q81.9522-26.2035 78.9236-21.0848Q75.8949-15.9662 70.7767-12.907Q65.6586-9.84773 59.4593-9.84773Q53.2081-9.84773 48.1205-12.907Q43.033-15.9662 39.9951-21.1277Q36.9573-26.2891 36.9573-32.5831Z"/>
  </g>
  <g id="Regular-M" transform="matrix(1 0 0 1 1391 1126)">
   <path class="multicolor-0:white hierarchical-0:tertiary SFSymbolsPreviewFFFFFF" d="M58.811 14.8901Q69.0628 14.8901 78.0629 11.0103Q87.0629 7.13052 93.9419 0.226132Q100.821-6.67822 104.732-15.6783Q108.643-24.6783 108.643-34.8792Q108.643-45.08 104.732-54.0801Q100.821-63.0801 93.9163-69.9845Q87.012-76.8889 78.0119-80.7687Q69.0119-84.6486 58.76-84.6486Q48.5706-84.6486 39.5649-80.7687Q30.5591-76.8889 23.7113-69.9845Q16.8636-63.0801 12.9526-54.0801Q9.04166-45.08 9.04166-34.8792Q9.04166-24.6783 12.9526-15.6783Q16.8636-6.67822 23.7368 0.226132Q30.6101 7.13052 39.6158 11.0103Q48.6215 14.8901 58.811 14.8901Z"/>
   <path class="multicolor-1:black hierarchical-1:primary SFSymbolsPreview000000" d="M36.3649-32.5852Q36.3649-38.7873 39.3668-43.7603Q42.3687-48.7331 47.2652-51.6671Q52.1617-54.6009 57.8428-54.6009Q58.183-54.6009 58.5315-54.5782Q58.8802-54.5555 59.175-54.5328L55.6675-58.1536Q55.2541-58.567 55.0134-59.1786Q54.7728-59.7903 54.7728-60.4472Q54.7728-61.7837 55.6873-62.7293Q56.6019-63.6751 58.0007-63.6751Q58.6293-63.6751 59.2466-63.4118Q59.8638-63.1484 60.2659-62.6726L69.9347-52.8566Q70.8012-51.9278 70.8465-50.4922Q70.8918-49.0566 69.9347-48.1392L60.1696-38.4079Q59.2239-37.4112 58.012-37.4112Q56.6132-37.4112 55.6986-38.357Q54.7841-39.3026 54.7841-40.6278Q54.7841-41.9983 55.7129-42.9271L60.5967-47.7599Q59.8994-47.9243 58.8223-47.9243Q54.5005-47.9243 50.9914-45.837Q47.4823-43.7497 45.395-40.2209Q43.3078-36.692 43.3078-32.3814Q43.3078-28.0595 45.395-24.5448Q47.4823-21.0301 50.9914-18.9428Q54.5005-16.8554 58.8223-16.8554Q63.1329-16.8554 66.642-18.9428Q70.151-21.0301 72.2072-24.5448Q74.2633-28.0595 74.2633-32.3814Q74.2633-33.8085 75.311-34.8307Q76.3587-35.8528 77.797-35.8528Q79.1731-35.8528 80.2207-34.8307Q81.2684-33.8085 81.2684-32.3814Q81.2684-26.1794 78.2524-21.0734Q75.2364-15.9674 70.1247-12.9146Q65.013-9.86176 58.8223-9.86176Q52.5694-9.86176 47.4945-12.9146Q42.4197-15.9674 39.3923-21.1244Q36.3649-26.2813 36.3649-32.5852Z"/>
  </g>
  <g id="Light-M" transform="matrix(1 0 0 1 1095.12 1126)">
   <path class="multicolor-0:white hierarchical-0:tertiary SFSymbolsPreviewFFFFFF" d="M57.983 14.0622Q68.0877 14.0622 76.9313 10.256Q85.7749 6.44975 92.5435-0.335035Q99.312-7.1198 103.149-15.9635Q106.987-24.8071 106.987-34.8792Q106.987-44.9512 103.149-53.7949Q99.312-62.6386 92.5272-69.4234Q85.7424-76.2081 76.8988-80.0143Q68.0551-83.8206 57.9505-83.8206Q47.9082-83.8206 39.0497-80.0143Q30.1911-76.2081 23.4537-69.4234Q16.7164-62.6386 12.879-53.7949Q9.04166-44.9512 9.04166-34.8792Q9.04166-24.8071 12.879-15.9635Q16.7164-7.1198 23.47-0.335035Q30.2237 6.44975 39.0822 10.256Q47.9408 14.0622 57.983 14.0622Z"/>
   <path class="multicolor-1:black hierarchical-1:primary SFSymbolsPreview000000" d="M36.2178-32.6037Q36.2178-38.6585 39.1368-43.5119Q42.056-48.3652 46.8604-51.2071Q51.6649-54.049 57.3644-54.049Q58.0542-54.049 58.7155-53.9894Q59.377-53.93 59.9478-53.8705L54.8947-59.0184Q54.5181-59.395 54.3418-59.887Q54.1656-60.3791 54.1656-60.8888Q54.1656-61.9677 54.8961-62.7293Q55.6268-63.4911 56.7679-63.4911Q57.3046-63.4911 57.8114-63.2554Q58.3183-63.0197 58.6653-62.5806L68.5548-52.5071Q69.3109-51.6886 69.3286-50.5014Q69.3463-49.3142 68.5548-48.5255L58.5137-38.3711Q57.752-37.5768 56.7977-37.5768Q55.6565-37.5768 54.9259-38.3385Q54.1953-39.1002 54.1953-40.1494Q54.1953-41.3175 55.0137-42.1359L61.351-48.4406Q60.0282-48.7706 58.0128-48.7706Q53.4517-48.7706 49.7586-46.5822Q46.0656-44.3937 43.8771-40.6993Q41.6887-37.0048 41.6887-32.4734Q41.6887-27.9123 43.8771-24.2044Q46.0656-20.4965 49.7586-18.308Q53.4517-16.1195 58.0128-16.1195Q62.5441-16.1195 66.2372-18.308Q69.9302-20.4965 72.0876-24.2044Q74.245-27.9123 74.245-32.4734Q74.245-33.5877 75.0718-34.3983Q75.8987-35.2088 77.0426-35.2088Q78.1244-35.2088 78.9512-34.3983Q79.7781-33.5877 79.7781-32.4734Q79.7781-26.4186 76.8725-21.4689Q73.9668-16.5194 69.0023-13.5678Q64.0379-10.6161 58.0128-10.6161Q51.9254-10.6161 47.0069-13.5678Q42.0885-16.5194 39.1531-21.5016Q36.2178-26.4837 36.2178-32.6037Z"/>
  </g>
  <g id="Thin-M" transform="matrix(1 0 0 1 799.503 1126)">
   <path class="multicolor-0:white hierarchical-0:tertiary SFSymbolsPreviewFFFFFF" d="M56.888 12.9671Q66.7979 12.9671 75.4348 9.25827Q84.0715 5.54939 90.6941-1.07722Q97.3166-7.70384 101.057-16.3407Q104.797-24.9774 104.797-34.8792Q104.797-44.7809 101.057-53.4177Q97.3166-62.0546 90.69-68.6812Q84.0633-75.3078 75.4266-79.0166Q66.7897-82.7255 56.8798-82.7255Q47.0322-82.7255 38.3683-79.0166Q29.7044-75.3078 23.113-68.6812Q16.5217-62.0546 12.7817-53.4177Q9.04166-44.7809 9.04166-34.8792Q9.04166-24.9774 12.7817-16.3407Q16.5217-7.70384 23.1171-1.07722Q29.7127 5.54939 38.3765 9.25827Q47.0404 12.9671 56.888 12.9671Z"/>
   <path class="multicolor-1:black hierarchical-1:primary SFSymbolsPreview000000" d="M36.0231-32.628Q36.0231-38.4882 38.8326-43.1834Q41.6423-47.8785 46.3251-50.5987Q51.0079-53.319 56.7317-53.319Q57.8839-53.319 58.9589-53.2108Q60.0341-53.1027 60.9698-52.9945L53.8727-60.1621Q53.5448-60.4901 53.4536-60.8239Q53.3625-61.1578 53.3625-61.4728Q53.3625-62.2111 53.8498-62.7293Q54.337-63.2477 55.1375-63.2477Q55.5525-63.2477 55.9134-63.0486Q56.2742-62.8493 56.5482-62.459L66.7297-52.0447Q67.3399-51.3723 67.321-50.5135Q67.3022-49.6549 66.7297-49.0365L56.3236-38.3224Q55.8053-37.7958 55.1916-37.7958Q54.3911-37.7958 53.9038-38.3142Q53.4166-38.8325 53.4166-39.5167Q53.4166-40.4171 54.089-41.0895L62.3488-49.341Q60.1986-49.89 56.9421-49.89Q52.0646-49.89 48.1282-47.5678Q44.1919-45.2454 41.8695-41.3319Q39.5472-37.4185 39.5472-32.5951Q39.5472-27.7176 41.8695-23.7542Q44.1919-19.7909 48.1282-17.4685Q52.0646-15.1461 56.9421-15.1461Q61.7654-15.1461 65.7018-17.4685Q69.6382-19.7909 71.9294-23.7542Q74.2206-27.7176 74.2206-32.5951Q74.2206-33.2957 74.7555-33.8264Q75.2903-34.3571 76.0449-34.3571Q76.7373-34.3571 77.2722-33.8264Q77.807-33.2957 77.807-32.5951Q77.807-26.7349 75.0474-21.9921Q72.2878-17.2494 67.518-14.4316Q62.7482-11.6138 56.9421-11.6138Q51.0737-11.6138 46.3621-14.4316Q41.6505-17.2494 38.8367-22.0004Q36.0231-26.7513 36.0231-32.628Z"/>
  </g>
  <g id="Ultralight-M" transform="matrix(1 0 0 1 503.353 1126)">
   <path class="multicolor-0:white hierarchical-0:tertiary SFSymbolsPreviewFFFFFF" d="M56.3272 12.4063Q66.1374 12.4063 74.6683 8.74725Q83.1991 5.08822 89.7468-1.45737Q96.2946-8.00297 99.9848-16.5339Q103.675-25.0647 103.675-34.8792Q103.675-44.6936 99.9848-53.2246Q96.2946-61.7555 89.7489-68.301Q83.2033-74.8466 74.6725-78.5056Q66.1416-82.1647 56.3314-82.1647Q46.5835-82.1647 38.0193-78.5056Q29.4552-74.8466 22.9385-68.301Q16.422-61.7555 12.7318-53.2246Q9.04166-44.6936 9.04166-34.8792Q9.04166-25.0647 12.7318-16.5339Q16.422-8.00297 22.9364-1.45737Q29.4509 5.08822 38.0151 8.74725Q46.5793 12.4063 56.3272 12.4063Z"/>
   <path class="multicolor-1:black hierarchical-1:primary SFSymbolsPreview000000" d="M35.9234-32.6405Q35.9234-38.4009 38.6768-43.0151Q41.4304-47.6293 46.0509-50.2872Q50.6714-52.9451 56.4077-52.9451Q57.7966-52.9451 59.0835-52.8119Q60.3706-52.6789 61.4932-52.5458L53.3492-60.7479Q53.0462-61.0509 52.9986-61.3037Q52.9512-61.5567 52.9512-61.772Q52.9512-62.3357 53.3138-62.7293Q53.6765-63.1231 54.3025-63.1231Q54.6551-63.1231 54.9412-62.9426Q55.2272-62.7621 55.4639-62.3967L65.7949-51.8079Q66.3303-51.2103 66.2927-50.5197Q66.2552-49.8293 65.7949-49.2982L55.2018-38.2974Q54.8082-37.9079 54.369-37.9079Q53.743-37.9079 53.3803-38.3017Q53.0177-38.6954 53.0177-39.1927Q53.0177-39.9559 53.6153-40.5536L62.8598-49.8021Q60.2858-50.4634 56.3937-50.4634Q51.3541-50.4634 47.2931-48.0726Q43.2321-45.6816 40.8412-41.656Q38.4504-37.6304 38.4504-32.6575Q38.4504-27.6179 40.8412-23.5237Q43.2321-19.4294 47.2931-17.0385Q51.3541-14.6476 56.3937-14.6476Q61.3666-14.6476 65.4276-17.0385Q69.4886-19.4294 71.8484-23.5237Q74.2082-27.6179 74.2082-32.6575Q74.2082-33.1461 74.5935-33.5335Q74.9787-33.9209 75.5339-33.9209Q76.0269-33.9209 76.4122-33.5335Q76.7975-33.1461 76.7975-32.6575Q76.7975-26.8969 74.1127-22.2601Q71.4277-17.6233 66.7577-14.8741Q62.0876-12.1248 56.3937-12.1248Q50.6375-12.1248 46.0318-14.8741Q41.4261-17.6233 38.6747-22.2559Q35.9234-26.8884 35.9234-32.6405Z"/>
  </g>
  <g id="Black-S" transform="matrix(1 0 0 1 2884.32 696)">
   <path class="multicolor-0:white hierarchical-0:tertiary SFSymbolsPreviewFFFFFF" d="M49.0781 7.08594Q57.7695 7.08594 65.3623 3.81445Q72.9551 0.542969 78.7412-5.24316Q84.5273-11.0293 87.7988-18.6221Q91.0703-26.2148 91.0703-34.9062Q91.0703-43.5977 87.7988-51.1904Q84.5273-58.7832 78.7412-64.5693Q72.9551-70.3555 65.3623-73.627Q57.7695-76.8984 49.0781-76.8984Q40.3867-76.8984 32.7939-73.627Q25.2012-70.3555 19.415-64.5693Q13.6289-58.7832 10.3574-51.1904Q7.08594-43.5977 7.08594-34.9062Q7.08594-26.2148 10.3574-18.6221Q13.6289-11.0293 19.415-5.24316Q25.2012 0.542969 32.7939 3.81445Q40.3867 7.08594 49.0781 7.08594Z"/>
   <path class="multicolor-1:black hierarchical-1:primary SFSymbolsPreview000000" d="M31.3047-33.1484Q31.3047-37.3965 33.1113-41.0586Q34.918-44.7207 37.9941-47.2598Q41.0703-49.7988 44.9277-50.5312Q45.123-50.5801 45.3184-50.6045Q45.5137-50.6289 45.709-50.6777L45.4648-51.0195Q45.1719-51.5078 44.8301-52.0449Q44.4883-52.582 44.4883-53.5586Q44.4883-54.8281 45.5137-56Q46.5391-57.1719 48.541-57.1719Q49.5176-57.1719 50.3232-56.708Q51.1289-56.2441 51.7148-55.6582L58.3555-48.9688Q59.5273-47.7969 59.5518-46.0635Q59.5762-44.3301 58.3066-43.1094L51.666-36.3711Q50.543-35.1504 48.6875-35.1504Q46.9785-35.1504 45.7822-36.1514Q44.5859-37.1523 44.5859-39.1055Q44.5859-40.375 44.9277-40.9121L45.0742-41.2539Q44.5371-40.9121 44.0977-40.7656Q42.9258-40.3262 42.0225-39.1543Q41.1191-37.9824 40.6064-36.4199Q40.0938-34.8574 40.0938-33.1484Q40.0938-30.707 41.29-28.6562Q42.4863-26.6055 44.5371-25.3848Q46.5879-24.1641 49.0781-24.1641Q51.5684-24.1641 53.5947-25.3604Q55.6211-26.5566 56.8418-28.6074Q58.0625-30.6582 58.0625-33.1484Q58.0625-35.0039 59.3564-36.2734Q60.6504-37.543 62.5059-37.543Q64.3125-37.543 65.582-36.2734Q66.8516-35.0039 66.8516-33.1484Q66.8516-28.2656 64.4346-24.2129Q62.0176-20.1602 57.9893-17.7432Q53.9609-15.3262 49.0781-15.3262Q44.1953-15.3262 40.167-17.7432Q36.1387-20.1602 33.7217-24.2129Q31.3047-28.2656 31.3047-33.1484Z"/>
  </g>
  <g id="Heavy-S" transform="matrix(1 0 0 1 2588.21 696)">
   <path class="multicolor-0:white hierarchical-0:tertiary SFSymbolsPreviewFFFFFF" d="M48.4673 6.46362Q57.0204 6.46362 64.5037 3.23823Q71.987 0.0128447 77.6925-5.69838Q83.3979-11.4096 86.6291-18.8929Q89.8602-26.3761 89.8602-34.9177Q89.8602-43.4594 86.6291-50.9426Q83.3979-58.4259 77.6867-64.1371Q71.9755-69.8484 64.4922-73.0738Q57.0089-76.2991 48.4558-76.2991Q39.9142-76.2991 32.4309-73.0738Q24.9477-69.8484 19.2479-64.1371Q13.5482-58.4259 10.3171-50.9426Q7.08594-43.4594 7.08594-34.9177Q7.08594-26.3761 10.3171-18.8929Q13.5482-11.4096 19.2537-5.69838Q24.9592 0.0128447 32.4424 3.23823Q39.9257 6.46362 48.4673 6.46362Z"/>
   <path class="multicolor-1:black hierarchical-1:primary SFSymbolsPreview000000" d="M30.6593-33.1484Q30.6593-37.5578 32.6042-41.2891Q34.5492-45.0203 37.8155-47.5133Q41.0818-50.0062 45.0775-50.5658Q45.2498-50.6031 45.4279-50.6218Q45.6059-50.6404 45.7782-50.6777L45.1191-51.4344Q44.8146-51.8881 44.5017-52.4252Q44.1887-52.9623 44.1887-53.8467Q44.1887-55.0932 45.1622-56.1844Q46.1357-57.2756 47.9533-57.2756Q48.8261-57.2756 49.5684-56.8693Q50.3107-56.4631 50.8389-55.9233L57.6755-49.0264Q58.7436-47.9467 58.7739-46.3286Q58.8041-44.7104 57.6382-43.5934L50.7901-36.6938Q49.7363-35.5538 48.0652-35.5538Q46.4714-35.5538 45.3673-36.5144Q44.2632-37.475 44.2632-39.2438Q44.2632-40.4902 44.7087-41.085L45.5582-42.0721Q45.0903-41.8225 44.6624-41.7106Q42.995-41.3749 41.6768-40.1051Q40.3585-38.8352 39.5923-37.0077Q38.8261-35.1801 38.8261-33.1023Q38.8261-30.465 40.1145-28.2701Q41.403-26.0754 43.5979-24.7682Q45.7927-23.4611 48.4673-23.4611Q51.142-23.4611 53.3181-24.7496Q55.4943-26.038 56.7957-28.2329Q58.0971-30.4277 58.0971-33.1023Q58.0971-34.8195 59.3045-36.0026Q60.5121-37.1857 62.2293-37.1857Q63.8976-37.1857 65.0865-36.0026Q66.2754-34.8195 66.2754-33.1023Q66.2754-28.208 63.8584-24.1495Q61.4414-20.091 57.4015-17.6683Q53.3616-15.2455 48.4673-15.2455Q43.5615-15.2455 39.5274-17.6683Q35.4933-20.091 33.0763-24.161Q30.6593-28.231 30.6593-33.1484Z"/>
  </g>
  <g id="Bold-S" transform="matrix(1 0 0 1 2292.18 696)">
   <path class="multicolor-0:white hierarchical-0:tertiary SFSymbolsPreviewFFFFFF" d="M47.7841 5.76758Q56.1826 5.76758 63.5434 2.59375Q70.9043-0.580075 76.5195-6.20752Q82.1347-11.8349 85.3208-19.1958Q88.5068-26.5566 88.5068-34.9306Q88.5068-43.3047 85.3208-50.6655Q82.1347-58.0264 76.5073-63.6538Q70.8799-69.2812 63.519-72.4551Q56.1582-75.6289 47.7597-75.6289Q39.3857-75.6289 32.0249-72.4551Q24.6641-69.2812 19.061-63.6538Q13.458-58.0264 10.272-50.6655Q7.08594-43.3047 7.08594-34.9306Q7.08594-26.5566 10.272-19.1958Q13.458-11.8349 19.0732-6.20752Q24.6885-0.580075 32.0493 2.59375Q39.4101 5.76758 47.7841 5.76758Z"/>
   <path class="multicolor-1:black hierarchical-1:primary SFSymbolsPreview000000" d="M29.9375-33.1484Q29.9375-37.7383 32.0371-41.5469Q34.1367-45.3555 37.6157-47.7969Q41.0947-50.2383 45.2451-50.6044Q45.3916-50.6289 45.5503-50.6411Q45.709-50.6533 45.8555-50.6777L44.7324-51.8984Q44.415-52.3135 44.1343-52.8505Q43.8535-53.3877 43.8535-54.1689Q43.8535-55.3897 44.769-56.3906Q45.6846-57.3916 47.2959-57.3916Q48.0527-57.3916 48.7241-57.0498Q49.3955-56.708 49.8593-56.2197L56.915-49.0909Q57.8671-48.1142 57.9038-46.625Q57.9404-45.1358 56.8906-44.1348L49.8105-37.0547Q48.834-36.0049 47.3691-36.0049Q45.9043-36.0049 44.9033-36.9205Q43.9023-37.8359 43.9023-39.3984Q43.9023-40.6192 44.4638-41.2783L46.0996-42.9873Q45.709-42.8408 45.2939-42.7675Q43.0723-42.5478 41.29-41.1684Q39.5078-39.7891 38.458-37.6651Q37.4082-35.541 37.4082-33.0508Q37.4082-30.1943 38.7998-27.8383Q40.1914-25.4825 42.5473-24.0786Q44.9033-22.6748 47.7841-22.6748Q50.665-22.6748 53.0088-24.0664Q55.3525-25.458 56.7441-27.8139Q58.1357-30.1699 58.1357-33.0508Q58.1357-34.6133 59.2465-35.6997Q60.3574-36.7861 61.9199-36.7861Q63.4336-36.7861 64.5322-35.6997Q65.6309-34.6133 65.6309-33.0508Q65.6309-28.1435 63.2139-24.0786Q60.7969-20.0137 56.7441-17.5845Q52.6914-15.1553 47.7841-15.1553Q42.8525-15.1553 38.812-17.5845Q34.7715-20.0137 32.3545-24.1031Q29.9375-28.1923 29.9375-33.1484Z"/>
  </g>
  <g id="Semibold-S" transform="matrix(1 0 0 1 1995.94 696)">
   <path class="multicolor-0:white hierarchical-0:tertiary SFSymbolsPreviewFFFFFF" d="M47.3132 5.2877Q55.605 5.2877 62.8814 2.14942Q70.1578-0.988864 75.7109-6.55855Q81.2639-12.1282 84.4188-19.4046Q87.5738-26.681 87.5738-34.9395Q87.5738-43.198 84.4188-50.4744Q81.2639-57.7509 75.6942-63.3206Q70.1245-68.8902 62.8481-72.0285Q55.5717-75.1668 47.2799-75.1668Q39.0214-75.1668 31.745-72.0285Q24.4686-68.8902 18.9321-63.3206Q13.3958-57.7509 10.2409-50.4744Q7.08594-43.198 7.08594-34.9395Q7.08594-26.681 10.2409-19.4046Q13.3958-12.1282 18.9488-6.55855Q24.5019-0.988864 31.7783 2.14942Q39.0547 5.2877 47.3132 5.2877Z"/>
   <path class="multicolor-1:black hierarchical-1:primary SFSymbolsPreview000000" d="M29.4398-33.1484Q29.4398-37.8627 31.6461-41.7246Q33.8524-45.5865 37.478-47.9924Q41.1036-50.3982 45.3606-50.6311Q45.4894-50.6467 45.6347-50.6544Q45.7801-50.6622 45.9088-50.6777L44.4658-52.2183Q44.1396-52.6067 43.881-53.1438Q43.6225-53.681 43.6225-54.3911Q43.6225-55.5941 44.498-56.5328Q45.3736-57.4716 46.8427-57.4716Q47.5195-57.4716 48.142-57.1742Q48.7645-56.8769 49.184-56.4241L56.3907-49.1353Q57.2629-48.2298 57.304-46.8294Q57.345-45.429 56.3752-44.508L49.1352-37.3035Q48.2119-36.3159 46.8893-36.3159Q45.5133-36.3159 44.5834-37.2004Q43.6535-38.0847 43.6535-39.5051Q43.6535-40.708 44.295-41.4116L46.4728-43.6183Q46.1356-43.5428 45.7294-43.4963Q43.1256-43.3565 41.0234-41.9016Q38.9213-40.4467 37.676-38.1183Q36.4307-35.7898 36.4307-33.0152Q36.4307-30.0077 37.8934-27.5407Q39.3561-25.0737 41.8231-23.6032Q44.2902-22.1327 47.3132-22.1327Q50.3362-22.1327 52.7955-23.5955Q55.2548-25.0581 56.7086-27.5251Q58.1624-29.9922 58.1624-33.0152Q58.1624-34.4711 59.2066-35.4909Q60.2508-36.5107 61.7067-36.5107Q63.1137-36.5107 64.1501-35.4909Q65.1866-34.4711 65.1866-33.0152Q65.1866-28.0991 62.7696-24.0297Q60.3526-19.9604 56.2909-17.5267Q52.2293-15.0931 47.3132-15.0931Q42.3638-15.0931 38.3188-17.5267Q34.2738-19.9604 31.8568-24.0631Q29.4398-28.1657 29.4398-33.1484Z"/>
  </g>
  <g id="Medium-S" transform="matrix(1 0 0 1 1699.58 696)">
   <path class="multicolor-0:white hierarchical-0:tertiary SFSymbolsPreviewFFFFFF" d="M46.956 4.92383Q55.167 4.92383 62.3794 1.8125Q69.5918-1.29882 75.0977-6.82471Q80.6035-12.3506 83.7349-19.563Q86.8662-26.7754 86.8662-34.9463Q86.8662-43.1172 83.7349-50.3296Q80.6035-57.542 75.0776-63.0679Q69.5518-68.5937 62.3394-71.7051Q55.127-74.8164 46.916-74.8164Q38.7451-74.8164 31.5327-71.7051Q24.3204-68.5937 18.8344-63.0679Q13.3486-57.542 10.2173-50.3296Q7.08594-43.1172 7.08594-34.9463Q7.08594-26.7754 10.2173-19.563Q13.3486-12.3506 18.8544-6.82471Q24.3604-1.29882 31.5728 1.8125Q38.7852 4.92383 46.956 4.92383Z"/>
   <path class="multicolor-1:black hierarchical-1:primary SFSymbolsPreview000000" d="M29.0625-33.1484Q29.0625-37.9571 31.3496-41.8594Q33.6367-45.7617 37.3735-48.1406Q41.1103-50.5195 45.4482-50.6513Q45.5635-50.6601 45.6987-50.6645Q45.834-50.6689 45.9493-50.6777L44.2637-52.4609Q43.9307-52.8291 43.689-53.3662Q43.4473-53.9033 43.4473-54.5596Q43.4473-55.749 44.2925-56.6406Q45.1377-57.5322 46.499-57.5322Q47.1152-57.5322 47.7007-57.2686Q48.2861-57.0049 48.6719-56.5791L55.9932-49.169Q56.8047-48.3174 56.8492-46.9844Q56.8936-45.6514 55.9844-44.7911L48.6231-37.4922Q47.7402-36.5518 46.5254-36.5518Q45.2168-36.5518 44.3408-37.4126Q43.4649-38.2734 43.4649-39.5859Q43.4649-40.7754 44.167-41.5127L46.7559-44.0967Q46.459-44.0752 46.0595-44.0488Q43.1661-43.9697 40.8213-42.4575Q38.4766-40.9453 37.083-38.4619Q35.6895-35.9785 35.6895-32.9883Q35.6895-29.8662 37.2061-27.3149Q38.7227-24.7637 41.2739-23.2427Q43.8252-21.7216 46.956-21.7216Q50.0869-21.7216 52.6338-23.2383Q55.1807-24.7549 56.6817-27.3061Q58.1826-29.8574 58.1826-32.9883Q58.1826-34.3633 59.1762-35.3325Q60.17-36.3018 61.5449-36.3018Q62.8711-36.3018 63.8603-35.3325Q64.8497-34.3633 64.8497-32.9883Q64.8497-28.0654 62.4327-23.9926Q60.0157-19.9199 55.9473-17.4829Q51.8789-15.0459 46.956-15.0459Q41.9932-15.0459 37.9448-17.4829Q33.8965-19.9199 31.4795-24.0327Q29.0625-28.1455 29.0625-33.1484Z"/>
  </g>
  <g id="Regular-S" transform="matrix(1 0 0 1 1403.33 696)">
   <path class="multicolor-0:white hierarchical-0:tertiary SFSymbolsPreviewFFFFFF" d="M46.4902 4.44922Q54.5957 4.44922 61.7246 1.37305Q68.8535-1.70312 74.2979-7.17188Q79.7422-12.6406 82.8428-19.7695Q85.9434-26.8984 85.9434-34.9551Q85.9434-43.0117 82.8428-50.1406Q79.7422-57.2695 74.2734-62.7383Q68.8047-68.207 61.6758-71.2832Q54.5469-74.3594 46.4414-74.3594Q38.3848-74.3594 31.2559-71.2832Q24.127-68.207 18.707-62.7383Q13.2871-57.2695 10.1865-50.1406Q7.08594-43.0117 7.08594-34.9551Q7.08594-26.8984 10.1865-19.7695Q13.2871-12.6406 18.7314-7.17188Q24.1758-1.70312 31.3047 1.37305Q38.4336 4.44922 46.4902 4.44922Z"/>
   <path class="multicolor-1:black hierarchical-1:primary SFSymbolsPreview000000" d="M28.5703-33.1484Q28.5703-38.0801 30.9629-42.0352Q33.3555-45.9902 37.2373-48.334Q41.1191-50.6777 45.5625-50.6777Q45.6602-50.6777 45.7822-50.6777Q45.9043-50.6777 46.002-50.6777L44-52.7773Q43.6582-53.1191 43.4385-53.6562Q43.2188-54.1934 43.2188-54.7793Q43.2188-55.9512 44.0244-56.7812Q44.8301-57.6113 46.0508-57.6113Q46.5879-57.6113 47.125-57.3916Q47.6621-57.1719 48.0039-56.7812L55.4746-49.2129Q56.207-48.4316 56.2559-47.1865Q56.3047-45.9414 55.4746-45.1602L47.9551-37.7383Q47.125-36.8594 46.0508-36.8594Q44.8301-36.8594 44.0244-37.6895Q43.2188-38.5195 43.2188-39.6914Q43.2188-40.8633 44-41.6445L47.125-44.7207Q46.8809-44.7695 46.4902-44.7695Q43.2188-44.7695 40.5576-43.1826Q37.8965-41.5957 36.3096-38.9102Q34.7227-36.2246 34.7227-32.9531Q34.7227-29.6816 36.3096-27.0205Q37.8965-24.3594 40.5576-22.7725Q43.2188-21.1855 46.4902-21.1855Q49.7617-21.1855 52.4229-22.7725Q55.084-24.3594 56.6465-27.0205Q58.209-29.6816 58.209-32.9531Q58.209-34.2227 59.1367-35.126Q60.0645-36.0293 61.334-36.0293Q62.5547-36.0293 63.4824-35.126Q64.4102-34.2227 64.4102-32.9531Q64.4102-28.0215 61.9932-23.9443Q59.5762-19.8672 55.499-17.4258Q51.4219-14.9844 46.4902-14.9844Q41.5098-14.9844 37.457-17.4258Q33.4043-19.8672 30.9873-23.9932Q28.5703-28.1191 28.5703-33.1484Z"/>
  </g>
  <g id="Light-S" transform="matrix(1 0 0 1 1107.35 696)">
   <path class="multicolor-0:white hierarchical-0:tertiary SFSymbolsPreviewFFFFFF" d="M45.7578 3.7168Q53.7331 3.7168 60.7236 0.705731Q67.7142-2.30534 73.0609-7.6683Q78.4076-13.0312 81.4431-20.0218Q84.4785-27.0123 84.4785-34.9551Q84.4785-42.8978 81.4431-49.8883Q78.4076-56.8789 73.0446-62.2419Q67.6816-67.6048 60.6911-70.6159Q53.7005-73.627 45.7253-73.627Q37.7989-73.627 30.8002-70.6159Q23.8015-67.6048 18.4791-62.2419Q13.1569-56.8789 10.1214-49.8883Q7.08594-42.8978 7.08594-34.9551Q7.08594-27.0123 10.1214-20.0218Q13.1569-13.0312 18.4954-7.6683Q23.834-2.30534 30.8327 0.705731Q37.8314 3.7168 45.7578 3.7168Z"/>
   <path class="multicolor-1:black hierarchical-1:primary SFSymbolsPreview000000" d="M28.4401-33.1647Q28.4401-37.9662 30.7594-41.8155Q33.0788-45.6647 36.8792-47.9271Q40.6797-50.1894 45.1393-50.1894Q45.5463-50.1894 45.945-50.1569Q46.3438-50.1243 46.6856-50.0918L43.3164-53.5423Q43.0072-53.8515 42.8444-54.2828Q42.6817-54.7142 42.6817-55.1699Q42.6817-56.114 43.3245-56.7812Q43.9675-57.4485 44.9603-57.4485Q45.416-57.4485 45.8555-57.2533Q46.2949-57.058 46.5879-56.6998L54.2539-48.9037Q54.8887-48.22 54.9131-47.1946Q54.9375-46.1693 54.2539-45.502L46.4902-37.7057Q45.8229-37.0059 44.9766-37.0059Q43.9837-37.0059 43.3408-37.6732Q42.6979-38.3405 42.6979-39.2682Q42.6979-40.2611 43.3815-40.9446L47.7923-45.3229Q46.9948-45.5182 45.7741-45.5182Q42.291-45.5182 39.4671-43.8418Q36.6432-42.1654 34.9668-39.3334Q33.2904-36.5013 33.2904-33.0345Q33.2904-29.5514 34.9668-26.7194Q36.6432-23.8874 39.4671-22.211Q42.291-20.5345 45.7741-20.5345Q49.2409-20.5345 52.0648-22.211Q54.8887-23.8874 56.5407-26.7194Q58.1927-29.5514 58.1927-33.0345Q58.1927-34.0274 58.9251-34.7435Q59.6576-35.4596 60.6667-35.4596Q61.627-35.4596 62.3594-34.7435Q63.0918-34.0274 63.0918-33.0345Q63.0918-28.2331 60.7725-24.2942Q58.4531-20.3555 54.5062-18.0036Q50.5593-15.6517 45.7741-15.6517Q40.9401-15.6517 37.0257-18.0036Q33.1113-20.3555 30.7757-24.3268Q28.4401-28.2981 28.4401-33.1647Z"/>
  </g>
  <g id="Thin-S" transform="matrix(1 0 0 1 811.609 696)">
   <path class="multicolor-0:white hierarchical-0:tertiary SFSymbolsPreviewFFFFFF" d="M44.7891 2.74811Q52.5922 2.74811 59.3998-0.176851Q66.2073-3.10182 71.4249-8.32485Q76.6424-13.5479 79.5918-20.3555Q82.5411-27.163 82.5411-34.9551Q82.5411-42.7471 79.5918-49.5547Q76.6424-56.3623 71.4193-61.5853Q66.1963-66.8083 59.3888-69.7333Q52.5811-72.6583 44.7781-72.6583Q37.0239-72.6583 30.1974-69.7333Q23.3709-66.8083 18.1778-61.5853Q12.9847-56.3623 10.0353-49.5547Q7.08594-42.7471 7.08594-34.9551Q7.08594-27.163 10.0353-20.3555Q12.9847-13.5479 18.1833-8.32485Q23.3819-3.10182 30.2084-0.176851Q37.0349 2.74811 44.7891 2.74811Z"/>
   <path class="multicolor-1:black hierarchical-1:primary SFSymbolsPreview000000" d="M28.2679-33.1863Q28.2679-37.8155 30.4903-41.5249Q32.7128-45.2342 36.4057-47.3889Q40.0985-49.5437 44.5797-49.5437Q45.3956-49.5437 46.1602-49.468Q46.925-49.3925 47.5896-49.3168L42.4123-54.5541Q42.1461-54.8202 42.0587-55.1116Q41.9713-55.4031 41.9713-55.6866Q41.9713-56.3292 42.3989-56.7812Q42.8266-57.2333 43.518-57.2333Q43.8661-57.2333 44.1764-57.0703Q44.4867-56.9073 44.7151-56.5922L52.6394-48.4947Q53.1451-47.9402 53.1371-47.2054Q53.1293-46.4706 52.6394-45.954L44.5528-37.6627Q44.1008-37.1996 43.5558-37.1996Q42.8643-37.1996 42.4367-37.6516Q42.009-38.1037 42.009-38.7086Q42.009-39.4646 42.5635-40.019L48.6749-46.1194Q47.1455-46.5084 44.8269-46.5084Q41.064-46.5084 38.0248-44.7136Q34.9857-42.9188 33.1908-39.893Q31.3961-36.8673 31.3961-33.1422Q31.3961-29.3792 33.1908-26.3212Q34.9857-23.2631 38.0248-21.4683Q41.064-19.6734 44.8269-19.6734Q48.552-19.6734 51.5912-21.4683Q54.6303-23.2631 56.4008-26.3212Q58.1712-29.3792 58.1712-33.1422Q58.1712-33.769 58.6453-34.2376Q59.1194-34.7062 59.7841-34.7062Q60.4-34.7062 60.8741-34.2376Q61.3482-33.769 61.3482-33.1422Q61.3482-28.5129 59.158-24.757Q56.9678-21.0012 53.1931-18.7678Q49.4184-16.5343 44.8269-16.5343Q40.1867-16.5343 36.4553-18.7678Q32.7239-21.0012 30.4958-24.7681Q28.2679-28.5349 28.2679-33.1863Z"/>
  </g>
  <g id="Ultralight-S" transform="matrix(1 0 0 1 515.394 696)">
   <path class="multicolor-0:white hierarchical-0:tertiary SFSymbolsPreviewFFFFFF" d="M44.293 2.25195Q52.0078 2.25195 58.7217-0.628906Q65.4355-3.50977 70.5869-8.66113Q75.7383-13.8125 78.6436-20.5264Q81.5488-27.2402 81.5488-34.9551Q81.5488-42.6699 78.6436-49.3838Q75.7383-56.0977 70.5869-61.249Q65.4355-66.4004 58.7217-69.2812Q52.0078-72.1621 44.293-72.1621Q36.627-72.1621 29.8887-69.2812Q23.1504-66.4004 18.0234-61.249Q12.8965-56.0977 9.99121-49.3838Q7.08594-42.6699 7.08594-34.9551Q7.08594-27.2402 9.99121-20.5264Q12.8965-13.8125 18.0234-8.66113Q23.1504-3.50977 29.8887-0.628906Q36.627 2.25195 44.293 2.25195Z"/>
   <path class="multicolor-1:black hierarchical-1:primary SFSymbolsPreview000000" d="M28.1797-33.1973Q28.1797-37.7383 30.3525-41.376Q32.5254-45.0137 36.1631-47.1133Q39.8008-49.2129 44.293-49.2129Q45.3184-49.2129 46.2705-49.1152Q47.2227-49.0176 48.0527-48.9199L41.9492-55.0723Q41.7051-55.3164 41.6562-55.5361Q41.6074-55.7559 41.6074-55.9512Q41.6074-56.4395 41.9248-56.7812Q42.2422-57.123 42.7793-57.123Q43.0723-57.123 43.3164-56.9766Q43.5605-56.8301 43.7559-56.5371L51.8125-48.2852Q52.252-47.7969 52.2275-47.2109Q52.2031-46.625 51.8125-46.1855L43.5605-37.6406Q43.2188-37.2988 42.8281-37.2988Q42.291-37.2988 41.9736-37.6406Q41.6562-37.9824 41.6562-38.4219Q41.6562-39.0566 42.1445-39.5449L49.127-46.5273Q47.2227-47.0156 44.3418-47.0156Q40.4355-47.0156 37.2861-45.1602Q34.1367-43.3047 32.2812-40.1797Q30.4258-37.0547 30.4258-33.1973Q30.4258-29.291 32.2812-26.1172Q34.1367-22.9434 37.2861-21.0879Q40.4355-19.2324 44.3418-19.2324Q48.1992-19.2324 51.3486-21.0879Q54.498-22.9434 56.3291-26.1172Q58.1602-29.291 58.1602-33.1973Q58.1602-33.6367 58.502-33.9785Q58.8438-34.3203 59.332-34.3203Q59.7715-34.3203 60.1133-33.9785Q60.4551-33.6367 60.4551-33.1973Q60.4551-28.6562 58.3311-24.9941Q56.207-21.332 52.5205-19.1592Q48.834-16.9863 44.3418-16.9863Q39.8008-16.9863 36.1631-19.1592Q32.5254-21.332 30.3525-24.9941Q28.1797-28.6562 28.1797-33.1973Z"/>
  </g>
 </g>
</svg>
