<?xml version="1.0" encoding="UTF-8"?>
<!--Generator: Apple Native CoreSVG 149-->
<!DOCTYPE svg
PUBLIC "-//W3C//DTD SVG 1.1//EN"
       "http://www.w3.org/Graphics/SVG/1.1/DTD/svg11.dtd">
<svg version="1.1" xmlns="http://www.w3.org/2000/svg" xmlns:xlink="http://www.w3.org/1999/xlink" width="3300" height="2200">
 <!--glyph: "", point size: 100.0, font version: "17.0d9e1", template writer version: "59"-->
 <g id="Notes">
  <rect height="2200" id="artboard" style="fill:white;opacity:1" width="3300" x="0" y="0"/>
  <line style="fill:none;stroke:black;opacity:1;stroke-width:0.5;" x1="263" x2="3036" y1="292" y2="292"/>
  <text style="stroke:none;fill:black;font-family:sans-serif;font-size:13;font-weight:bold;" transform="matrix(1 0 0 1 263 322)">Weight/Scale Variations</text>
  <text style="stroke:none;fill:black;font-family:sans-serif;font-size:13;text-anchor:middle;" transform="matrix(1 0 0 1 559.711 322)">Ultralight</text>
  <text style="stroke:none;fill:black;font-family:sans-serif;font-size:13;text-anchor:middle;" transform="matrix(1 0 0 1 856.422 322)">Thin</text>
  <text style="stroke:none;fill:black;font-family:sans-serif;font-size:13;text-anchor:middle;" transform="matrix(1 0 0 1 1153.13 322)">Light</text>
  <text style="stroke:none;fill:black;font-family:sans-serif;font-size:13;text-anchor:middle;" transform="matrix(1 0 0 1 1449.84 322)">Regular</text>
  <text style="stroke:none;fill:black;font-family:sans-serif;font-size:13;text-anchor:middle;" transform="matrix(1 0 0 1 1746.56 322)">Medium</text>
  <text style="stroke:none;fill:black;font-family:sans-serif;font-size:13;text-anchor:middle;" transform="matrix(1 0 0 1 2043.27 322)">Semibold</text>
  <text style="stroke:none;fill:black;font-family:sans-serif;font-size:13;text-anchor:middle;" transform="matrix(1 0 0 1 2339.98 322)">Bold</text>
  <text style="stroke:none;fill:black;font-family:sans-serif;font-size:13;text-anchor:middle;" transform="matrix(1 0 0 1 2636.69 322)">Heavy</text>
  <text style="stroke:none;fill:black;font-family:sans-serif;font-size:13;text-anchor:middle;" transform="matrix(1 0 0 1 2933.4 322)">Black</text>
  <line style="fill:none;stroke:black;opacity:1;stroke-width:0.5;" x1="263" x2="3036" y1="1903" y2="1903"/>
  <g transform="matrix(1 0 0 1 263 1933)">
   <path d="M9.24805 0.830078Q10.8691 0.830078 12.2949 0.214844Q13.7207-0.400391 14.8096-1.49414Q15.8984-2.58789 16.5186-4.01367Q17.1387-5.43945 17.1387-7.05078Q17.1387-8.66211 16.5186-10.0879Q15.8984-11.5137 14.8047-12.6074Q13.7109-13.7012 12.2852-14.3164Q10.8594-14.9316 9.23828-14.9316Q7.62695-14.9316 6.20117-14.3164Q4.77539-13.7012 3.69141-12.6074Q2.60742-11.5137 1.9873-10.0879Q1.36719-8.66211 1.36719-7.05078Q1.36719-5.43945 1.9873-4.01367Q2.60742-2.58789 3.69629-1.49414Q4.78516-0.400391 6.21094 0.214844Q7.63672 0.830078 9.24805 0.830078ZM9.24805-0.654297Q7.91992-0.654297 6.7627-1.14746Q5.60547-1.64062 4.73145-2.51953Q3.85742-3.39844 3.36426-4.56055Q2.87109-5.72266 2.87109-7.05078Q2.87109-8.37891 3.35938-9.54102Q3.84766-10.7031 4.72168-11.582Q5.5957-12.4609 6.75293-12.9541Q7.91016-13.4473 9.23828-13.4473Q10.5762-13.4473 11.7334-12.9541Q12.8906-12.4609 13.7695-11.582Q14.6484-10.7031 15.1465-9.54102Q15.6445-8.37891 15.6445-7.05078Q15.6445-5.72266 15.1514-4.56055Q14.6582-3.39844 13.7842-2.51953Q12.9102-1.64062 11.748-1.14746Q10.5859-0.654297 9.24805-0.654297ZM5.83984-7.04102Q5.83984-6.71875 6.04492-6.51855Q6.25-6.31836 6.5918-6.31836L8.50586-6.31836L8.50586-4.39453Q8.50586-4.0625 8.70605-3.85742Q8.90625-3.65234 9.22852-3.65234Q9.56055-3.65234 9.76562-3.85742Q9.9707-4.0625 9.9707-4.39453L9.9707-6.31836L11.8945-6.31836Q12.2266-6.31836 12.4316-6.51855Q12.6367-6.71875 12.6367-7.04102Q12.6367-7.37305 12.4316-7.57812Q12.2266-7.7832 11.8945-7.7832L9.9707-7.7832L9.9707-9.69727Q9.9707-10.0391 9.76562-10.2441Q9.56055-10.4492 9.22852-10.4492Q8.90625-10.4492 8.70605-10.2441Q8.50586-10.0391 8.50586-9.69727L8.50586-7.7832L6.5918-7.7832Q6.25-7.7832 6.04492-7.57812Q5.83984-7.37305 5.83984-7.04102Z"/>
  </g>
  <g transform="matrix(1 0 0 1 281.867 1933)">
   <path d="M11.709 2.91016Q13.75 2.91016 15.5518 2.12891Q17.3535 1.34766 18.7305-0.0292969Q20.1074-1.40625 20.8887-3.20801Q21.6699-5.00977 21.6699-7.05078Q21.6699-9.0918 20.8887-10.8936Q20.1074-12.6953 18.7305-14.0723Q17.3535-15.4492 15.5469-16.2305Q13.7402-17.0117 11.6992-17.0117Q9.6582-17.0117 7.85645-16.2305Q6.05469-15.4492 4.68262-14.0723Q3.31055-12.6953 2.5293-10.8936Q1.74805-9.0918 1.74805-7.05078Q1.74805-5.00977 2.5293-3.20801Q3.31055-1.40625 4.6875-0.0292969Q6.06445 1.34766 7.86621 2.12891Q9.66797 2.91016 11.709 2.91016ZM11.709 1.25Q9.98047 1.25 8.47656 0.605469Q6.97266-0.0390625 5.83496-1.17676Q4.69727-2.31445 4.05762-3.81836Q3.41797-5.32227 3.41797-7.05078Q3.41797-8.7793 4.05762-10.2832Q4.69727-11.7871 5.83008-12.9297Q6.96289-14.0723 8.4668-14.7119Q9.9707-15.3516 11.6992-15.3516Q13.4277-15.3516 14.9316-14.7119Q16.4355-14.0723 17.5781-12.9297Q18.7207-11.7871 19.3652-10.2832Q20.0098-8.7793 20.0098-7.05078Q20.0098-5.32227 19.3701-3.81836Q18.7305-2.31445 17.5928-1.17676Q16.4551-0.0390625 14.9463 0.605469Q13.4375 1.25 11.709 1.25ZM7.39258-7.04102Q7.39258-6.68945 7.62695-6.46484Q7.86133-6.24023 8.23242-6.24023L10.8789-6.24023L10.8789-3.57422Q10.8789-3.21289 11.1035-2.9834Q11.3281-2.75391 11.6797-2.75391Q12.0508-2.75391 12.2852-2.9834Q12.5195-3.21289 12.5195-3.57422L12.5195-6.24023L15.1758-6.24023Q15.5371-6.24023 15.7715-6.46484Q16.0059-6.68945 16.0059-7.04102Q16.0059-7.41211 15.7715-7.6416Q15.5371-7.87109 15.1758-7.87109L12.5195-7.87109L12.5195-10.5176Q12.5195-10.8984 12.2852-11.1279Q12.0508-11.3574 11.6797-11.3574Q11.3281-11.3574 11.1035-11.1279Q10.8789-10.8984 10.8789-10.5176L10.8789-7.87109L8.23242-7.87109Q7.85156-7.87109 7.62207-7.6416Q7.39258-7.41211 7.39258-7.04102Z"/>
  </g>
  <g transform="matrix(1 0 0 1 305.646 1933)">
   <path d="M14.9707 5.66406Q17.0605 5.66406 18.96 5.01465Q20.8594 4.36523 22.4512 3.19336Q24.043 2.02148 25.2197 0.429688Q26.3965-1.16211 27.0459-3.06641Q27.6953-4.9707 27.6953-7.05078Q27.6953-9.14062 27.0459-11.04Q26.3965-12.9395 25.2197-14.5312Q24.043-16.123 22.4512-17.2998Q20.8594-18.4766 18.9551-19.126Q17.0508-19.7754 14.9609-19.7754Q12.8711-19.7754 10.9717-19.126Q9.07227-18.4766 7.48535-17.2998Q5.89844-16.123 4.72168-14.5312Q3.54492-12.9395 2.90039-11.04Q2.25586-9.14062 2.25586-7.05078Q2.25586-4.9707 2.90527-3.06641Q3.55469-1.16211 4.72656 0.429688Q5.89844 2.02148 7.49023 3.19336Q9.08203 4.36523 10.9814 5.01465Q12.8809 5.66406 14.9707 5.66406ZM14.9707 3.84766Q13.1641 3.84766 11.5283 3.2959Q9.89258 2.74414 8.53516 1.74805Q7.17773 0.751953 6.17676-0.610352Q5.17578-1.97266 4.62891-3.6084Q4.08203-5.24414 4.08203-7.05078Q4.08203-8.86719 4.62891-10.5029Q5.17578-12.1387 6.17188-13.501Q7.16797-14.8633 8.52539-15.8594Q9.88281-16.8555 11.5186-17.4023Q13.1543-17.9492 14.9609-17.9492Q16.7773-17.9492 18.4131-17.4023Q20.0488-16.8555 21.4111-15.8594Q22.7734-14.8633 23.7695-13.501Q24.7656-12.1387 25.3174-10.5029Q25.8691-8.86719 25.8691-7.05078Q25.8789-5.24414 25.332-3.6084Q24.7852-1.97266 23.7842-0.610352Q22.7832 0.751953 21.4209 1.74805Q20.0586 2.74414 18.4229 3.2959Q16.7871 3.84766 14.9707 3.84766ZM9.45312-7.04102Q9.45312-6.66016 9.71191-6.41113Q9.9707-6.16211 10.3711-6.16211L14.0625-6.16211L14.0625-2.46094Q14.0625-2.06055 14.3115-1.80664Q14.5605-1.55273 14.9414-1.55273Q15.3516-1.55273 15.6055-1.80664Q15.8594-2.06055 15.8594-2.46094L15.8594-6.16211L19.5605-6.16211Q19.9609-6.16211 20.2148-6.41113Q20.4688-6.66016 20.4688-7.04102Q20.4688-7.45117 20.2148-7.70508Q19.9609-7.95898 19.5605-7.95898L15.8594-7.95898L15.8594-11.6504Q15.8594-12.0605 15.6055-12.3145Q15.3516-12.5684 14.9414-12.5684Q14.5605-12.5684 14.3115-12.3096Q14.0625-12.0508 14.0625-11.6504L14.0625-7.95898L10.3711-7.95898Q9.96094-7.95898 9.70703-7.70508Q9.45312-7.45117 9.45312-7.04102Z"/>
  </g>
  <text style="stroke:none;fill:black;font-family:sans-serif;font-size:13;font-weight:bold;" transform="matrix(1 0 0 1 263 1953)">Design Variations</text>
  <text style="stroke:none;fill:black;font-family:sans-serif;font-size:13;" transform="matrix(1 0 0 1 263 1971)">Symbols are supported in up to nine weights and three scales.</text>
  <text style="stroke:none;fill:black;font-family:sans-serif;font-size:13;" transform="matrix(1 0 0 1 263 1989)">For optimal layout with text and other symbols, vertically align</text>
  <text style="stroke:none;fill:black;font-family:sans-serif;font-size:13;" transform="matrix(1 0 0 1 263 2007)">symbols with the adjacent text.</text>
  <line style="fill:none;stroke:#00AEEF;stroke-width:0.5;opacity:1.0;" x1="776" x2="776" y1="1919" y2="1933"/>
  <g transform="matrix(1 0 0 1 776 1933)">
   <path d="M3.31055 0.15625Q3.70117 0.15625 3.91602-0.00976562Q4.13086-0.175781 4.26758-0.585938L5.52734-4.0332L11.2891-4.0332L12.5488-0.585938Q12.6855-0.175781 12.9004-0.00976562Q13.1152 0.15625 13.4961 0.15625Q13.8867 0.15625 14.1162-0.0585938Q14.3457-0.273438 14.3457-0.644531Q14.3457-0.869141 14.2383-1.17188L9.6582-13.3691Q9.48242-13.8184 9.17969-14.043Q8.87695-14.2676 8.4082-14.2676Q7.5-14.2676 7.17773-13.3789L2.59766-1.16211Q2.49023-0.859375 2.49023-0.634766Q2.49023-0.263672 2.70996-0.0537109Q2.92969 0.15625 3.31055 0.15625ZM6.00586-5.51758L8.37891-12.0898L8.42773-12.0898L10.8008-5.51758Z"/>
  </g>
  <line style="fill:none;stroke:#00AEEF;stroke-width:0.5;opacity:1.0;" x1="793.197" x2="793.197" y1="1919" y2="1933"/>
  <text style="stroke:none;fill:black;font-family:sans-serif;font-size:13;font-weight:bold;" transform="matrix(1 0 0 1 776 1953)">Margins</text>
  <text style="stroke:none;fill:black;font-family:sans-serif;font-size:13;" transform="matrix(1 0 0 1 776 1971)">Leading and trailing margins on the left and right side of each symbol</text>
  <text style="stroke:none;fill:black;font-family:sans-serif;font-size:13;" transform="matrix(1 0 0 1 776 1989)">can be adjusted by modifying the x-location of the margin guidelines.</text>
  <text style="stroke:none;fill:black;font-family:sans-serif;font-size:13;" transform="matrix(1 0 0 1 776 2007)">Modifications are automatically applied proportionally to all</text>
  <text style="stroke:none;fill:black;font-family:sans-serif;font-size:13;" transform="matrix(1 0 0 1 776 2025)">scales and weights.</text>
  <g transform="matrix(1 0 0 1 1289 1933)">
   <path d="M2.8418 1.86523L4.54102 3.57422Q5.18555 4.22852 5.90332 4.17969Q6.62109 4.13086 7.31445 3.35938L18.0078-8.42773L17.041-9.4043L6.42578 2.27539Q6.16211 2.57812 5.89355 2.61719Q5.625 2.65625 5.27344 2.30469L4.10156 1.14258Q3.75 0.791016 3.79395 0.522461Q3.83789 0.253906 4.14062-0.0195312L15.6152-10.8203L14.6387-11.7871L3.04688-0.898438Q2.30469-0.214844 2.25098 0.498047Q2.19727 1.21094 2.8418 1.86523ZM9.25781-16.3281Q8.94531-16.0254 8.90625-15.6348Q8.86719-15.2441 9.04297-14.9512Q9.21875-14.6777 9.55566-14.541Q9.89258-14.4043 10.3809-14.5215Q11.4746-14.7754 12.5977-14.7314Q13.7207-14.6875 14.7949-13.9844L14.209-12.5293Q13.9551-11.9043 14.0674-11.4404Q14.1797-10.9766 14.5801-10.5664L16.875-8.25195Q17.2363-7.88086 17.5781-7.82227Q17.9199-7.76367 18.3398-7.8418L19.4043-8.03711L20.0684-7.36328L20.0293-6.80664Q20-6.43555 20.1221-6.12305Q20.2441-5.81055 20.6055-5.44922L21.3672-4.70703Q21.7285-4.3457 22.1533-4.33105Q22.5781-4.31641 22.9297-4.66797L25.8398-7.58789Q26.1914-7.93945 26.1816-8.35449Q26.1719-8.76953 25.8105-9.13086L25.0391-9.89258Q24.6875-10.2539 24.3799-10.3857Q24.0723-10.5176 23.7109-10.4883L23.1348-10.4395L22.4902-11.0742L22.7344-12.1973Q22.832-12.6172 22.6953-12.9834Q22.5586-13.3496 22.1191-13.7891L19.9219-15.9766Q18.6719-17.2168 17.2607-17.8369Q15.8496-18.457 14.4189-18.4814Q12.9883-18.5059 11.665-17.959Q10.3418-17.4121 9.25781-16.3281ZM10.752-15.957Q11.6602-16.6211 12.7002-16.9043Q13.7402-17.1875 14.8047-17.085Q15.8691-16.9824 16.8701-16.5137Q17.8711-16.0449 18.7012-15.2051L21.1328-12.793Q21.3086-12.6172 21.3525-12.4512Q21.3965-12.2852 21.3379-12.0312L21.0156-10.5469L22.5195-9.0625L23.5059-9.12109Q23.6914-9.13086 23.7891-9.09668Q23.8867-9.0625 24.0332-8.91602L24.6094-8.33984L22.168-5.89844L21.5918-6.47461Q21.4453-6.62109 21.4062-6.71875Q21.3672-6.81641 21.377-7.01172L21.4453-7.98828L19.9512-9.47266L18.4277-9.21875Q18.1836-9.16992 18.042-9.2041Q17.9004-9.23828 17.7148-9.41406L15.7129-11.416Q15.5176-11.5918 15.4932-11.7529Q15.4688-11.9141 15.5859-12.1875L16.4648-14.2773Q15.293-15.3711 13.8281-15.791Q12.3633-16.2109 10.8398-15.7617Q10.7227-15.7324 10.6885-15.8057Q10.6543-15.8789 10.752-15.957Z"/>
  </g>
  <text style="stroke:none;fill:black;font-family:sans-serif;font-size:13;font-weight:bold;" transform="matrix(1 0 0 1 1289 1953)">Exporting</text>
  <text style="stroke:none;fill:black;font-family:sans-serif;font-size:13;" transform="matrix(1 0 0 1 1289 1971)">Symbols should be outlined when exporting to ensure the</text>
  <text style="stroke:none;fill:black;font-family:sans-serif;font-size:13;" transform="matrix(1 0 0 1 1289 1989)">design is preserved when submitting to Xcode.</text>
  <text id="template-version" style="stroke:none;fill:black;font-family:sans-serif;font-size:13;text-anchor:end;" transform="matrix(1 0 0 1 3036 1933)">Template v.3.0</text>
  <text style="stroke:none;fill:black;font-family:sans-serif;font-size:13;text-anchor:end;" transform="matrix(1 0 0 1 3036 1951)">Requires Xcode 13 or greater</text>
  <text id="descriptive-name" style="stroke:none;fill:black;font-family:sans-serif;font-size:13;text-anchor:end;" transform="matrix(1 0 0 1 3036 1969)">Generated from twitter.fill</text>
  <text style="stroke:none;fill:black;font-family:sans-serif;font-size:13;text-anchor:end;" transform="matrix(1 0 0 1 3036 1987)">Typeset at 100 points</text>
  <text style="stroke:none;fill:black;font-family:sans-serif;font-size:13;" transform="matrix(1 0 0 1 263 726)">Small</text>
  <text style="stroke:none;fill:black;font-family:sans-serif;font-size:13;" transform="matrix(1 0 0 1 263 1156)">Medium</text>
  <text style="stroke:none;fill:black;font-family:sans-serif;font-size:13;" transform="matrix(1 0 0 1 263 1586)">Large</text>
 </g>
 <g id="Guides">
  <g id="H-reference" style="fill:#27AAE1;stroke:none;" transform="matrix(1 0 0 1 339 696)">
   <path d="M0.976562 0L3.66211 0L29.3457-67.1387L30.0293-67.1387L30.0293-70.459L28.125-70.459ZM11.6699-24.4629L46.9727-24.4629L46.2402-26.709L12.4512-26.709ZM55.127 0L57.7637 0L30.6152-70.459L29.4434-70.459L29.4434-67.1387Z"/>
  </g>
  <line id="Baseline-S" style="fill:none;stroke:#27AAE1;opacity:1;stroke-width:0.5;" x1="263" x2="3036" y1="696" y2="696"/>
  <line id="Capline-S" style="fill:none;stroke:#27AAE1;opacity:1;stroke-width:0.5;" x1="263" x2="3036" y1="625.541" y2="625.541"/>
  <g id="H-reference" style="fill:#27AAE1;stroke:none;" transform="matrix(1 0 0 1 339 1126)">
   <path d="M0.976562 0L3.66211 0L29.3457-67.1387L30.0293-67.1387L30.0293-70.459L28.125-70.459ZM11.6699-24.4629L46.9727-24.4629L46.2402-26.709L12.4512-26.709ZM55.127 0L57.7637 0L30.6152-70.459L29.4434-70.459L29.4434-67.1387Z"/>
  </g>
  <line id="Baseline-M" style="fill:none;stroke:#27AAE1;opacity:1;stroke-width:0.5;" x1="263" x2="3036" y1="1126" y2="1126"/>
  <line id="Capline-M" style="fill:none;stroke:#27AAE1;opacity:1;stroke-width:0.5;" x1="263" x2="3036" y1="1055.54" y2="1055.54"/>
  <g id="H-reference" style="fill:#27AAE1;stroke:none;" transform="matrix(1 0 0 1 339 1556)">
   <path d="M0.976562 0L3.66211 0L29.3457-67.1387L30.0293-67.1387L30.0293-70.459L28.125-70.459ZM11.6699-24.4629L46.9727-24.4629L46.2402-26.709L12.4512-26.709ZM55.127 0L57.7637 0L30.6152-70.459L29.4434-70.459L29.4434-67.1387Z"/>
  </g>
  <line id="Baseline-L" style="fill:none;stroke:#27AAE1;opacity:1;stroke-width:0.5;" x1="263" x2="3036" y1="1556" y2="1556"/>
  <line id="Capline-L" style="fill:none;stroke:#27AAE1;opacity:1;stroke-width:0.5;" x1="263" x2="3036" y1="1485.54" y2="1485.54"/>
  <line id="left-margin-Regular-M" style="fill:none;stroke:#00AEEF;stroke-width:0.5;opacity:1.0;" x1="1390.68" x2="1390.68" y1="1030.78" y2="1150.12"/>
  <line id="right-margin-Regular-M" style="fill:none;stroke:#00AEEF;stroke-width:0.5;opacity:1.0;" x1="1509.01" x2="1509.01" y1="1030.78" y2="1150.12"/>
 </g>
 <g id="Symbols">
  <g id="Black-L" transform="matrix(1 0 0 1 2853.37 1556)">
   <path d="M134.749-65.2839C134.832-64.0803 134.832-62.8767 134.832-61.6621C134.832-24.6505 106.633 18.0351 55.0682 18.0351L55.0682 18.0129C39.8359 18.0351 24.92 13.6755 12.0969 5.45568C14.3118 5.72191 16.5378 5.85502 18.7694 5.86057C31.3926 5.87166 43.6551 1.63971 53.586-6.15307C41.59-6.38047 31.0707-14.1954 27.3958-25.6045C31.598-24.7947 35.9279-24.9611 40.0524-26.0871C26.9739-28.7272 17.5648-40.2084 17.5648-53.542C17.5648-53.6641 17.5648-53.7805 17.5648-53.897C21.4617-51.7284 25.8248-50.5248 30.288-50.3917C17.97-58.6171 14.173-74.9902 21.6115-87.7915C35.8446-70.2924 56.8445-59.6542 79.3877-58.5283C77.1284-68.2568 80.2148-78.4512 87.4979-85.29C98.7889-95.8948 116.547-95.3513 127.161-84.0753C133.439-85.3122 139.456-87.614 144.963-90.8753C142.87-84.3915 138.491-78.8838 132.64-75.384C138.196-76.0385 143.625-77.525 148.738-79.7935C144.974-74.1582 140.234-69.2496 134.749-65.2839Z"/>
  </g>
  <g id="Heavy-L" transform="matrix(1 0 0 1 2557.59 1556)">
   <path d="M133.213-64.9647C133.296-63.7736 133.296-62.5824 133.296-61.3803C133.296-24.7518 105.388 17.492 54.3571 17.492L54.3571 17.47C39.2824 17.492 24.5209 13.1776 11.8305 5.04278C14.0225 5.30625 16.2255 5.43799 18.4339 5.44348C30.9265 5.45445 43.0621 1.2663 52.8902-6.44582C41.0184-6.67088 30.6079-14.405 26.9711-25.696C31.1298-24.8946 35.4149-25.0592 39.4967-26.1735C26.5536-28.7863 17.2418-40.1486 17.2418-53.3443C17.2418-53.4651 17.2418-53.5804 17.2418-53.6956C21.0983-51.5494 25.4164-50.3583 29.8333-50.2266C17.6428-58.3668 13.8851-74.5705 21.2467-87.2393C35.3325-69.9213 56.115-59.3933 78.4248-58.279C76.1889-67.9068 79.2434-77.9957 86.4511-84.7637C97.6252-95.2588 115.2-94.7209 125.703-83.5616C131.917-84.7857 137.872-87.0636 143.322-90.2912C141.251-83.8745 136.916-78.4239 131.126-74.9603C136.625-75.608 141.998-77.079 147.057-79.3241C143.333-73.7472 138.641-68.8894 133.213-64.9647Z"/>
  </g>
  <g id="Bold-L" transform="matrix(1 0 0 1 2262.06 1556)">
   <path d="M131.176-64.5092C131.257-63.3359 131.257-62.1625 131.257-60.9784C131.257-24.8964 103.766 16.7171 53.4962 16.7171L53.4962 16.6955C38.6464 16.7171 24.1052 12.4671 11.6041 4.4537C13.7634 4.71324 15.9335 4.84302 18.109 4.84842C30.4152 4.85924 42.3697 0.733574 52.0513-6.86349C40.3565-7.08518 30.1014-14.7039 26.5188-25.8264C30.6155-25.037 34.8366-25.1992 38.8575-26.2968C26.1075-28.8706 16.9347-40.0635 16.9347-53.0623C16.9347-53.1812 16.9347-53.2948 16.9347-53.4083C20.7337-51.2941 24.9873-50.1208 29.3383-49.991C17.3297-58.0098 13.6281-73.9718 20.8798-86.4515C34.7554-69.3919 55.2279-59.021 77.2049-57.9233C75.0023-67.4075 78.0112-77.3458 85.1114-84.0129C96.1188-94.3514 113.431-93.8215 123.778-82.8287C129.899-84.0345 135.765-86.2785 141.133-89.4579C139.093-83.1369 134.823-77.7676 129.119-74.3557C134.537-74.9937 139.829-76.4428 144.813-78.6544C141.144-73.1607 136.523-68.3754 131.176-64.5092Z"/>
  </g>
  <g id="Semibold-L" transform="matrix(1 0 0 1 1966.16 1556)">
   <path d="M129.771-64.1953C129.852-63.0342 129.852-61.8731 129.852-60.7013C129.852-24.996 102.647 16.183 52.9027 16.183L52.9027 16.1616C38.208 16.183 23.8186 11.9773 11.4481 4.0476C13.5848 4.30443 15.7322 4.43285 17.885 4.4382C30.0628 4.4489 41.8924 0.366313 51.4729-7.15142C39.9003-7.3708 29.7522-14.9099 26.207-25.9163C30.2609-25.1351 34.438-25.2957 38.4169-26.3819C25.8-28.9288 16.7229-40.0047 16.7229-52.8678C16.7229-52.9855 16.7229-53.0979 16.7229-53.2103C20.4823-51.1181 24.6915-49.957 28.9971-49.8286C17.1139-57.7637 13.4509-73.559 20.6269-85.9084C34.3576-69.027 54.6164-58.7643 76.3638-57.6781C74.1843-67.0632 77.1618-76.8978 84.1878-83.4953C95.0803-93.7258 112.212-93.2014 122.451-82.3234C128.507-83.5167 134.312-85.7372 139.625-88.8834C137.606-82.6284 133.381-77.3152 127.736-73.9389C133.097-74.5703 138.334-76.0043 143.266-78.1927C139.636-72.7564 135.062-68.021 129.771-64.1953Z"/>
  </g>
  <g id="Medium-L" transform="matrix(1 0 0 1 1670.07 1556)">
   <path d="M128.706-63.9572C128.786-62.8054 128.786-61.6536 128.786-60.4911C128.786-25.0716 101.799 15.778 52.4527 15.778L52.4527 15.7567C37.8756 15.778 23.6013 11.606 11.3297 3.73967C13.4494 3.99445 15.5796 4.12184 17.7152 4.12715C29.7955 4.13776 41.5305 0.0878412 51.0343-7.36975C39.5543-7.58737 29.4874-15.0662 25.9706-25.9845C29.9921-25.2096 34.1357-25.3688 38.0828-26.4463C25.5669-28.9729 16.5624-39.9602 16.5624-52.7204C16.5624-52.8372 16.5624-52.9486 16.5624-53.0601C20.2917-50.9847 24.4672-49.8329 28.7383-49.7055C16.9502-57.5771 13.3166-73.246 20.4351-85.4966C34.056-68.7502 54.1527-58.5697 75.7261-57.4922C73.564-66.8022 76.5177-76.5581 83.4875-83.1028C94.2928-93.2515 111.287-92.7313 121.444-81.9403C127.453-83.124 133.211-85.3268 138.481-88.4478C136.478-82.2429 132.287-76.9722 126.688-73.6229C132.005-74.2492 137.201-75.6717 142.093-77.8426C138.492-72.4498 133.955-67.7523 128.706-63.9572Z"/>
  </g>
  <g id="Regular-L" transform="matrix(1 0 0 1 1374.16 1556)">
   <path d="M127.317-63.6467C127.396-62.507 127.396-61.3673 127.396-60.2171C127.396-25.1701 100.693 15.2497 51.8657 15.2497L51.8657 15.2287C37.442 15.2497 23.3178 11.1216 11.1754 3.33803C13.2727 3.59013 15.3806 3.71618 17.4937 3.72143C29.4469 3.73193 41.0584-0.275383 50.4623-7.65452C39.103-7.86985 29.142-15.27 25.6622-26.0735C29.6414-25.3067 33.7414-25.4642 37.647-26.5304C25.2627-29.0304 16.353-39.9021 16.353-52.5281C16.353-52.6436 16.353-52.7539 16.353-52.8642C20.0431-50.8107 24.1746-49.671 28.4009-49.5449C16.7367-57.3337 13.1413-72.8378 20.185-84.9595C33.6626-68.3893 53.5478-58.3158 74.8943-57.2497C72.755-66.4618 75.6776-76.1151 82.574-82.5908C93.2657-92.6328 110.081-92.1181 120.132-81.4406C126.077-82.6118 131.775-84.7914 136.989-87.8797C135.007-81.74 130.86-76.5247 125.32-73.2107C130.581-73.8304 135.722-75.238 140.563-77.386C137-72.05 132.511-67.4019 127.317-63.6467Z"/>
  </g>
  <g id="Light-L" transform="matrix(1 0 0 1 1078.37 1556)">
   <path d="M125.04-62.9455C125.117-61.8332 125.117-60.7209 125.117-59.5983C125.117-25.3926 99.0549 14.0569 51.3997 14.0569L51.3997 14.0364C37.3222 14.0569 23.5371 10.0279 11.6861 2.43116C13.7331 2.6772 15.7904 2.80023 17.8527 2.80535C29.519 2.81561 40.8518-1.09551 50.0299-8.29751C38.9433-8.50767 29.2214-15.7302 25.8252-26.2743C29.7088-25.5259 33.7104-25.6797 37.5222-26.7203C25.4353-29.1602 16.7395-39.771 16.7395-52.0938C16.7395-52.2066 16.7395-52.3143 16.7395-52.4219C20.3409-50.4177 24.3733-49.3053 28.4981-49.1823C17.114-56.7841 13.6049-71.916 20.4794-83.7467C33.6335-67.5743 53.0414-57.7427 73.8755-56.7021C71.7874-65.6931 74.6399-75.1146 81.3708-81.4349C91.8058-91.2358 108.218-90.7334 118.027-80.3123C123.829-81.4554 129.39-83.5827 134.48-86.5968C132.545-80.6045 128.498-75.5144 123.09-72.2799C128.226-72.8848 133.243-74.2586 137.968-76.3551C134.49-71.1471 130.109-66.6106 125.04-62.9455Z"/>
  </g>
  <g id="Thin-L" transform="matrix(1 0 0 1 782.885 1556)">
   <path d="M122.028-62.0182C122.102-60.9421 122.102-59.8659 122.102-58.7798C122.102-25.6869 96.8882 12.4793 50.7833 12.4793L50.7833 12.4594C37.1637 12.4793 23.8271 8.58132 12.3616 1.23174C14.342 1.46979 16.3323 1.58881 18.3276 1.59377C29.6144 1.60369 40.5785-2.1802 49.458-9.14791C38.7321-9.35124 29.3265-16.3388 26.0407-26.5399C29.798-25.8159 33.6695-25.9647 37.3573-26.9714C25.6635-29.332 17.2505-39.5976 17.2505-51.5195C17.2505-51.6286 17.2505-51.7328 17.2505-51.8369C20.7349-49.8979 24.6361-48.8217 28.6267-48.7027C17.6129-56.0572 14.2179-70.6969 20.8689-82.1428C33.595-66.4964 52.3715-56.9846 72.5279-55.9779C70.5078-64.6764 73.2674-73.7914 79.7794-79.9062C89.875-89.3882 105.753-88.9022 115.243-78.8201C120.856-79.926 126.237-81.9841 131.161-84.9001C129.289-79.1028 125.373-74.1782 120.142-71.049C125.11-71.6342 129.964-72.9632 134.536-74.9916C131.17-69.953 126.932-65.5641 122.028-62.0182Z"/>
  </g>
  <g id="Ultralight-L" transform="matrix(1 0 0 1 486.799 1556)">
   <path d="M120.485-61.5433C120.558-60.4856 120.558-59.428 120.558-58.3607C120.558-25.8377 95.7785 11.6712 50.4675 11.6712L50.4675 11.6517C37.0825 11.6712 23.9756 7.84041 12.7076 0.617412C14.6539 0.851355 16.6099 0.968327 18.5708 0.9732C29.6632 0.982948 40.4385-2.73577 49.1651-9.58349C38.624-9.78332 29.3803-16.6505 26.1511-26.676C29.8437-25.9644 33.6485-26.1106 37.2728-27.1C25.7804-29.4199 17.5123-39.5087 17.5123-51.2254C17.5123-51.3326 17.5123-51.435 17.5123-51.5373C20.9366-49.6316 24.7707-48.574 28.6925-48.4571C17.8684-55.6849 14.5319-70.0724 21.0683-81.3212C33.5753-65.9443 52.0285-56.5963 71.8377-55.6069C69.8524-64.1556 72.5645-73.1137 78.9643-79.1231C88.886-88.4419 104.49-87.9642 113.817-78.0558C119.334-79.1426 124.622-81.1652 129.461-84.0311C127.622-78.3336 123.773-73.4939 118.632-70.4185C123.514-70.9936 128.285-72.2998 132.777-74.2932C129.47-69.3414 125.305-65.028 120.485-61.5433Z"/>
  </g>
  <g id="Black-M" transform="matrix(1 0 0 1 2870.71 1126)">
   <path d="M105.407-58.6934C105.472-57.7539 105.472-56.8145 105.472-55.8663C105.472-26.9767 83.4606 6.34181 43.2117 6.34181L43.2117 6.32449C31.322 6.34181 19.6793 2.93896 9.67013-3.47711C11.399-3.2693 13.1365-3.1654 14.8784-3.16107C24.7315-3.15241 34.3031-6.45569 42.0548-12.5384C32.6912-12.7159 24.4802-18.8159 21.6118-27.7214C24.8919-27.0893 28.2716-27.2192 31.491-28.098C21.2825-30.1588 13.9381-39.1205 13.9381-49.5282C13.9381-49.6234 13.9381-49.7144 13.9381-49.8053C16.9799-48.1125 20.3856-47.173 23.8693-47.0691C14.2544-53.4895 11.2907-66.2697 17.0968-76.2618C28.2066-62.6028 44.5982-54.2991 62.1944-53.4203C60.4309-61.0139 62.84-68.9712 68.5249-74.3093C77.3381-82.587 91.1993-82.1627 99.484-73.3612C104.385-74.3266 109.081-76.1233 113.38-78.6689C111.746-73.6079 108.328-69.3089 103.761-66.5771C108.098-67.088 112.336-68.2482 116.326-70.0189C113.388-65.6203 109.688-61.7889 105.407-58.6934Z"/>
  </g>
  <g id="Heavy-M" transform="matrix(1 0 0 1 2574.84 1126)">
   <path d="M104.116-58.446C104.18-57.5162 104.18-56.5864 104.18-55.648C104.18-27.0552 82.3949 5.92094 42.5595 5.92094L42.5595 5.9038C30.792 5.92094 19.2689 2.55305 9.36259-3.79709C11.0737-3.59141 12.7934-3.48858 14.5173-3.48429C24.2692-3.47572 33.7424-6.74506 41.4145-12.7653C32.1471-12.9409 24.0205-18.9783 21.1816-27.7922C24.4279-27.1666 27.7729-27.2952 30.9592-28.165C20.8556-30.2046 13.5867-39.0742 13.5867-49.375C13.5867-49.4692 13.5867-49.5592 13.5867-49.6492C16.5972-47.9738 19.9679-47.044 23.4158-46.9412C13.8998-53.2956 10.9665-65.9445 16.713-75.8339C27.7086-62.3152 43.9318-54.0969 61.3472-53.2271C59.6018-60.7427 61.9861-68.6182 67.6126-73.9014C76.3353-82.0941 90.054-81.6741 98.2536-72.9631C103.104-73.9186 107.752-75.6968 112.007-78.2163C110.39-73.2073 107.006-68.9524 102.486-66.2487C106.779-66.7543 110.973-67.9027 114.923-69.6552C112.015-65.3017 108.353-61.5097 104.116-58.446Z"/>
  </g>
  <g id="Bold-M" transform="matrix(1 0 0 1 2279.05 1126)">
   <path d="M102.671-58.1693C102.735-57.2502 102.735-56.3312 102.735-55.4038C102.735-27.1431 81.2027 5.45014 41.8299 5.45014L41.8299 5.4332C30.1991 5.45014 18.8098 2.12136 9.01857-4.15503C10.7098-3.95174 12.4095-3.8501 14.1134-3.84587C23.7521-3.8374 33.1153-7.06876 40.6982-13.0191C31.5385-13.1927 23.5063-19.1599 20.7003-27.8715C23.9089-27.2532 27.2151-27.3802 30.3644-28.2399C20.3781-30.2558 13.1936-39.0225 13.1936-49.2036C13.1936-49.2968 13.1936-49.3857 13.1936-49.4746C16.1692-47.8187 19.5007-46.8997 22.9086-46.7981C13.5031-53.0787 10.6038-65.5807 16.2836-75.3552C27.1515-61.9935 43.1863-53.8707 60.3994-53.0109C58.6743-60.4393 61.031-68.2233 66.5921-73.4452C75.2135-81.5427 88.7729-81.1276 96.8772-72.5177C101.671-73.4621 106.266-75.2197 110.47-77.7099C108.873-72.7591 105.528-68.5537 101.061-65.8813C105.304-66.3811 109.449-67.5161 113.353-69.2482C110.479-64.9454 106.859-61.1973 102.671-58.1693Z"/>
  </g>
  <g id="Semibold-M" transform="matrix(1 0 0 1 1982.98 1126)">
   <path d="M101.676-57.9785C101.739-57.0669 101.739-56.1553 101.739-55.2354C101.739-27.2036 80.3808 5.12557 41.3269 5.12557L41.3269 5.10876C29.7903 5.12557 18.4934 1.82376 8.7814-4.40179C10.4589-4.20015 12.1448-4.09934 13.835-4.09513C23.3956-4.08673 32.6829-7.29192 40.2044-13.194C31.1189-13.3662 23.1517-19.2851 20.3685-27.9261C23.5511-27.3128 26.8305-27.4388 29.9543-28.2916C20.0489-30.2912 12.9226-38.9868 12.9226-49.0854C12.9226-49.1779 12.9226-49.2661 12.9226-49.3543C15.8741-47.7118 19.1787-46.8002 22.5589-46.6994C13.2296-52.9291 10.3538-65.3298 15.9876-75.0252C26.7674-61.7718 42.6723-53.7147 59.746-52.8619C58.0349-60.2301 60.3725-67.9511 65.8885-73.1307C74.4401-81.1626 87.8897-80.7509 95.9283-72.2107C100.683-73.1475 105.241-74.8908 109.412-77.3609C107.826-72.4501 104.509-68.2788 100.078-65.6281C104.286-66.1238 108.398-67.2496 112.27-68.9677C109.42-64.6997 105.829-60.982 101.676-57.9785Z"/>
  </g>
  <g id="Medium-M" transform="matrix(1 0 0 1 1686.76 1126)">
   <path d="M100.921-57.8338C100.983-56.9279 100.983-56.022 100.983-55.1077C100.983-27.2495 79.7576 4.87947 40.9456 4.87947L40.9456 4.86277C29.4804 4.87947 18.2534 1.5981 8.60157-4.5889C10.2687-4.38851 11.9442-4.28831 13.6239-4.28414C23.1252-4.27579 32.3551-7.46113 39.83-13.3267C30.8007-13.4978 22.8829-19.3801 20.1169-27.9676C23.2798-27.3581 26.5389-27.4833 29.6434-28.3308C19.7993-30.318 12.7172-38.9597 12.7172-48.9958C12.7172-49.0877 12.7172-49.1754 12.7172-49.263C15.6503-47.6307 18.9344-46.7248 22.2938-46.6246C13.0222-52.8158 10.1642-65.1397 15.7631-74.775C26.4762-61.6036 42.2826-53.5964 59.2506-52.749C57.55-60.0715 59.8732-67.7447 65.3551-72.8922C73.8537-80.8743 87.22-80.4652 95.2088-71.9779C99.9345-72.9089 104.464-74.6414 108.609-77.0962C107.033-72.2159 103.737-68.0703 99.3328-65.4361C103.515-65.9287 107.602-67.0475 111.45-68.755C108.617-64.5134 105.049-60.8188 100.921-57.8338Z"/>
  </g>
  <g id="Regular-M" transform="matrix(1 0 0 1 1390.68 1126)">
   <path d="M99.9357-57.6451C99.9978-56.7466 99.9978-55.848 99.9978-54.9412C99.9978-27.3094 78.9447 4.55846 40.4482 4.55846L40.4482 4.5419C29.0762 4.55846 17.9404 1.30377 8.36701-4.83295C10.0206-4.63419 11.6825-4.53481 13.3485-4.53067C22.7726-4.52238 31.9274-7.68184 39.3416-13.4997C30.3858-13.6695 22.5323-19.5039 19.7887-28.0216C22.926-27.4171 26.1586-27.5413 29.2378-28.3819C19.4738-30.3529 12.4492-38.9244 12.4492-48.879C12.4492-48.9701 12.4492-49.057 12.4492-49.144C15.3585-47.5249 18.6159-46.6264 21.9479-46.527C12.7517-52.6679 9.91698-64.8916 15.4704-74.4486C26.0964-61.3843 41.7743-53.4422 58.6044-52.6016C56.9177-59.8646 59.2219-67.4755 64.6592-72.5811C73.0888-80.4984 86.3465-80.0926 94.2704-71.6743C98.9576-72.5977 103.45-74.3161 107.561-76.7509C105.999-71.9103 102.729-67.7985 98.3608-65.1856C102.509-65.6742 106.562-66.784 110.379-68.4776C107.569-64.2705 104.03-60.6058 99.9357-57.6451Z"/>
  </g>
  <g id="Light-M" transform="matrix(1 0 0 1 1094.8 1126)">
   <path d="M97.8939-57.0165C97.9544-56.1425 97.9544-55.2685 97.9544-54.3864C97.9544-27.5089 77.476 3.48904 40.0303 3.48904L40.0303 3.47293C28.9687 3.48904 18.1369 0.323189 8.8249-5.64601C10.4333-5.45267 12.0499-5.356 13.6704-5.35198C22.8373-5.34392 31.7422-8.41713 38.954-14.0762C30.2426-14.2413 22.6035-19.9165 19.9348-28.2017C22.9865-27.6136 26.1308-27.7344 29.1259-28.5521C19.6285-30.4693 12.7956-38.8069 12.7956-48.4897C12.7956-48.5783 12.7956-48.6629 12.7956-48.7475C15.6255-47.1726 18.794-46.2986 22.0351-46.2019C13.0899-52.1751 10.3326-64.0652 15.7344-73.3613C26.0703-60.6536 41.3203-52.9283 57.6909-52.1107C56.0502-59.1754 58.2916-66.5785 63.5805-71.5448C71.7799-79.2459 84.6757-78.8512 92.3833-70.6627C96.9426-71.5609 101.312-73.2324 105.311-75.6008C103.792-70.8923 100.611-66.8927 96.3621-64.3511C100.397-64.8264 104.34-65.9059 108.053-67.5532C105.319-63.461 101.877-59.8964 97.8939-57.0165Z"/>
  </g>
  <g id="Thin-M" transform="matrix(1 0 0 1 799.184 1126)">
   <path d="M95.1935-56.1851C95.2518-55.3436 95.2518-54.502 95.2518-53.6526C95.2518-27.7727 75.5335 2.07464 39.4777 2.07464L39.4777 2.05912C28.8267 2.07464 18.3969-0.973705 9.43051-6.72134C10.9792-6.53518 12.5358-6.4421 14.0961-6.43823C22.9228-6.43047 31.4972-9.38961 38.4413-14.8386C30.0532-14.9976 22.6977-20.4621 20.1281-28.4398C23.0664-27.8736 26.094-27.9899 28.978-28.7772C19.8331-30.6233 13.2538-38.6514 13.2538-47.9748C13.2538-48.0601 13.2538-48.1416 13.2538-48.223C15.9787-46.7066 19.0296-45.865 22.1504-45.7719C13.5372-51.5234 10.8822-62.9722 16.0835-71.9233C26.0358-59.6872 40.7198-52.2487 56.4828-51.4614C54.903-58.2639 57.0611-65.3922 62.1537-70.1742C70.0488-77.5895 82.4659-77.2094 89.8875-69.3248C94.2775-70.1897 98.4851-71.7992 102.336-74.0796C100.872-69.5459 97.8097-65.6947 93.7186-63.2475C97.604-63.7052 101.4-64.7445 104.975-66.3308C102.343-62.3904 99.0285-58.9581 95.1935-56.1851Z"/>
  </g>
  <g id="Ultralight-M" transform="matrix(1 0 0 1 503.034 1126)">
   <path d="M93.8104-55.7593C93.8675-54.9343 93.8675-54.1094 93.8675-53.2768C93.8675-27.9079 74.5385 1.35019 39.1946 1.35019L39.1946 1.33498C28.7539 1.35019 18.5301-1.63797 9.74069-7.27212C11.2589-7.08964 12.7846-6.9984 14.3142-6.9946C22.9666-6.98699 31.3717-9.88771 38.1787-15.2291C29.9562-15.385 22.7459-20.7416 20.2271-28.5618C23.1074-28.0067 26.0752-28.1208 28.9023-28.8925C19.9379-30.7021 13.4885-38.5717 13.4885-47.7111C13.4885-47.7947 13.4885-47.8745 13.4885-47.9544C16.1596-46.4679 19.1503-45.6429 22.2094-45.5517C13.7663-51.1896 11.1637-62.4123 16.2623-71.1867C26.0181-59.1923 40.4122-51.9006 55.8639-51.1288C54.3153-57.797 56.4309-64.7846 61.4229-69.4721C69.1622-76.741 81.3341-76.3685 88.6091-68.6396C92.9125-69.4873 97.037-71.0651 100.811-73.3005C99.377-68.8563 96.3749-65.0811 92.3646-62.6823C96.1733-63.1309 99.8945-64.1497 103.399-65.7046C100.819-61.8421 97.5697-58.4775 93.8104-55.7593Z"/>
  </g>
  <g id="Black-S" transform="matrix(1 0 0 1 2884.07 696)">
   <path d="M82.8797-53.6566C82.9308-52.9188 82.9308-52.1811 82.9308-51.4365C82.9308-28.7497 65.6453-2.58499 34.0382-2.58499L34.0382-2.59859C24.7013-2.58499 15.5584-5.25722 7.69829-10.2957C9.05595-10.1325 10.4204-10.0509 11.7883-10.0475C19.5259-10.0407 27.0423-12.6348 33.1297-17.4115C25.7765-17.5508 19.3285-22.3411 17.076-29.3345C19.6518-28.8381 22.3058-28.9401 24.834-29.6303C16.8174-31.2486 11.0499-38.2861 11.0499-46.4592C11.0499-46.534 11.0499-46.6054 11.0499-46.6768C13.4386-45.3475 16.113-44.6097 18.8488-44.5281C11.2983-49.57 8.97088-59.6062 13.5304-67.4529C22.2548-56.7266 35.127-50.2058 48.9452-49.5156C47.5603-55.4789 49.4521-61.7277 53.9164-65.9196C60.8374-72.42 71.7225-72.0868 78.2283-65.175C82.0767-65.9332 85.7652-67.3441 89.1406-69.3432C87.8578-65.3688 85.1731-61.9928 81.5867-59.8476C84.9928-60.2488 88.3206-61.1599 91.4544-62.5504C89.1474-59.0962 86.2415-56.0874 82.8797-53.6566Z"/>
  </g>
  <g id="Heavy-S" transform="matrix(1 0 0 1 2587.96 696)">
   <path d="M82.0363-53.5253C82.087-52.7927 82.087-52.0601 82.087-51.3207C82.087-28.7914 64.9215-2.80827 33.5338-2.80827L33.5338-2.82178C24.2617-2.80827 15.1823-5.46196 7.37675-10.4655C8.72498-10.3034 10.08-10.2224 11.4383-10.219C19.1222-10.2122 26.5865-12.7883 32.6316-17.5318C25.3295-17.6702 18.9263-22.4273 16.6893-29.3721C19.2473-28.8792 21.8829-28.9805 24.3935-29.6658C16.4325-31.2729 10.7051-38.2616 10.7051-46.3779C10.7051-46.4522 10.7051-46.5231 10.7051-46.594C13.0772-45.2739 15.7331-44.5413 18.4498-44.4603C10.9518-49.4671 8.6405-59.4336 13.1684-67.2259C21.8322-56.574 34.6151-50.0985 48.3373-49.4131C46.962-55.335 48.8408-61.5404 53.274-65.7032C60.147-72.1585 70.9565-71.8276 77.4172-64.9638C81.2388-65.7167 84.9017-67.1178 88.2537-69.103C86.9798-65.1563 84.3138-61.8037 80.7523-59.6734C84.1347-60.0717 87.4393-60.9766 90.5514-62.3574C88.2605-58.9272 85.3748-55.9393 82.0363-53.5253Z"/>
  </g>
  <g id="Bold-S" transform="matrix(1 0 0 1 2291.93 696)">
   <path d="M81.0929-53.3785C81.1432-52.6516 81.1432-51.9247 81.1432-51.1911C81.1432-28.838 64.112-3.05801 32.9696-3.05801L32.9696-3.07141C23.7701-3.05801 14.7616-5.69094 7.01712-10.6553C8.35481-10.4945 9.6992-10.4141 11.0469-10.4108C18.6708-10.4041 26.0767-12.96 32.0745-17.6664C24.8295-17.8038 18.4763-22.5236 16.2569-29.4141C18.7948-28.9251 21.4099-29.0256 23.9008-29.7056C16.0021-31.3001 10.3194-38.2341 10.3194-46.287C10.3194-46.3607 10.3194-46.4311 10.3194-46.5014C12.673-45.1916 15.3081-44.4647 18.0036-44.3843C10.5642-49.3521 8.27099-59.2407 12.7635-66.972C21.3596-56.4034 34.0425-49.9785 47.6574-49.2985C46.2929-55.174 48.1569-61.3309 52.5556-65.4612C59.3748-71.866 70.0997-71.5377 76.5099-64.7276C80.3017-65.4746 83.9359-66.8648 87.2617-68.8345C85.9978-64.9186 83.3526-61.5922 79.819-59.4785C83.1749-59.8738 86.4538-60.7715 89.5415-62.1416C87.2684-58.7382 84.4053-55.7736 81.0929-53.3785Z"/>
  </g>
  <g id="Semibold-S" transform="matrix(1 0 0 1 1995.69 696)">
   <path d="M80.4426-53.2773C80.4926-52.5544 80.4926-51.8314 80.4926-51.1018C80.4926-28.8701 63.5539-3.23018 32.5807-3.23018L32.5807-3.24351C23.4311-3.23018 14.4716-5.84881 6.76917-10.7862C8.09959-10.6263 9.43668-10.5464 10.7771-10.543C18.3595-10.5364 25.7252-13.0784 31.6904-17.7592C24.4848-17.8958 18.1661-22.5901 15.9588-29.4431C18.4829-28.9567 21.0837-29.0567 23.5612-29.733C15.7053-31.3188 10.0535-38.2152 10.0535-46.2243C10.0535-46.2976 10.0535-46.3676 10.0535-46.4376C12.3943-45.1349 15.0151-44.412 17.696-44.332C10.297-49.2728 8.01623-59.1076 12.4843-66.7969C21.0337-56.2858 33.6477-49.8958 47.1887-49.2194C45.8316-55.0631 47.6855-61.1865 52.0602-65.2944C58.8424-71.6644 69.5091-71.3379 75.8844-64.5648C79.6556-65.3077 83.2701-66.6903 86.5778-68.6493C85.3208-64.7547 82.6899-61.4464 79.1755-59.3441C82.5132-59.7373 85.7742-60.6301 88.8452-61.9928C86.5845-58.6079 83.7369-55.6594 80.4426-53.2773Z"/>
  </g>
  <g id="Medium-S" transform="matrix(1 0 0 1 1699.33 696)">
   <path d="M79.9494-53.2006C79.9992-52.4806 79.9992-51.7607 79.9992-51.0341C79.9992-28.8945 63.1307-3.36074 32.2858-3.36074L32.2858-3.37401C23.1741-3.36074 14.2517-5.96852 6.58116-10.8855C7.90608-10.7262 9.23763-10.6466 10.5725-10.6433C18.1235-10.6367 25.4587-13.1681 31.3992-17.8296C24.2234-17.9657 17.9309-22.6404 15.7327-29.4651C18.2464-28.9807 20.8364-29.0802 23.3036-29.7538C15.4803-31.333 9.85194-38.2009 9.85194-46.1768C9.85194-46.2498 9.85194-46.3195 9.85194-46.3892C12.183-45.0919 14.793-44.3719 17.4627-44.2923C10.0943-49.2126 7.82306-59.0067 12.2726-66.6642C20.7866-56.1966 33.3484-49.833 46.8332-49.1595C45.4818-54.9789 47.328-61.077 51.6846-65.1679C58.4387-71.5115 69.0612-71.1863 75.4102-64.4413C79.1657-65.1811 82.7652-66.558 86.0593-68.5089C84.8074-64.6304 82.1875-61.3358 78.6876-59.2423C82.0115-59.6338 85.259-60.523 88.3173-61.8799C86.0659-58.5091 83.2301-55.5728 79.9494-53.2006Z"/>
  </g>
  <g id="Regular-S" transform="matrix(1 0 0 1 1403.08 696)">
   <path d="M79.3062-53.1005C79.3557-52.3844 79.3557-51.6684 79.3557-50.9457C79.3557-28.9262 62.5787-3.53102 31.9011-3.53102L31.9011-3.54422C22.8389-3.53102 13.9649-6.12466 6.33594-11.0149C7.65366-10.8566 8.97799-10.7774 10.3056-10.7741C17.8157-10.7675 25.111-13.2852 31.0193-17.9214C23.8825-18.0567 17.6241-22.7061 15.4378-29.4938C17.9379-29.012 20.5139-29.111 22.9677-29.7809C15.1868-31.3516 9.58897-38.1821 9.58897-46.1148C9.58897-46.1874 9.58897-46.2567 9.58897-46.326C11.9074-45.0358 14.5032-44.3197 17.1585-44.2406C9.83006-49.1341 7.5711-58.8751 11.9965-66.491C20.4643-56.0802 32.9579-49.7512 46.3697-49.0813C45.0255-54.8692 46.8617-60.9342 51.1947-65.0028C57.9121-71.312 68.477-70.9887 74.7915-64.2802C78.5267-65.016 82.1067-66.3855 85.3829-68.3257C84.1378-64.4683 81.5321-61.1916 78.0512-59.1094C81.357-59.4988 84.587-60.3831 87.6286-61.7327C85.3895-58.3802 82.5691-55.4598 79.3062-53.1005Z"/>
  </g>
  <g id="Light-S" transform="matrix(1 0 0 1 1107.1 696)">
   <path d="M77.5-52.5444C77.548-51.8501 77.548-51.1557 77.548-50.4549C77.548-29.1027 61.2794-4.47705 31.5315-4.47705L31.5315-4.48985C22.7438-4.47705 14.1388-6.99209 6.741-11.7342C8.01879-11.5806 9.30299-11.5038 10.5904-11.5006C17.8729-11.4942 24.9472-13.9357 30.6764-18.4314C23.7558-18.5626 17.6871-23.0711 15.5671-29.6531C17.9913-29.1859 20.4893-29.2819 22.8687-29.9314C15.3237-31.4545 9.89545-38.0781 9.89545-45.7704C9.89545-45.8408 9.89545-45.908 9.89545-45.9752C12.1436-44.7241 14.6608-44.0298 17.2356-43.953C10.1292-48.6983 7.93873-58.1441 12.2301-65.5292C20.4412-55.4338 32.5563-49.2966 45.5616-48.6471C44.2582-54.2595 46.0387-60.1407 50.2404-64.0861C56.7543-70.2041 66.999-69.8905 73.1222-63.3853C76.7442-64.0989 80.2157-65.4268 83.3926-67.3083C82.1852-63.5677 79.6585-60.3903 76.2831-58.3712C79.4887-58.7488 82.6208-59.6064 85.5703-60.9151C83.399-57.6641 80.6641-54.8323 77.5-52.5444Z"/>
  </g>
  <g id="Thin-S" transform="matrix(1 0 0 1 811.359 696)">
   <path d="M75.1112-51.809C75.1573-51.1433 75.1573-50.4776 75.1573-49.8059C75.1573-29.3361 59.561-5.72825 31.0426-5.72825L31.0426-5.74052C22.6182-5.72825 14.3687-8.13934 7.27673-12.6855C8.50171-12.5382 9.73283-12.4646 10.967-12.4615C17.9485-12.4554 24.7304-14.7959 30.2229-19.1058C23.5883-19.2316 17.7704-23.5538 15.738-29.8637C18.0621-29.4159 20.4568-29.5079 22.7379-30.1306C15.5047-31.5908 10.3008-37.9406 10.3008-45.315C10.3008-45.3824 10.3008-45.4469 10.3008-45.5113C12.456-44.3119 14.8692-43.6462 17.3375-43.5726C10.5249-48.1218 8.42495-57.1772 12.5389-64.2571C20.4107-54.579 32.025-48.6954 44.4928-48.0727C43.2433-53.4532 44.9503-59.0913 48.9783-62.8736C55.2229-68.7388 65.0443-68.4381 70.9143-62.2018C74.3867-62.8859 77.7147-64.1589 80.7602-65.9626C79.6028-62.3767 77.1805-59.3306 73.9446-57.395C77.0178-57.7569 80.0203-58.579 82.8479-59.8337C80.7664-56.717 78.1445-54.0023 75.1112-51.809Z"/>
  </g>
  <g id="Ultralight-S" transform="matrix(1 0 0 1 515.144 696)">
   <path d="M73.8877-51.4323C73.9327-50.7813 73.9327-50.1303 73.9327-49.4734C73.9327-29.4557 58.6809-6.36911 30.7922-6.36911L30.7922-6.38111C22.5538-6.36911 14.4865-8.72696 7.55112-13.1727C8.74905-13.0287 9.95299-12.9567 11.1599-12.9537C17.9872-12.9477 24.6194-15.2366 29.9906-19.4513C23.5025-19.5743 17.8131-23.801 15.8256-29.9716C18.0983-29.5336 20.4401-29.6236 22.6709-30.2326C15.5974-31.6605 10.5084-37.8701 10.5084-45.0817C10.5084-45.1477 10.5084-45.2107 10.5084-45.2737C12.6161-44.1007 14.9759-43.4498 17.3898-43.3778C10.7276-47.8265 8.67399-56.6819 12.6971-63.6055C20.3951-54.1411 31.7529-48.3875 43.9454-47.7785C42.7235-53.0402 44.3928-58.5538 48.3318-62.2526C54.4386-67.9882 64.043-67.6942 69.7835-61.5956C73.1791-62.2646 76.4337-63.5095 79.412-65.2734C78.2801-61.7666 75.9113-58.7878 72.7468-56.8949C75.7521-57.2489 78.6884-58.0528 81.4536-59.2798C79.418-56.232 76.854-53.5771 73.8877-51.4323Z"/>
  </g>
 </g>
</svg>
