<svg width="18" height="18" viewBox="0 0 18 18" fill="none" xmlns="http://www.w3.org/2000/svg">
<path d="M0.615234 8.59619C0.615234 9.09863 1.03564 9.50879 1.52783 9.50879H8.16211V16.1431C8.16211 16.6353 8.57227 17.0557 9.07471 17.0557C9.57715 17.0557 9.99756 16.6353 9.99756 16.1431V9.50879H16.6216C17.1138 9.50879 17.5342 9.09863 17.5342 8.59619C17.5342 8.09375 17.1138 7.67334 16.6216 7.67334H9.99756V1.04932C9.99756 0.557129 9.57715 0.136719 9.07471 0.136719C8.57227 0.136719 8.16211 0.557129 8.16211 1.04932V7.67334H1.52783C1.03564 7.67334 0.615234 8.09375 0.615234 8.59619Z" fill="#007AFF"/>
</svg>
