<?xml version="1.0" encoding="UTF-8"?>
<!--Generator: Apple Native CoreSVG 149-->
<!DOCTYPE svg
PUBLIC "-//W3C//DTD SVG 1.1//EN"
       "http://www.w3.org/Graphics/SVG/1.1/DTD/svg11.dtd">
<svg version="1.1" xmlns="http://www.w3.org/2000/svg" xmlns:xlink="http://www.w3.org/1999/xlink" width="3300" height="2200">
 <!--glyph: "", point size: 100.0, font version: "17.0d9e1", template writer version: "59"-->
 <style>.multicolor-0:systemRedColor {fill:#FF3B30;opacity:1.0}
.multicolor-1:systemOrangeColor {fill:#FF9500;opacity:1.0}

.SFSymbolsPreviewFF3B30 {fill:#FF3B30;opacity:1.0}
.SFSymbolsPreviewFF9500 {fill:#FF9500;opacity:1.0}
</style>
 <g id="Notes">
  <rect height="2200" id="artboard" style="fill:white;opacity:1" width="3300" x="0" y="0"/>
  <line style="fill:none;stroke:black;opacity:1;stroke-width:0.5;" x1="263" x2="3036" y1="292" y2="292"/>
  <text style="stroke:none;fill:black;font-family:sans-serif;font-size:13;font-weight:bold;" transform="matrix(1 0 0 1 263 322)">Weight/Scale Variations</text>
  <text style="stroke:none;fill:black;font-family:sans-serif;font-size:13;text-anchor:middle;" transform="matrix(1 0 0 1 559.711 322)">Ultralight</text>
  <text style="stroke:none;fill:black;font-family:sans-serif;font-size:13;text-anchor:middle;" transform="matrix(1 0 0 1 856.422 322)">Thin</text>
  <text style="stroke:none;fill:black;font-family:sans-serif;font-size:13;text-anchor:middle;" transform="matrix(1 0 0 1 1153.13 322)">Light</text>
  <text style="stroke:none;fill:black;font-family:sans-serif;font-size:13;text-anchor:middle;" transform="matrix(1 0 0 1 1449.84 322)">Regular</text>
  <text style="stroke:none;fill:black;font-family:sans-serif;font-size:13;text-anchor:middle;" transform="matrix(1 0 0 1 1746.56 322)">Medium</text>
  <text style="stroke:none;fill:black;font-family:sans-serif;font-size:13;text-anchor:middle;" transform="matrix(1 0 0 1 2043.27 322)">Semibold</text>
  <text style="stroke:none;fill:black;font-family:sans-serif;font-size:13;text-anchor:middle;" transform="matrix(1 0 0 1 2339.98 322)">Bold</text>
  <text style="stroke:none;fill:black;font-family:sans-serif;font-size:13;text-anchor:middle;" transform="matrix(1 0 0 1 2636.69 322)">Heavy</text>
  <text style="stroke:none;fill:black;font-family:sans-serif;font-size:13;text-anchor:middle;" transform="matrix(1 0 0 1 2933.4 322)">Black</text>
  <line style="fill:none;stroke:black;opacity:1;stroke-width:0.5;" x1="263" x2="3036" y1="1903" y2="1903"/>
  <g transform="matrix(1 0 0 1 263 1933)">
   <path d="M9.24805 0.830078Q10.8691 0.830078 12.2949 0.214844Q13.7207-0.400391 14.8096-1.49414Q15.8984-2.58789 16.5186-4.01367Q17.1387-5.43945 17.1387-7.05078Q17.1387-8.66211 16.5186-10.0879Q15.8984-11.5137 14.8047-12.6074Q13.7109-13.7012 12.2852-14.3164Q10.8594-14.9316 9.23828-14.9316Q7.62695-14.9316 6.20117-14.3164Q4.77539-13.7012 3.69141-12.6074Q2.60742-11.5137 1.9873-10.0879Q1.36719-8.66211 1.36719-7.05078Q1.36719-5.43945 1.9873-4.01367Q2.60742-2.58789 3.69629-1.49414Q4.78516-0.400391 6.21094 0.214844Q7.63672 0.830078 9.24805 0.830078ZM9.24805-0.654297Q7.91992-0.654297 6.7627-1.14746Q5.60547-1.64062 4.73145-2.51953Q3.85742-3.39844 3.36426-4.56055Q2.87109-5.72266 2.87109-7.05078Q2.87109-8.37891 3.35938-9.54102Q3.84766-10.7031 4.72168-11.582Q5.5957-12.4609 6.75293-12.9541Q7.91016-13.4473 9.23828-13.4473Q10.5762-13.4473 11.7334-12.9541Q12.8906-12.4609 13.7695-11.582Q14.6484-10.7031 15.1465-9.54102Q15.6445-8.37891 15.6445-7.05078Q15.6445-5.72266 15.1514-4.56055Q14.6582-3.39844 13.7842-2.51953Q12.9102-1.64062 11.748-1.14746Q10.5859-0.654297 9.24805-0.654297ZM5.83984-7.04102Q5.83984-6.71875 6.04492-6.51855Q6.25-6.31836 6.5918-6.31836L8.50586-6.31836L8.50586-4.39453Q8.50586-4.0625 8.70605-3.85742Q8.90625-3.65234 9.22852-3.65234Q9.56055-3.65234 9.76562-3.85742Q9.9707-4.0625 9.9707-4.39453L9.9707-6.31836L11.8945-6.31836Q12.2266-6.31836 12.4316-6.51855Q12.6367-6.71875 12.6367-7.04102Q12.6367-7.37305 12.4316-7.57812Q12.2266-7.7832 11.8945-7.7832L9.9707-7.7832L9.9707-9.69727Q9.9707-10.0391 9.76562-10.2441Q9.56055-10.4492 9.22852-10.4492Q8.90625-10.4492 8.70605-10.2441Q8.50586-10.0391 8.50586-9.69727L8.50586-7.7832L6.5918-7.7832Q6.25-7.7832 6.04492-7.57812Q5.83984-7.37305 5.83984-7.04102Z"/>
  </g>
  <g transform="matrix(1 0 0 1 281.867 1933)">
   <path d="M11.709 2.91016Q13.75 2.91016 15.5518 2.12891Q17.3535 1.34766 18.7305-0.0292969Q20.1074-1.40625 20.8887-3.20801Q21.6699-5.00977 21.6699-7.05078Q21.6699-9.0918 20.8887-10.8936Q20.1074-12.6953 18.7305-14.0723Q17.3535-15.4492 15.5469-16.2305Q13.7402-17.0117 11.6992-17.0117Q9.6582-17.0117 7.85645-16.2305Q6.05469-15.4492 4.68262-14.0723Q3.31055-12.6953 2.5293-10.8936Q1.74805-9.0918 1.74805-7.05078Q1.74805-5.00977 2.5293-3.20801Q3.31055-1.40625 4.6875-0.0292969Q6.06445 1.34766 7.86621 2.12891Q9.66797 2.91016 11.709 2.91016ZM11.709 1.25Q9.98047 1.25 8.47656 0.605469Q6.97266-0.0390625 5.83496-1.17676Q4.69727-2.31445 4.05762-3.81836Q3.41797-5.32227 3.41797-7.05078Q3.41797-8.7793 4.05762-10.2832Q4.69727-11.7871 5.83008-12.9297Q6.96289-14.0723 8.4668-14.7119Q9.9707-15.3516 11.6992-15.3516Q13.4277-15.3516 14.9316-14.7119Q16.4355-14.0723 17.5781-12.9297Q18.7207-11.7871 19.3652-10.2832Q20.0098-8.7793 20.0098-7.05078Q20.0098-5.32227 19.3701-3.81836Q18.7305-2.31445 17.5928-1.17676Q16.4551-0.0390625 14.9463 0.605469Q13.4375 1.25 11.709 1.25ZM7.39258-7.04102Q7.39258-6.68945 7.62695-6.46484Q7.86133-6.24023 8.23242-6.24023L10.8789-6.24023L10.8789-3.57422Q10.8789-3.21289 11.1035-2.9834Q11.3281-2.75391 11.6797-2.75391Q12.0508-2.75391 12.2852-2.9834Q12.5195-3.21289 12.5195-3.57422L12.5195-6.24023L15.1758-6.24023Q15.5371-6.24023 15.7715-6.46484Q16.0059-6.68945 16.0059-7.04102Q16.0059-7.41211 15.7715-7.6416Q15.5371-7.87109 15.1758-7.87109L12.5195-7.87109L12.5195-10.5176Q12.5195-10.8984 12.2852-11.1279Q12.0508-11.3574 11.6797-11.3574Q11.3281-11.3574 11.1035-11.1279Q10.8789-10.8984 10.8789-10.5176L10.8789-7.87109L8.23242-7.87109Q7.85156-7.87109 7.62207-7.6416Q7.39258-7.41211 7.39258-7.04102Z"/>
  </g>
  <g transform="matrix(1 0 0 1 305.646 1933)">
   <path d="M14.9707 5.66406Q17.0605 5.66406 18.96 5.01465Q20.8594 4.36523 22.4512 3.19336Q24.043 2.02148 25.2197 0.429688Q26.3965-1.16211 27.0459-3.06641Q27.6953-4.9707 27.6953-7.05078Q27.6953-9.14062 27.0459-11.04Q26.3965-12.9395 25.2197-14.5312Q24.043-16.123 22.4512-17.2998Q20.8594-18.4766 18.9551-19.126Q17.0508-19.7754 14.9609-19.7754Q12.8711-19.7754 10.9717-19.126Q9.07227-18.4766 7.48535-17.2998Q5.89844-16.123 4.72168-14.5312Q3.54492-12.9395 2.90039-11.04Q2.25586-9.14062 2.25586-7.05078Q2.25586-4.9707 2.90527-3.06641Q3.55469-1.16211 4.72656 0.429688Q5.89844 2.02148 7.49023 3.19336Q9.08203 4.36523 10.9814 5.01465Q12.8809 5.66406 14.9707 5.66406ZM14.9707 3.84766Q13.1641 3.84766 11.5283 3.2959Q9.89258 2.74414 8.53516 1.74805Q7.17773 0.751953 6.17676-0.610352Q5.17578-1.97266 4.62891-3.6084Q4.08203-5.24414 4.08203-7.05078Q4.08203-8.86719 4.62891-10.5029Q5.17578-12.1387 6.17188-13.501Q7.16797-14.8633 8.52539-15.8594Q9.88281-16.8555 11.5186-17.4023Q13.1543-17.9492 14.9609-17.9492Q16.7773-17.9492 18.4131-17.4023Q20.0488-16.8555 21.4111-15.8594Q22.7734-14.8633 23.7695-13.501Q24.7656-12.1387 25.3174-10.5029Q25.8691-8.86719 25.8691-7.05078Q25.8789-5.24414 25.332-3.6084Q24.7852-1.97266 23.7842-0.610352Q22.7832 0.751953 21.4209 1.74805Q20.0586 2.74414 18.4229 3.2959Q16.7871 3.84766 14.9707 3.84766ZM9.45312-7.04102Q9.45312-6.66016 9.71191-6.41113Q9.9707-6.16211 10.3711-6.16211L14.0625-6.16211L14.0625-2.46094Q14.0625-2.06055 14.3115-1.80664Q14.5605-1.55273 14.9414-1.55273Q15.3516-1.55273 15.6055-1.80664Q15.8594-2.06055 15.8594-2.46094L15.8594-6.16211L19.5605-6.16211Q19.9609-6.16211 20.2148-6.41113Q20.4688-6.66016 20.4688-7.04102Q20.4688-7.45117 20.2148-7.70508Q19.9609-7.95898 19.5605-7.95898L15.8594-7.95898L15.8594-11.6504Q15.8594-12.0605 15.6055-12.3145Q15.3516-12.5684 14.9414-12.5684Q14.5605-12.5684 14.3115-12.3096Q14.0625-12.0508 14.0625-11.6504L14.0625-7.95898L10.3711-7.95898Q9.96094-7.95898 9.70703-7.70508Q9.45312-7.45117 9.45312-7.04102Z"/>
  </g>
  <text style="stroke:none;fill:black;font-family:sans-serif;font-size:13;font-weight:bold;" transform="matrix(1 0 0 1 263 1953)">Design Variations</text>
  <text style="stroke:none;fill:black;font-family:sans-serif;font-size:13;" transform="matrix(1 0 0 1 263 1971)">Symbols are supported in up to nine weights and three scales.</text>
  <text style="stroke:none;fill:black;font-family:sans-serif;font-size:13;" transform="matrix(1 0 0 1 263 1989)">For optimal layout with text and other symbols, vertically align</text>
  <text style="stroke:none;fill:black;font-family:sans-serif;font-size:13;" transform="matrix(1 0 0 1 263 2007)">symbols with the adjacent text.</text>
  <line style="fill:none;stroke:#00AEEF;stroke-width:0.5;opacity:1.0;" x1="776" x2="776" y1="1919" y2="1933"/>
  <g transform="matrix(1 0 0 1 776 1933)">
   <path d="M3.31055 0.15625Q3.70117 0.15625 3.91602-0.00976562Q4.13086-0.175781 4.26758-0.585938L5.52734-4.0332L11.2891-4.0332L12.5488-0.585938Q12.6855-0.175781 12.9004-0.00976562Q13.1152 0.15625 13.4961 0.15625Q13.8867 0.15625 14.1162-0.0585938Q14.3457-0.273438 14.3457-0.644531Q14.3457-0.869141 14.2383-1.17188L9.6582-13.3691Q9.48242-13.8184 9.17969-14.043Q8.87695-14.2676 8.4082-14.2676Q7.5-14.2676 7.17773-13.3789L2.59766-1.16211Q2.49023-0.859375 2.49023-0.634766Q2.49023-0.263672 2.70996-0.0537109Q2.92969 0.15625 3.31055 0.15625ZM6.00586-5.51758L8.37891-12.0898L8.42773-12.0898L10.8008-5.51758Z"/>
  </g>
  <line style="fill:none;stroke:#00AEEF;stroke-width:0.5;opacity:1.0;" x1="793.197" x2="793.197" y1="1919" y2="1933"/>
  <text style="stroke:none;fill:black;font-family:sans-serif;font-size:13;font-weight:bold;" transform="matrix(1 0 0 1 776 1953)">Margins</text>
  <text style="stroke:none;fill:black;font-family:sans-serif;font-size:13;" transform="matrix(1 0 0 1 776 1971)">Leading and trailing margins on the left and right side of each symbol</text>
  <text style="stroke:none;fill:black;font-family:sans-serif;font-size:13;" transform="matrix(1 0 0 1 776 1989)">can be adjusted by modifying the x-location of the margin guidelines.</text>
  <text style="stroke:none;fill:black;font-family:sans-serif;font-size:13;" transform="matrix(1 0 0 1 776 2007)">Modifications are automatically applied proportionally to all</text>
  <text style="stroke:none;fill:black;font-family:sans-serif;font-size:13;" transform="matrix(1 0 0 1 776 2025)">scales and weights.</text>
  <g transform="matrix(1 0 0 1 1289 1933)">
   <path d="M2.8418 1.86523L4.54102 3.57422Q5.18555 4.22852 5.90332 4.17969Q6.62109 4.13086 7.31445 3.35938L18.0078-8.42773L17.041-9.4043L6.42578 2.27539Q6.16211 2.57812 5.89355 2.61719Q5.625 2.65625 5.27344 2.30469L4.10156 1.14258Q3.75 0.791016 3.79395 0.522461Q3.83789 0.253906 4.14062-0.0195312L15.6152-10.8203L14.6387-11.7871L3.04688-0.898438Q2.30469-0.214844 2.25098 0.498047Q2.19727 1.21094 2.8418 1.86523ZM9.25781-16.3281Q8.94531-16.0254 8.90625-15.6348Q8.86719-15.2441 9.04297-14.9512Q9.21875-14.6777 9.55566-14.541Q9.89258-14.4043 10.3809-14.5215Q11.4746-14.7754 12.5977-14.7314Q13.7207-14.6875 14.7949-13.9844L14.209-12.5293Q13.9551-11.9043 14.0674-11.4404Q14.1797-10.9766 14.5801-10.5664L16.875-8.25195Q17.2363-7.88086 17.5781-7.82227Q17.9199-7.76367 18.3398-7.8418L19.4043-8.03711L20.0684-7.36328L20.0293-6.80664Q20-6.43555 20.1221-6.12305Q20.2441-5.81055 20.6055-5.44922L21.3672-4.70703Q21.7285-4.3457 22.1533-4.33105Q22.5781-4.31641 22.9297-4.66797L25.8398-7.58789Q26.1914-7.93945 26.1816-8.35449Q26.1719-8.76953 25.8105-9.13086L25.0391-9.89258Q24.6875-10.2539 24.3799-10.3857Q24.0723-10.5176 23.7109-10.4883L23.1348-10.4395L22.4902-11.0742L22.7344-12.1973Q22.832-12.6172 22.6953-12.9834Q22.5586-13.3496 22.1191-13.7891L19.9219-15.9766Q18.6719-17.2168 17.2607-17.8369Q15.8496-18.457 14.4189-18.4814Q12.9883-18.5059 11.665-17.959Q10.3418-17.4121 9.25781-16.3281ZM10.752-15.957Q11.6602-16.6211 12.7002-16.9043Q13.7402-17.1875 14.8047-17.085Q15.8691-16.9824 16.8701-16.5137Q17.8711-16.0449 18.7012-15.2051L21.1328-12.793Q21.3086-12.6172 21.3525-12.4512Q21.3965-12.2852 21.3379-12.0312L21.0156-10.5469L22.5195-9.0625L23.5059-9.12109Q23.6914-9.13086 23.7891-9.09668Q23.8867-9.0625 24.0332-8.91602L24.6094-8.33984L22.168-5.89844L21.5918-6.47461Q21.4453-6.62109 21.4062-6.71875Q21.3672-6.81641 21.377-7.01172L21.4453-7.98828L19.9512-9.47266L18.4277-9.21875Q18.1836-9.16992 18.042-9.2041Q17.9004-9.23828 17.7148-9.41406L15.7129-11.416Q15.5176-11.5918 15.4932-11.7529Q15.4688-11.9141 15.5859-12.1875L16.4648-14.2773Q15.293-15.3711 13.8281-15.791Q12.3633-16.2109 10.8398-15.7617Q10.7227-15.7324 10.6885-15.8057Q10.6543-15.8789 10.752-15.957Z"/>
  </g>
  <text style="stroke:none;fill:black;font-family:sans-serif;font-size:13;font-weight:bold;" transform="matrix(1 0 0 1 1289 1953)">Exporting</text>
  <text style="stroke:none;fill:black;font-family:sans-serif;font-size:13;" transform="matrix(1 0 0 1 1289 1971)">Symbols should be outlined when exporting to ensure the</text>
  <text style="stroke:none;fill:black;font-family:sans-serif;font-size:13;" transform="matrix(1 0 0 1 1289 1989)">design is preserved when submitting to Xcode.</text>
  <text id="template-version" style="stroke:none;fill:black;font-family:sans-serif;font-size:13;text-anchor:end;" transform="matrix(1 0 0 1 3036 1933)">Template v.3.0</text>
  <text style="stroke:none;fill:black;font-family:sans-serif;font-size:13;text-anchor:end;" transform="matrix(1 0 0 1 3036 1951)">Requires Xcode 13 or greater</text>
  <text id="descriptive-name" style="stroke:none;fill:black;font-family:sans-serif;font-size:13;text-anchor:end;" transform="matrix(1 0 0 1 3036 1969)">Generated from custom.arrow.left.arrow.right.2</text>
  <text style="stroke:none;fill:black;font-family:sans-serif;font-size:13;text-anchor:end;" transform="matrix(1 0 0 1 3036 1987)">Typeset at 100 points</text>
  <text style="stroke:none;fill:black;font-family:sans-serif;font-size:13;" transform="matrix(1 0 0 1 263 726)">Small</text>
  <text style="stroke:none;fill:black;font-family:sans-serif;font-size:13;" transform="matrix(1 0 0 1 263 1156)">Medium</text>
  <text style="stroke:none;fill:black;font-family:sans-serif;font-size:13;" transform="matrix(1 0 0 1 263 1586)">Large</text>
 </g>
 <g id="Guides">
  <g id="H-reference" style="fill:#27AAE1;stroke:none;" transform="matrix(1 0 0 1 339 696)">
   <path d="M0.976562 0L3.66211 0L29.3457-67.1387L30.0293-67.1387L30.0293-70.459L28.125-70.459ZM11.6699-24.4629L46.9727-24.4629L46.2402-26.709L12.4512-26.709ZM55.127 0L57.7637 0L30.6152-70.459L29.4434-70.459L29.4434-67.1387Z"/>
  </g>
  <line id="Baseline-S" style="fill:none;stroke:#27AAE1;opacity:1;stroke-width:0.5;" x1="263" x2="3036" y1="696" y2="696"/>
  <line id="Capline-S" style="fill:none;stroke:#27AAE1;opacity:1;stroke-width:0.5;" x1="263" x2="3036" y1="625.541" y2="625.541"/>
  <g id="H-reference" style="fill:#27AAE1;stroke:none;" transform="matrix(1 0 0 1 339 1126)">
   <path d="M0.976562 0L3.66211 0L29.3457-67.1387L30.0293-67.1387L30.0293-70.459L28.125-70.459ZM11.6699-24.4629L46.9727-24.4629L46.2402-26.709L12.4512-26.709ZM55.127 0L57.7637 0L30.6152-70.459L29.4434-70.459L29.4434-67.1387Z"/>
  </g>
  <line id="Baseline-M" style="fill:none;stroke:#27AAE1;opacity:1;stroke-width:0.5;" x1="263" x2="3036" y1="1126" y2="1126"/>
  <line id="Capline-M" style="fill:none;stroke:#27AAE1;opacity:1;stroke-width:0.5;" x1="263" x2="3036" y1="1055.54" y2="1055.54"/>
  <g id="H-reference" style="fill:#27AAE1;stroke:none;" transform="matrix(1 0 0 1 339 1556)">
   <path d="M0.976562 0L3.66211 0L29.3457-67.1387L30.0293-67.1387L30.0293-70.459L28.125-70.459ZM11.6699-24.4629L46.9727-24.4629L46.2402-26.709L12.4512-26.709ZM55.127 0L57.7637 0L30.6152-70.459L29.4434-70.459L29.4434-67.1387Z"/>
  </g>
  <line id="Baseline-L" style="fill:none;stroke:#27AAE1;opacity:1;stroke-width:0.5;" x1="263" x2="3036" y1="1556" y2="1556"/>
  <line id="Capline-L" style="fill:none;stroke:#27AAE1;opacity:1;stroke-width:0.5;" x1="263" x2="3036" y1="1485.54" y2="1485.54"/>
  <line id="left-margin-Regular-M" style="fill:none;stroke:#00AEEF;stroke-width:0.5;opacity:1.0;" x1="1389.65" x2="1389.65" y1="1030.78" y2="1150.12"/>
  <line id="right-margin-Regular-M" style="fill:none;stroke:#00AEEF;stroke-width:0.5;opacity:1.0;" x1="1510.04" x2="1510.04" y1="1030.78" y2="1150.12"/>
 </g>
 <g id="Symbols">
  <g id="Black-L" transform="matrix(1 0 0 1 2852.35 1556)">
   <path class="multicolor-0:systemRedColor SFSymbolsPreviewFF3B30" d="M141.941 10.0391C144.111 7.95888 145.196 5.46927 145.196 2.57029C145.196-0.328769 144.111-2.81754 141.941-4.89603L109.377-36.5127C107.349-38.5402 104.934-39.5539 102.132-39.5539C99.2127-39.5539 96.8096-38.6106 94.9227-36.724C93.0357-34.8375 92.0921-32.4346 92.0921-29.5153C92.0921-26.6487 93.0467-24.3128 94.9558-22.5077L108.077-10.0197L111.23-7.34737L101.343-7.53775L27.0265-7.53775C24.16-7.53775 21.7568-6.57782 19.8171-4.65797C17.8773-2.73819 16.9074-0.325102 16.9074 2.58129C16.9074 5.44867 17.8773 7.85201 19.8171 9.79131C21.7568 11.7306 24.16 12.7003 27.0265 12.7003L101.343 12.7003L111.23 12.5099L108.077 15.1615L94.9558 27.6702C93.0467 29.4753 92.0921 31.8112 92.0921 34.6778C92.0921 37.5971 93.0357 40 94.9227 41.8866C96.8096 43.7731 99.2127 44.7164 102.132 44.7164C104.934 44.7164 107.349 43.7027 109.377 41.6752L141.941 10.0391Z"/>
   <path class="multicolor-1:systemOrangeColor SFSymbolsPreviewFF9500" d="M20.1628-78.7713C17.9926-76.7058 16.9074-74.2198 16.9074-71.3134C16.9074-68.4071 17.9926-65.922 20.1628-63.8581L52.7265-32.2208C54.7539-30.1925 57.1689-29.1783 59.9715-29.1783C62.8917-29.1783 65.2951-30.1218 67.1816-32.0087C69.0681-33.8957 70.0114-36.2989 70.0114-39.2182C70.0114-42.0839 69.0569-44.4198 67.1479-46.2258L54.0268-58.7345L50.8739-61.3849L60.76-61.1958L135.077-61.1958C137.996-61.1958 140.413-62.1652 142.326-64.104C144.239-66.0429 145.196-68.4465 145.196-71.3147C145.196-74.2211 144.239-76.6342 142.326-78.554C140.413-80.4739 137.996-81.4338 135.077-81.4338L60.76-81.4338L50.8739-81.2434L54.0268-83.895L67.1479-96.4036C69.0569-98.2088 70.0114-100.545 70.0114-103.411C70.0114-106.331 69.0681-108.734 67.1816-110.62C65.2951-112.507 62.8917-113.45 59.9715-113.45C57.1689-113.45 54.7539-112.436 52.7265-110.409L20.1628-78.7713Z"/>
  </g>
  <g id="Heavy-L" transform="matrix(1 0 0 1 2556.53 1556)">
   <path class="multicolor-0:systemRedColor SFSymbolsPreviewFF3B30" d="M140.519 9.10158C142.451 7.24058 143.417 5.02651 143.417 2.45937C143.417-0.107828 142.451-2.31789 140.519-4.17083L107.979-35.8302C106.164-37.6416 104.014-38.5473 101.53-38.5473C98.9352-38.5473 96.803-37.7136 95.1336-36.0461C93.464-34.3786 92.6292-32.2475 92.6292-29.6526C92.6292-27.125 93.4775-25.0496 95.174-23.4267L108.476-10.7193L113.686-6.212L102.728-6.49793L25.8827-6.49793C23.3374-6.49793 21.2052-5.64683 19.4861-3.94463C17.767-2.2425 16.9074-0.101865 16.9074 2.47726C16.9074 5.02658 17.767 7.15977 19.4861 8.87683C21.2052 10.5939 23.3374 11.4524 25.8827 11.4524L102.728 11.4524L113.686 11.1665L108.476 15.644L95.174 28.3811C93.4775 30.0041 92.6292 32.0794 92.6292 34.607C92.6292 37.2019 93.464 39.3331 95.1336 41.0006C96.803 42.6681 98.9352 43.5018 101.53 43.5018C104.014 43.5018 106.164 42.5961 107.979 40.7847L140.519 9.10158Z"/>
   <path class="multicolor-1:systemOrangeColor SFSymbolsPreviewFF9500" d="M19.8059-77.8385C17.8736-76.0014 16.9074-73.7933 16.9074-71.2142C16.9074-68.6351 17.8736-66.431 19.8059-64.6019L52.3458-32.9128C54.1573-31.0974 56.3069-30.1896 58.7949-30.1896C61.3938-30.1896 63.527-31.0244 65.1945-32.6938C66.862-34.3633 67.6957-36.4955 67.6957-39.0904C67.6957-41.614 66.8475-43.6893 65.151-45.3163L51.8486-58.0534L46.6387-62.525L57.5967-62.2451L134.442-62.2451C137.037-62.2451 139.182-63.1026 140.876-64.8176C142.57-66.5327 143.417-68.6669 143.417-71.2202C143.417-73.7993 142.57-75.94 140.876-77.6421C139.182-79.3443 137.037-80.1955 134.442-80.1955L57.5967-80.1955L46.6387-79.9095L51.8486-84.387L65.151-97.1241C66.8475-98.7471 67.6957-100.822 67.6957-103.35C67.6957-105.945 66.862-108.076 65.1945-109.744C63.527-111.411 61.3938-112.245 58.7949-112.245C56.3069-112.245 54.1573-111.339 52.3458-109.528L19.8059-77.8385Z"/>
  </g>
  <g id="Bold-L" transform="matrix(1 0 0 1 2260.99 1556)">
   <path class="multicolor-0:systemRedColor SFSymbolsPreviewFF3B30" d="M138.635 7.87725C140.263 6.29411 141.077 4.42856 141.077 2.28061C141.077 0.132612 140.263-1.72346 138.635-3.28762L106.136-35.0207C104.588-36.5597 102.77-37.3292 100.684-37.3292C98.5038-37.3292 96.715-36.6329 95.3176-35.2402C93.9202-33.8476 93.2215-32.0611 93.2215-29.881C93.2215-27.7709 93.9393-26.0197 95.3749-24.6274L109.007-11.525L116.578-4.84694L104.482-5.22249L24.4362-5.22249C22.3001-5.22249 20.5113-4.50897 19.0698-3.08191C17.6282-1.65489 16.9074 0.141143 16.9074 2.3062C16.9074 4.45175 17.6282 6.24293 19.0698 7.67973C20.5113 9.1165 22.3001 9.83489 24.4362 9.83489L104.482 9.83489L116.578 9.45933L109.007 16.1004L95.3749 29.2398C93.9393 30.6321 93.2215 32.3833 93.2215 34.4933C93.2215 36.6735 93.9202 38.46 95.3176 39.8526C96.715 41.2453 98.5038 41.9416 100.684 41.9416C102.77 41.9416 104.588 41.1721 106.136 39.6331L138.635 7.87725Z"/>
   <path class="multicolor-1:systemOrangeColor SFSymbolsPreviewFF9500" d="M19.3492-76.6224C17.7213-75.0734 16.9074-73.2164 16.9074-71.0513C16.9074-68.8863 17.7213-67.0388 19.3492-65.5087L51.8481-33.7387C53.3871-32.1902 55.2045-31.4159 57.3002-31.4159C59.4899-31.4159 61.2811-32.1146 62.6737-33.512C64.0664-34.9094 64.7628-36.6982 64.7628-38.8785C64.7628-40.979 64.045-42.7301 62.6093-44.132L48.9774-57.2714L41.4059-63.8983L53.5025-63.5369L133.548-63.5369C135.728-63.5369 137.528-64.2529 138.948-65.6849C140.367-67.117 141.077-68.9105 141.077-71.0656C141.077-73.2306 140.367-75.0266 138.948-76.4537C137.528-77.8808 135.728-78.5943 133.548-78.5943L53.5025-78.5943L41.4059-78.2187L48.9774-84.8597L62.6093-97.9991C64.045-99.3915 64.7628-101.143 64.7628-103.253C64.7628-105.433 64.0664-107.219 62.6737-108.612C61.2811-110.005 59.4899-110.701 57.3002-110.701C55.2045-110.701 53.3871-109.931 51.8481-108.392L19.3492-76.6224Z"/>
  </g>
  <g id="Semibold-L" transform="matrix(1 0 0 1 1965.08 1556)">
   <path class="multicolor-0:systemRedColor SFSymbolsPreviewFF3B30" d="M137.336 7.0332C138.754 5.64162 139.463 4.01634 139.463 2.15737C139.463 0.29837 138.754-1.31367 137.336-2.67875L104.866-34.4626C103.501-35.8138 101.913-36.4894 100.101-36.4894C98.2064-36.4894 96.6543-35.8878 95.4445-34.6846C94.2347-33.4814 93.6297-31.9327 93.6297-30.0384C93.6297-28.2163 94.2576-26.6885 95.5134-25.4551L109.373-12.0804L118.572-3.90587L105.69-4.34322L23.439-4.34322C21.5851-4.34322 20.033-3.72453 18.7828-2.48715C17.5326-1.2498 16.9074 0.308672 16.9074 2.18827C16.9074 4.05547 17.5326 5.61086 18.7828 6.85445C20.033 8.09801 21.5851 8.71979 23.439 8.71979L105.69 8.71979L118.572 8.28244L109.373 16.415L95.5134 29.8317C94.2576 31.0651 93.6297 32.5928 93.6297 34.4149C93.6297 36.3092 94.2347 37.858 95.4445 39.0612C96.6543 40.2644 98.2064 40.866 100.101 40.866C101.913 40.866 103.501 40.1904 104.866 38.8392L137.336 7.0332Z"/>
   <path class="multicolor-1:systemOrangeColor SFSymbolsPreviewFF9500" d="M19.0343-75.784C17.6164-74.4337 16.9074-72.8187 16.9074-70.9391C16.9074-69.0595 17.6164-67.4578 19.0343-66.1339L51.505-34.308C52.8562-32.9435 54.4445-32.2613 56.2698-32.2613C58.1774-32.2613 59.7328-32.8662 60.9359-34.076C62.1392-35.2859 62.7408-36.838 62.7408-38.7323C62.7408-40.5412 62.1129-42.0689 60.8571-43.3155L46.998-56.7322L37.7984-64.845L50.6801-64.4274L132.932-64.4274C134.826-64.4274 136.388-65.0459 137.618-66.2829C138.848-67.5198 139.463-69.0785 139.463-70.9589C139.463-72.8385 138.848-74.397 137.618-75.6344C136.388-76.8718 134.826-77.4905 132.932-77.4905L50.6801-77.4905L37.7984-77.0531L46.998-85.1856L60.8571-98.6024C62.1129-99.8357 62.7408-101.363 62.7408-103.186C62.7408-105.08 62.1392-106.629 60.9359-107.832C59.7328-109.035 58.1774-109.637 56.2698-109.637C54.4445-109.637 52.8562-108.961 51.505-107.61L19.0343-75.784Z"/>
  </g>
  <g id="Medium-L" transform="matrix(1 0 0 1 1668.98 1556)">
   <path class="multicolor-0:systemRedColor SFSymbolsPreviewFF3B30" d="M136.351 6.39321C137.61 5.14687 138.24 3.70378 138.24 2.06392C138.24 0.424054 137.61-1.00294 136.351-2.21707L103.902-34.0394C102.677-35.2483 101.263-35.8527 99.6584-35.8527C97.9809-35.8527 96.6083-35.3229 95.5407-34.2634C94.4731-33.2038 93.9393-31.8353 93.9393-30.1578C93.9393-28.5539 94.499-27.1956 95.6185-26.0828L109.65-12.5015L120.084-3.19232L106.607-3.67651L22.6829-3.67651C21.0429-3.67651 19.6703-3.12974 18.5652-2.03619C17.46-0.942649 16.9074 0.435699 16.9074 2.09886C16.9074 3.75499 17.46 5.1316 18.5652 6.22869C19.6703 7.32574 21.0429 7.87426 22.6829 7.87426L106.607 7.87426L120.084 7.39007L109.65 16.6535L95.6185 30.2806C94.499 31.3934 93.9393 32.7517 93.9393 34.3555C93.9393 36.033 94.4731 37.4016 95.5407 38.4611C96.6083 39.5207 97.9809 40.0505 99.6584 40.0505C101.263 40.0505 102.677 39.4461 103.902 38.2372L136.351 6.39321Z"/>
   <path class="multicolor-1:systemOrangeColor SFSymbolsPreviewFF9500" d="M18.7955-75.1483C17.5368-73.9486 16.9074-72.5171 16.9074-70.854C16.9074-69.1908 17.5368-67.7755 18.7955-66.6079L51.2448-34.7397C52.4537-33.5148 53.8682-32.9023 55.4885-32.9023C57.1822-32.9023 58.5587-33.4361 59.6183-34.5037C60.6779-35.5713 61.2077-36.944 61.2077-38.6215C61.2077-40.2092 60.648-41.5675 59.5285-42.6964L45.4971-56.3234L35.0631-65.5628L48.5399-65.1027L132.464-65.1027C134.142-65.1027 135.524-65.6472 136.61-66.7362C137.696-67.8252 138.24-69.2059 138.24-70.8781C138.24-72.5413 137.696-73.9196 136.61-75.0131C135.524-76.1068 134.142-76.6536 132.464-76.6536L48.5399-76.6536L35.0631-76.1693L45.4971-85.4327L59.5285-99.0598C60.648-100.173 61.2077-101.531 61.2077-103.135C61.2077-104.812 60.6779-106.181 59.6183-107.24C58.5587-108.3 57.1822-108.83 55.4885-108.83C53.8682-108.83 52.4537-108.225 51.2448-107.016L18.7955-75.1483Z"/>
  </g>
  <g id="Regular-L" transform="matrix(1 0 0 1 1373.07 1556)">
   <path class="multicolor-0:systemRedColor SFSymbolsPreviewFF3B30" d="M135.067 5.55843C136.118 4.50155 136.644 3.29609 136.644 1.94204C136.644 0.587991 136.118-0.597652 135.067-1.61489L102.646-33.4875C101.603-34.5106 100.415-35.0222 99.0816-35.0222C97.6868-35.0222 96.5483-34.5861 95.6662-33.7139C94.7841-32.8417 94.3431-31.7083 94.3431-30.3135C94.3431-28.9944 94.8139-27.857 95.7555-26.9014L110.012-13.0508L122.056-2.2616L107.803-2.8069L21.6967-2.8069C20.3356-2.8069 19.1972-2.35392 18.2813-1.44797C17.3654-0.542011 16.9074 0.601387 16.9074 1.98223C16.9074 3.36307 17.3654 4.50649 18.2813 5.41248C19.1972 6.31843 20.3356 6.77141 21.6967 6.77141L107.803 6.77141L122.056 6.22611L110.012 16.9647L95.7555 30.866C94.8139 31.8215 94.3431 32.9589 94.3431 34.278C94.3431 35.6728 94.7841 36.8062 95.6662 37.6784C96.5483 38.5506 97.6868 38.9867 99.0816 38.9867C100.415 38.9867 101.603 38.4752 102.646 37.4521L135.067 5.55843Z"/>
   <path class="multicolor-1:systemOrangeColor SFSymbolsPreviewFF9500" d="M18.4841-74.3191C17.433-73.3158 16.9074-72.1238 16.9074-70.7429C16.9074-69.3621 17.433-68.1898 18.4841-67.2262L50.9055-35.3028C51.9286-34.2599 53.1166-33.7384 54.4695-33.7384C55.884-33.7384 57.0274-34.1794 57.8996-35.0615C58.7719-35.9437 59.208-37.0822 59.208-38.477C59.208-39.7762 58.7372-40.9136 57.7955-41.8889L43.5395-55.7902L31.4953-66.4991L45.7485-65.9835L131.854-65.9835C133.249-65.9835 134.396-66.4315 135.295-67.3276C136.194-68.2236 136.644-69.372 136.644-70.7726C136.644-72.1535 136.194-73.2969 135.295-74.2028C134.396-75.1089 133.249-75.5619 131.854-75.5619L45.7485-75.5619L31.4953-75.0165L43.5395-85.755L57.7955-99.6564C58.7372-100.612 59.208-101.749 59.208-103.068C59.208-104.463 58.7719-105.597 57.8996-106.469C57.0274-107.341 55.884-107.777 54.4695-107.777C53.1166-107.777 51.9286-107.266 50.9055-106.242L18.4841-74.3191Z"/>
  </g>
  <g id="Light-L" transform="matrix(1 0 0 1 1077.61 1556)">
   <path class="multicolor-0:systemRedColor SFSymbolsPreviewFF3B30" d="M132.974 4.30659C133.751 3.4823 134.14 2.56415 134.14 1.55214C134.14 0.54012 133.751-0.344539 132.974-1.10184L100.655-33.1592C99.8172-33.9634 98.8823-34.3654 97.8503-34.3654C96.8248-34.3654 95.9737-34.0354 95.2968-33.3753C94.62-32.7152 94.2815-31.8724 94.2815-30.847C94.2815-29.8016 94.6702-28.8968 95.4476-28.1327L110.607-13.215L123.082-1.58438L109.26-2.00658L20.5064-2.00658C19.5011-2.00658 18.6499-1.66647 17.953-0.986236C17.256-0.306004 16.9074 0.553516 16.9074 1.59232C16.9074 2.63113 17.256 3.49066 17.953 4.17092C18.6499 4.8511 19.5011 5.1912 20.5064 5.1912L109.26 5.1912L123.082 4.76907L110.607 16.3695L95.4476 31.3175C94.6702 32.0815 94.2815 32.9862 94.2815 34.0317C94.2815 35.0571 94.62 35.8999 95.2968 36.56C95.9737 37.2201 96.8248 37.5502 97.8503 37.5502C98.8823 37.5502 99.8172 37.1481 100.655 36.3439L132.974 4.30659Z"/>
   <path class="multicolor-1:systemOrangeColor SFSymbolsPreviewFF9500" d="M18.0736-73.0878C17.2962-72.3171 16.9074-71.4123 16.9074-70.3735C16.9074-69.3347 17.2962-68.4635 18.0736-67.7597L50.3924-35.6722C51.1966-34.8345 52.1315-34.4156 53.1971-34.4156C54.256-34.4156 55.1154-34.754 55.7756-35.4309C56.4358-36.1078 56.7659-36.959 56.7659-37.9844C56.7659-38.9964 56.3771-39.9011 55.5997-40.6986L40.4407-55.6465L27.9656-67.1968L41.7878-66.8249L130.541-66.8249C131.566-66.8249 132.422-67.1566 133.109-67.8201C133.796-68.4836 134.14-69.3515 134.14-70.4238C134.14-71.4626 133.796-72.3221 133.109-73.0023C132.422-73.6826 131.566-74.0227 130.541-74.0227L41.7878-74.0227L27.9656-73.6005L40.4407-85.201L55.5997-100.149C56.3771-100.913 56.7659-101.818 56.7659-102.863C56.7659-103.889 56.4358-104.731 55.7756-105.391C55.1154-106.052 54.256-106.382 53.1971-106.382C52.1315-106.382 51.1966-105.98 50.3924-105.175L18.0736-73.0878Z"/>
  </g>
  <g id="Thin-L" transform="matrix(1 0 0 1 782.555 1556)">
   <path class="multicolor-0:systemRedColor SFSymbolsPreviewFF3B30" d="M130.205 2.65093C130.621 2.13427 130.828 1.59611 130.828 1.03646C130.828 0.476807 130.621-0.00977714 130.205-0.423293L98.0222-32.7249C97.4559-33.2396 96.8557-33.4969 96.2217-33.4969C95.6849-33.4969 95.2137-33.3071 94.8082-32.9275C94.4028-32.5479 94.2002-32.0896 94.2002-31.5527C94.2002-30.8691 94.4802-30.272 95.0404-29.7613L111.394-13.4322L124.439-0.688716L111.187-0.948102L18.9322-0.948102C18.3973-0.948102 17.9261-0.757255 17.5187-0.375561C17.1112 0.00613353 16.9074 0.490202 16.9074 1.07665C16.9074 1.66309 17.1112 2.14716 17.5187 2.52886C17.9261 2.91045 18.3973 3.10124 18.9322 3.10124L111.187 3.10124L124.439 2.84201L111.394 15.5824L95.0404 31.9146C94.4802 32.4253 94.2002 33.0224 94.2002 33.706C94.2002 34.2428 94.4028 34.7011 94.8082 35.0808C95.2137 35.4604 95.6849 35.6503 96.2217 35.6503C96.8557 35.6503 97.4559 35.3929 98.0222 34.8782L130.205 2.65093Z"/>
   <path class="multicolor-1:systemOrangeColor SFSymbolsPreviewFF9500" d="M17.5307-71.4593C17.1152-70.9962 16.9074-70.4714 16.9074-69.885C16.9074-69.2985 17.1152-68.8254 17.5307-68.4654L49.7139-36.1608C50.2285-35.5944 50.8287-35.3113 51.5143-35.3113C52.1027-35.3113 52.5867-35.514 52.9664-35.9195C53.3461-36.3249 53.5359-36.7961 53.5359-37.333C53.5359-37.965 53.2558-38.5621 52.6955-39.1244L36.3423-55.4565L23.2972-68.1196L36.5494-67.9377L128.804-67.9377C129.341-67.9377 129.812-68.1156 130.219-68.4715C130.625-68.8274 130.828-69.3243 130.828-69.9623C130.828-70.5488 130.625-71.0329 130.219-71.4145C129.812-71.7962 129.341-71.9871 128.804-71.9871L36.5494-71.9871L23.2972-71.7277L36.3423-84.4682L52.6955-100.8C53.2558-101.311 53.5359-101.908 53.5359-102.592C53.5359-103.129 53.3461-103.587 52.9664-103.967C52.5867-104.346 52.1027-104.536 51.5143-104.536C50.8287-104.536 50.2285-104.279 49.7139-103.764L17.5307-71.4593Z"/>
  </g>
  <g id="Ultralight-L" transform="matrix(1 0 0 1 486.691 1556)">
   <path class="multicolor-0:systemRedColor SFSymbolsPreviewFF3B30" d="M128.787 1.80291C129.017 1.44381 129.132 1.10028 129.132 0.772331C129.132 0.444378 129.017 0.161686 128.787-0.0757442L96.6737-32.5025C96.2464-32.8689 95.8177-33.052 95.3876-33.052C95.101-33.052 94.8244-32.9341 94.5579-32.6982C94.2916-32.4621 94.1585-32.2008 94.1585-31.9141C94.1585-31.4159 94.3829-30.9764 94.8319-30.5954L111.797-13.5434L125.134-0.229959L112.174-0.405952L18.1259-0.405952C17.832-0.405952 17.5554-0.29156 17.2962-0.0627755C17.037 0.166009 16.9074 0.457774 16.9074 0.812518C16.9074 1.16726 17.037 1.45902 17.2962 1.6878C17.5554 1.91645 17.832 2.03078 18.1259 2.03078L112.174 2.03078L125.134 1.85498L111.797 15.1792L94.8319 32.2204C94.3829 32.6014 94.1585 33.041 94.1585 33.5392C94.1585 33.8258 94.2916 34.0871 94.5579 34.3231C94.8244 34.5591 95.101 34.6771 95.3876 34.6771C95.8177 34.6771 96.2464 34.4939 96.6737 34.1275L128.787 1.80291Z"/>
   <path class="multicolor-1:systemOrangeColor SFSymbolsPreviewFF9500" d="M17.2527-70.6251C17.0225-70.3196 16.9074-69.9895 16.9074-69.6347C16.9074-69.28 17.0225-69.0107 17.2527-68.8269L49.3663-36.411C49.7327-35.9837 50.1614-35.77 50.6524-35.77C50.9998-35.77 51.2915-35.9033 51.5275-36.1697C51.7636-36.4361 51.8816-36.7127 51.8816-36.9994C51.8816-37.4367 51.657-37.8763 51.208-38.3181L34.2431-55.3592L20.906-68.5923L33.8663-68.5077L127.914-68.5077C128.201-68.5077 128.475-68.6069 128.738-68.8051C129.001-69.0034 129.132-69.3104 129.132-69.726C129.132-70.0807 129.001-70.3725 128.738-70.6013C128.475-70.8301 128.201-70.9444 127.914-70.9444L33.8663-70.9444L20.906-70.7685L34.2431-84.0928L51.208-101.134C51.657-101.515 51.8816-101.954 51.8816-102.453C51.8816-102.739 51.7636-103.001 51.5275-103.237C51.2915-103.473 50.9998-103.591 50.6524-103.591C50.1614-103.591 49.7327-103.407 49.3663-103.041L17.2527-70.6251Z"/>
  </g>
  <g id="Black-M" transform="matrix(1 0 0 1 2870.01 1126)">
   <path class="multicolor-0:systemRedColor SFSymbolsPreviewFF3B30" d="M110.906 0.478028C112.754-1.29053 113.679-3.41721 113.679-5.90203C113.679-8.38692 112.754-10.5138 110.906-12.2828L85.6707-36.7658C83.9441-38.4926 81.8794-39.356 79.4765-39.356C76.986-39.356 74.9303-38.5454 73.3093-36.9242C71.6882-35.3031 70.8777-33.2474 70.8777-30.757C70.8777-28.2818 71.6974-26.2796 73.3369-24.7505L83.4688-15.1195L84.202-14.5122L77.5223-14.5609L21.7604-14.5609C19.3117-14.5609 17.2559-13.7389 15.5931-12.0951C13.9303-10.4513 13.0989-8.38605 13.0989-5.89942C13.0989-3.45093 13.9303-1.39525 15.5931 0.267619C17.2559 1.9305 19.3117 2.76194 21.7604 2.76194L77.5223 2.76194L84.202 2.71323L83.4688 3.31503L73.3369 12.9515C71.6974 14.4807 70.8777 16.4828 70.8777 18.958C70.8777 21.4484 71.6882 23.5042 73.3093 25.1254C74.9303 26.7465 76.986 27.5571 79.4765 27.5571C81.8794 27.5571 83.9441 26.6937 85.6707 24.9669L110.906 0.478028Z"/>
   <path class="multicolor-1:systemOrangeColor SFSymbolsPreviewFF9500" d="M15.8721-69.5981C14.0233-67.8331 13.0989-65.7072 13.0989-63.2206C13.0989-60.7341 14.0233-58.608 15.8721-56.8425L41.107-32.354C42.8338-30.6274 44.8986-29.7641 47.3013-29.7641C49.7916-29.7641 51.8473-30.5746 53.4684-32.1956C55.0895-33.8166 55.9-35.8724 55.9-38.3629C55.9-40.8382 55.0803-42.8404 53.4409-44.3693L43.309-54.0059L42.5758-54.608L49.2554-54.559L105.017-54.559C107.508-54.559 109.574-55.3904 111.216-57.0533C112.858-58.7163 113.679-60.772 113.679-63.2203C113.679-65.7069 112.858-67.7721 111.216-69.4159C109.574-71.0598 107.508-71.8818 105.017-71.8818L49.2554-71.8818L42.5758-71.8331L43.309-72.4349L53.4409-82.0713C55.0803-83.6005 55.9-85.6026 55.9-88.0777C55.9-90.5682 55.0895-92.624 53.4684-94.2451C51.8473-95.8663 49.7916-96.6769 47.3013-96.6769C44.8986-96.6769 42.8338-95.8135 41.107-94.0866L15.8721-69.5981Z"/>
  </g>
  <g id="Heavy-M" transform="matrix(1 0 0 1 2574.06 1126)">
   <path class="multicolor-0:systemRedColor SFSymbolsPreviewFF3B30" d="M109.709-0.322993C111.35-1.89869 112.171-3.78252 112.171-5.97449C112.171-8.16652 111.35-10.0487 109.709-11.6211L84.4878-36.1289C82.9504-37.6647 81.1216-38.4326 79.0016-38.4326C76.7942-38.4326 74.9769-37.7193 73.5495-36.2927C72.1221-34.8662 71.4084-33.0493 71.4084-30.8419C71.4084-28.6729 72.1318-26.904 73.5787-25.5353L83.8046-15.7883L86.5089-13.4647L78.7416-13.6182L20.752-13.6182C18.5845-13.6182 16.7671-12.8922 15.2998-11.4403C13.8326-9.98847 13.0989-8.16341 13.0989-5.96515C13.0989-3.79604 13.8326-1.97826 15.2998-0.511813C16.7671 0.95463 18.5845 1.68785 20.752 1.68785L78.7416 1.68785L86.5089 1.53438L83.8046 3.84167L73.5787 13.6049C72.1318 14.9736 71.4084 16.7425 71.4084 18.9115C71.4084 21.1189 72.1221 22.9359 73.5495 24.3625C74.9769 25.789 76.7942 26.5022 79.0016 26.5022C81.1216 26.5022 82.9504 25.7343 84.4878 24.1986L109.709-0.322993Z"/>
   <path class="multicolor-1:systemOrangeColor SFSymbolsPreviewFF9500" d="M15.5611-68.7999C13.9196-67.2366 13.0989-65.3559 13.0989-63.1577C13.0989-60.9595 13.9196-59.0804 15.5611-57.5203L40.7823-32.9964C42.318-31.459 44.1468-30.6903 46.2684-30.6903C48.4775-30.6903 50.2953-31.4039 51.7218-32.8313C53.1483-34.2586 53.8616-36.076 53.8616-38.2834C53.8616-40.4508 53.1382-42.2196 51.6914-43.59L41.4656-53.3533L38.7612-55.6581L46.5284-55.5071L104.518-55.5071C106.726-55.5071 108.553-56.2399 110-57.7055C111.447-59.1711 112.171-60.9893 112.171-63.1601C112.171-65.3584 111.447-67.1834 110-68.6353C108.553-70.0872 106.726-70.8132 104.518-70.8132L46.5284-70.8132L38.7612-70.6597L41.4656-72.967L51.6914-82.7302C53.1382-84.0989 53.8616-85.8678 53.8616-88.0368C53.8616-90.2442 53.1483-92.0612 51.7218-93.4877C50.2953-94.9143 48.4775-95.6276 46.2684-95.6276C44.1468-95.6276 42.318-94.8596 40.7823-93.3238L15.5611-68.7999Z"/>
  </g>
  <g id="Bold-M" transform="matrix(1 0 0 1 2278.19 1126)">
   <path class="multicolor-0:systemRedColor SFSymbolsPreviewFF3B30" d="M108.37-1.21905C109.78-2.579 110.485-4.19117 110.485-6.05555C110.485-7.91997 109.78-9.52847 108.37-10.881L83.1645-35.4165C81.8387-36.7386 80.274-37.3996 78.4704-37.3996C76.5796-37.3996 75.0289-36.7952 73.8183-35.5863C72.6075-34.3775 72.0021-32.8277 72.0021-30.9369C72.0021-29.1104 72.6178-27.6025 73.8491-26.4132L84.1801-16.5364L89.0895-12.293L80.1056-12.5637L19.624-12.5637C17.7711-12.5637 16.2203-11.9451 14.9718-10.7079C13.7232-9.47076 13.0989-7.91435 13.0989-6.03868C13.0989-4.18209 13.7232-2.63043 14.9718-1.38372C16.2203-0.137017 17.7711 0.486335 19.624 0.486335L80.1056 0.486335L89.0895 0.215661L84.1801 4.43078L73.8491 14.3358C72.6178 15.5251 72.0021 17.033 72.0021 18.8595C72.0021 20.7503 72.6075 22.3001 73.8183 23.509C75.0289 24.7178 76.5796 25.3222 78.4704 25.3222C80.274 25.3222 81.8387 24.6612 83.1645 23.3391L108.37-1.21905Z"/>
   <path class="multicolor-1:systemOrangeColor SFSymbolsPreviewFF9500" d="M15.2132-67.9069C13.8037-66.5694 13.0989-64.9629 13.0989-63.0872C13.0989-61.2116 13.8037-59.6087 15.2132-58.2786L40.419-33.715C41.7411-32.3892 43.3058-31.7263 45.113-31.7263C47.0075-31.7263 48.5592-32.3316 49.768-33.5423C50.9769-34.753 51.5813-36.3038 51.5813-38.1946C51.5813-40.0174 50.9657-41.5253 49.7344-42.7183L39.4034-52.6233L34.494-56.8329L43.4778-56.5677L103.96-56.5677C105.85-56.5677 107.41-57.1902 108.64-58.435C109.87-59.6799 110.485-61.2325 110.485-63.0927C110.485-64.9684 109.87-66.5248 108.64-67.762C107.41-68.9992 105.85-69.6178 103.96-69.6178L43.4778-69.6178L34.494-69.3471L39.4034-73.5622L49.7344-83.4672C50.9657-84.6565 51.5813-86.1644 51.5813-87.9909C51.5813-89.8817 50.9769-91.4315 49.768-92.6404C48.5592-93.8493 47.0075-94.4537 45.113-94.4537C43.3058-94.4537 41.7411-93.7927 40.419-92.4705L15.2132-67.9069Z"/>
  </g>
  <g id="Semibold-M" transform="matrix(1 0 0 1 1982.06 1126)">
   <path class="multicolor-0:systemRedColor SFSymbolsPreviewFF3B30" d="M107.447-1.83679C108.697-3.04801 109.322-4.47289 109.322-6.11143C109.322-7.75 108.697-9.16979 107.447-10.3708L82.2522-34.9253C81.0723-36.1001 79.6896-36.6875 78.1042-36.6875C76.4317-36.6875 75.0648-36.1581 74.0035-35.0993C72.9421-34.0405 72.4114-32.6749 72.4114-31.0024C72.4114-29.412 72.9528-28.084 74.0355-27.0184L84.439-17.0521L90.8685-11.4853L81.0459-11.8367L18.8463-11.8367C17.2103-11.8367 15.8434-11.2921 14.7456-10.203C13.6478-9.11385 13.0989-7.74265 13.0989-6.08937C13.0989-4.44823 13.6478-3.08004 14.7456-1.98481C15.8434-0.889592 17.2103-0.341983 18.8463-0.341983L81.0459-0.341983L90.8685-0.693456L84.439 4.83692L74.0355 14.8397C72.9528 15.9053 72.4114 17.2333 72.4114 18.8237C72.4114 20.4962 72.9421 21.8618 74.0035 22.9206C75.0648 23.9794 76.4317 24.5088 78.1042 24.5088C79.6896 24.5088 81.0723 23.9214 82.2522 22.7466L107.447-1.83679Z"/>
   <path class="multicolor-1:systemOrangeColor SFSymbolsPreviewFF9500" d="M14.9733-67.2913C13.7237-66.1095 13.0989-64.692 13.0989-63.0387C13.0989-61.3854 13.7237-59.973 14.9733-58.8014L40.1685-34.2104C41.3433-33.0305 42.726-32.4405 44.3165-32.4405C45.9941-32.4405 47.3623-32.9712 48.4211-34.0325C49.4799-35.0938 50.0093-36.4608 50.0093-38.1333C50.0093-39.7186 49.4679-41.0466 48.3852-42.1173L37.9817-52.12L31.5522-57.6428L41.3748-57.2989L103.574-57.2989C105.247-57.2989 106.623-57.8453 107.702-58.938C108.782-60.0306 109.322-61.4001 109.322-63.0463C109.322-64.6996 108.782-66.0708 107.702-67.1599C106.623-68.2491 105.247-68.7937 103.574-68.7937L41.3748-68.7937L31.5522-68.4422L37.9817-73.9726L48.3852-83.9754C49.4679-85.0409 50.0093-86.3689 50.0093-87.9593C50.0093-89.6319 49.4799-90.9975 48.4211-92.0563C47.3623-93.1151 45.9941-93.6445 44.3165-93.6445C42.726-93.6445 41.3433-93.0571 40.1685-91.8823L14.9733-67.2913Z"/>
  </g>
  <g id="Medium-M" transform="matrix(1 0 0 1 1685.79 1126)">
   <path class="multicolor-0:systemRedColor SFSymbolsPreviewFF3B30" d="M106.748-2.30518C107.876-3.40363 108.44-4.6865 108.44-6.15381C108.44-7.62112 107.876-8.89783 106.748-9.98394L81.5605-34.5529C80.4912-35.616 79.2465-36.1475 77.8265-36.1475C76.3195-36.1475 75.092-35.675 74.144-34.73C73.1958-33.7851 72.7218-32.5591 72.7218-31.0521C72.7218-29.6407 73.2068-28.4491 74.1768-27.4773L84.6354-17.4432L92.2175-10.8728L81.7589-11.2855L18.2567-11.2855C16.7851-11.2855 15.5575-10.797 14.5741-9.82013C13.5906-8.84323 13.0989-7.61246 13.0989-6.12781C13.0989-4.65002 13.5906-3.42095 14.5741-2.44058C15.5575-1.46023 16.7851-0.970049 18.2567-0.970049L81.7589-0.970049L92.2175-1.38279L84.6354 5.14486L74.1768 15.2217C73.2068 16.1935 72.7218 17.3851 72.7218 18.7965C72.7218 20.3035 73.1958 21.5295 74.144 22.4745C75.092 23.4195 76.3195 23.892 77.8265 23.892C79.2465 23.892 80.4912 23.3604 81.5605 22.2973L106.748-2.30518Z"/>
   <path class="multicolor-1:systemOrangeColor SFSymbolsPreviewFF9500" d="M14.7915-66.8245C13.6631-65.7607 13.0989-64.4865 13.0989-63.0019C13.0989-61.5172 13.6631-60.2492 14.7915-59.1977L39.9786-34.586C41.0417-33.5167 42.2864-32.9821 43.7126-32.9821C45.2257-32.9821 46.4548-33.4561 47.3998-34.4042C48.3448-35.3523 48.8173-36.5798 48.8173-38.0868C48.8173-39.4921 48.3323-40.6836 47.3623-41.6616L36.9037-51.7384L29.3216-58.2569L39.7802-57.8534L103.282-57.8534C104.789-57.8534 106.026-58.342 106.991-59.3193C107.957-60.2966 108.44-61.5272 108.44-63.0111C108.44-64.4958 107.957-65.7265 106.991-66.7034C106.026-67.6804 104.789-68.1689 103.282-68.1689L39.7802-68.1689L29.3216-67.7561L36.9037-74.2837L47.3623-84.3606C48.3323-85.3324 48.8173-86.524 48.8173-87.9354C48.8173-89.4424 48.3448-90.6684 47.3998-91.6133C46.4548-92.5584 45.2257-93.0309 43.7126-93.0309C42.2864-93.0309 41.0417-92.4993 39.9786-91.4363L14.7915-66.8245Z"/>
  </g>
  <g id="Regular-M" transform="matrix(1 0 0 1 1389.65 1126)">
   <path class="multicolor-0:systemRedColor SFSymbolsPreviewFF3B30" d="M105.835-2.91613C106.805-3.86748 107.29-4.96513 107.29-6.20907C107.29-7.45302 106.805-8.5431 105.835-9.47932L80.6582-34.0671C79.7332-34.9845 78.6686-35.4432 77.4643-35.4432C76.1732-35.4432 75.1275-35.0449 74.3272-34.2484C73.5268-33.4518 73.1266-32.408 73.1266-31.1169C73.1266-29.939 73.5381-28.9253 74.3612-28.0758L84.8914-17.9533L93.977-10.0739L82.6889-10.5665L17.4876-10.5665C16.2305-10.5665 15.1847-10.1513 14.3504-9.32076C13.5161-8.49025 13.0989-7.44264 13.0989-6.17794C13.0989-4.91324 13.5161-3.86561 14.3504-3.03506C15.1847-2.20453 16.2305-1.78927 17.4876-1.78927L82.6889-1.78927L93.977-2.28191L84.8914 5.54653L74.3612 15.7201C73.5381 16.5695 73.1266 17.5832 73.1266 18.7611C73.1266 20.0522 73.5268 21.096 74.3272 21.8926C75.1275 22.6891 76.1732 23.0874 77.4643 23.0874C78.6686 23.0874 79.7332 22.6287 80.6582 21.7113L105.835-2.91613Z"/>
   <path class="multicolor-1:systemOrangeColor SFSymbolsPreviewFF9500" d="M14.5543-66.2156C13.584-65.3058 13.0989-64.2186 13.0989-62.9539C13.0989-61.6892 13.584-60.6094 14.5543-59.7147L39.731-35.0759C40.6483-34.151 41.713-33.6885 42.9248-33.6885C44.2235-33.6885 45.2711-34.0886 46.0676-34.889C46.8642-35.6894 47.2626-36.7351 47.2626-38.0262C47.2626-39.1966 46.851-40.2102 46.0279-41.0672L35.4977-51.2407L26.4122-59.0579L37.7003-58.5765L102.902-58.5765C104.193-58.5765 105.247-58.9899 106.064-59.8167C106.882-60.6434 107.29-61.6929 107.29-62.9652C107.29-64.2299 106.882-65.2775 106.064-66.108C105.247-66.9386 104.193-67.3539 102.902-67.3539L37.7003-67.3539L26.4122-66.8612L35.4977-74.6896L46.0279-84.8632C46.851-85.7126 47.2626-86.7263 47.2626-87.9042C47.2626-89.1952 46.8642-90.2391 46.0676-91.0356C45.2711-91.8322 44.2235-92.2305 42.9248-92.2305C41.713-92.2305 40.6483-91.7719 39.731-90.8545L14.5543-66.2156Z"/>
  </g>
  <g id="Light-M" transform="matrix(1 0 0 1 1094.06 1126)">
   <path class="multicolor-0:systemRedColor SFSymbolsPreviewFF3B30" d="M103.958-4.03847C104.683-4.78129 105.046-5.62135 105.046-6.55864C105.046-7.49594 104.683-8.31617 103.958-9.01935L78.8735-33.7728C78.1325-34.4939 77.2948-34.8544 76.3604-34.8544C75.4005-34.8544 74.6123-34.5512 73.996-33.9448C73.3796-33.3384 73.0714-32.5552 73.0714-31.5953C73.0714-30.6627 73.4094-29.8575 74.0852-29.1798L85.425-18.1005L94.8969-9.46675L83.9952-9.849L16.4205-9.849C15.4822-9.849 14.6941-9.53493 14.056-8.90679C13.418-8.27866 13.0989-7.48556 13.0989-6.52751C13.0989-5.56946 13.418-4.77635 14.056-4.14818C14.6941-3.52006 15.4822-3.20601 16.4205-3.20601L83.9952-3.20601L94.8969-3.58823L85.425 5.01296L74.0852 16.1248C73.4094 16.8026 73.0714 17.6077 73.0714 18.5403C73.0714 19.5002 73.3796 20.2834 73.996 20.8898C74.6123 21.4963 75.4005 21.7995 76.3604 21.7995C77.2948 21.7995 78.1325 21.4389 78.8735 20.7178L103.958-4.03847Z"/>
   <path class="multicolor-1:systemOrangeColor SFSymbolsPreviewFF9500" d="M14.1863-65.1117C13.4614-64.4104 13.0989-63.5807 13.0989-62.6227C13.0989-61.6646 13.4614-60.8548 14.1863-60.1931L39.271-35.4071C39.9921-34.6661 40.8298-34.2956 41.7841-34.2956C42.7638-34.2956 43.5569-34.6038 44.1633-35.2202C44.7698-35.8366 45.0731-36.6247 45.0731-37.5846C45.0731-38.4974 44.7351-39.3025 44.0592-40.0001L32.7195-51.1119L23.2476-59.6834L34.1493-59.3309L101.724-59.3309C102.684-59.3309 103.477-59.64 104.105-60.2583C104.732-60.8765 105.046-61.6745 105.046-62.6524C105.046-63.6105 104.732-64.4035 104.105-65.0317C103.477-65.6599 102.684-65.974 101.724-65.974L34.1493-65.974L23.2476-65.5916L32.7195-74.1928L44.0592-85.3047C44.7351-85.9825 45.0731-86.7876 45.0731-87.7202C45.0731-88.6801 44.7698-89.4633 44.1633-90.0697C43.5569-90.6762 42.7638-90.9794 41.7841-90.9794C40.8298-90.9794 39.9921-90.6188 39.271-89.8977L14.1863-65.1117Z"/>
  </g>
  <g id="Thin-M" transform="matrix(1 0 0 1 798.835 1126)">
   <path class="multicolor-0:systemRedColor SFSymbolsPreviewFF3B30" d="M101.476-5.52286C101.876-5.98987 102.077-6.48925 102.077-7.02098C102.077-7.5527 101.876-8.01604 101.476-8.411L76.5131-33.3834C76.0155-33.845 75.4779-34.0757 74.9003-34.0757C74.3784-34.0757 73.9309-33.8983 73.5579-33.5433C73.1849-33.1883 72.9985-32.7499 72.9985-32.2279C72.9985-31.6198 73.239-31.0905 73.7202-30.6398L86.1307-18.2952L96.1136-8.66374L85.7229-8.90002L15.0091-8.90002C14.4926-8.90002 14.0452-8.71977 13.6667-8.35929C13.2882-7.99881 13.0989-7.54232 13.0989-6.98984C13.0989-6.43736 13.2882-5.98087 13.6667-5.62038C14.0452-5.25997 14.4926-5.07976 15.0091-5.07976L85.7229-5.07976L96.1136-5.31594L86.1307 4.30727L73.7202 16.6602C73.239 17.1108 72.9985 17.6402 72.9985 18.2483C72.9985 18.7702 73.1849 19.2086 73.5579 19.5636C73.9309 19.9186 74.3784 20.0961 74.9003 20.0961C75.4779 20.0961 76.0155 19.8653 76.5131 19.4037L101.476-5.52286Z"/>
   <path class="multicolor-1:systemOrangeColor SFSymbolsPreviewFF9500" d="M13.6996-63.6516C13.2991-63.2261 13.0989-62.7371 13.0989-62.1847C13.0989-61.6322 13.2991-61.1792 13.6996-60.8258L38.6626-35.8451C39.1242-35.3475 39.6618-35.0986 40.2754-35.0986C40.8333-35.0986 41.2897-35.2852 41.6447-35.6582C41.9998-36.0312 42.1773-36.4787 42.1773-37.0006C42.1773-37.5727 41.9367-38.102 41.4555-38.5887L29.045-50.9416L19.0621-60.5108L29.4528-60.3286L100.167-60.3286C100.688-60.3286 101.137-60.4998 101.513-60.8422C101.889-61.1847 102.077-61.6502 102.077-62.2387C102.077-62.7912 101.889-63.2477 101.513-63.6082C101.137-63.9687 100.688-64.1489 100.167-64.1489L29.4528-64.1489L19.0621-63.9126L29.045-73.5358L41.4555-85.8887C41.9367-86.3393 42.1773-86.8687 42.1773-87.4768C42.1773-87.9987 41.9998-88.4372 41.6447-88.7922C41.2897-89.1471 40.8333-89.3246 40.2754-89.3246C39.6618-89.3246 39.1242-89.0938 38.6626-88.6323L13.6996-63.6516Z"/>
  </g>
  <g id="Ultralight-M" transform="matrix(1 0 0 1 502.884 1126)">
   <path class="multicolor-0:systemRedColor SFSymbolsPreviewFF3B30" d="M100.205-6.28315C100.439-6.60891 100.556-6.93378 100.556-7.25778C100.556-7.58178 100.439-7.86232 100.205-8.0994L75.3041-33.184C74.9311-33.5126 74.5472-33.6769 74.1525-33.6769C73.8549-33.6769 73.5819-33.5638 73.3335-33.3377C73.0852-33.1115 72.9611-32.8496 72.9611-32.552C72.9611-32.1101 73.1518-31.722 73.5332-31.3877L86.4921-18.3949L96.7368-8.25244L86.6079-8.41395L14.2862-8.41395C13.9858-8.41395 13.7128-8.30225 13.4672-8.07886C13.2217-7.85547 13.0989-7.5714 13.0989-7.22664C13.0989-6.88189 13.2217-6.59782 13.4672-6.37443C13.7128-6.15113 13.9858-6.03949 14.2862-6.03949L86.6079-6.03949L96.7368-6.20086L86.4921 3.94582L73.5332 16.9344C73.1518 17.2687 72.9611 17.6568 72.9611 18.0987C72.9611 18.3963 73.0852 18.6581 73.3335 18.8843C73.5819 19.1105 73.8549 19.2236 74.1525 19.2236C74.5472 19.2236 74.9311 19.0593 75.3041 18.7307L100.205-6.28315Z"/>
   <path class="multicolor-1:systemOrangeColor SFSymbolsPreviewFF9500" d="M13.4503-62.9038C13.216-62.6196 13.0989-62.3051 13.0989-61.9603C13.0989-61.6156 13.216-61.3454 13.4503-61.1498L38.351-36.0695C38.6796-35.6964 39.0635-35.5099 39.5027-35.5099C39.8445-35.5099 40.1285-35.6341 40.3547-35.8825C40.581-36.1309 40.6941-36.4039 40.6941-36.7015C40.6941-37.099 40.5033-37.4872 40.1218-37.8658L27.163-50.8543L16.9183-60.9345L27.0473-60.8397L99.369-60.8397C99.6665-60.8397 99.9387-60.9402 100.186-61.1413C100.433-61.3426 100.556-61.6377 100.556-62.0268C100.556-62.3716 100.433-62.6556 100.186-62.879C99.9387-63.1024 99.6665-63.2141 99.369-63.2141L27.0473-63.2141L16.9183-63.0526L27.163-73.1993L40.1218-86.1878C40.5033-86.5221 40.6941-86.9103 40.6941-87.3522C40.6941-87.6498 40.581-87.9117 40.3547-88.1379C40.1285-88.364 39.8445-88.4771 39.5027-88.4771C39.0635-88.4771 38.6796-88.3128 38.351-87.9842L13.4503-62.9038Z"/>
  </g>
  <g id="Black-S" transform="matrix(1 0 0 1 2883.56 696)">
   <path class="multicolor-0:systemRedColor SFSymbolsPreviewFF3B30" d="M87.1699-7.06836C88.6673-8.50065 89.416-10.2259 89.416-12.2441C89.416-14.2624 88.6673-15.9876 87.1699-17.4199L67.3945-36.6094C65.9948-38.0091 64.3183-38.709 62.3652-38.709C60.347-38.709 58.6787-38.0498 57.3604-36.7314C56.042-35.4131 55.3828-33.7448 55.3828-31.7266C55.3828-29.7083 56.0501-28.0807 57.3848-26.8438L65.3438-19.2754L65.3438-19.2754L60.4609-19.2754L17.2969-19.2754C15.3112-19.2754 13.6429-18.6081 12.292-17.2734C10.9411-15.9388 10.2656-14.2624 10.2656-12.2441C10.2656-10.2584 10.9411-8.59017 12.292-7.23926C13.6429-5.88835 15.3112-5.21289 17.2969-5.21289L60.4609-5.21289L65.3438-5.21289L65.3438-5.21289L57.3848 2.35547C56.0501 3.59245 55.3828 5.22005 55.3828 7.23828C55.3828 9.25649 56.042 10.9248 57.3604 12.2432C58.6787 13.5615 60.347 14.2207 62.3652 14.2207C64.3183 14.2207 65.9948 13.5208 67.3945 12.1211L87.1699-7.06836Z"/>
   <path class="multicolor-1:systemOrangeColor SFSymbolsPreviewFF9500" d="M12.5117-62.3418C11.0143-60.9095 10.2656-59.1843 10.2656-57.166C10.2656-55.1478 11.0143-53.4225 12.5117-51.9902L32.2871-32.8008C33.6868-31.4011 35.3633-30.7012 37.3164-30.7012C39.3347-30.7012 41.003-31.3604 42.3213-32.6787C43.6396-33.997 44.2988-35.6653 44.2988-37.6836C44.2988-39.7018 43.6315-41.3294 42.2969-42.5664L34.3379-50.1348L34.3379-50.1348L39.2207-50.1348L82.3848-50.1348C84.403-50.1348 86.0794-50.8102 87.4141-52.1611C88.7487-53.512 89.416-55.1803 89.416-57.166C89.416-59.1843 88.7487-60.8607 87.4141-62.1953C86.0794-63.53 84.403-64.1973 82.3848-64.1973L39.2207-64.1973L34.3379-64.1973L34.3379-64.1973L42.2969-71.7656C43.6315-73.0026 44.2988-74.6302 44.2988-76.6484C44.2988-78.6667 43.6396-80.335 42.3213-81.6533C41.003-82.9717 39.3347-83.6309 37.3164-83.6309C35.3633-83.6309 33.6868-82.931 32.2871-81.5312L12.5117-62.3418Z"/>
  </g>
  <g id="Heavy-S" transform="matrix(1 0 0 1 2587.35 696)">
   <path class="multicolor-0:systemRedColor SFSymbolsPreviewFF3B30" d="M86.3862-7.61001C87.7377-8.90401 88.4134-10.4545 88.4134-12.2614C88.4134-14.0684 87.7377-15.6189 86.3862-16.9128L66.6108-36.1023C65.3494-37.3637 63.8458-37.9945 62.1001-37.9945C60.2817-37.9945 58.7844-37.4063 57.6082-36.2301C56.4319-35.0539 55.8438-33.5566 55.8438-31.7381C55.8438-29.9503 56.4381-28.4956 57.6268-27.3739L65.5628-19.8286L67.1992-18.4572L61.3368-18.5609L16.5709-18.5609C14.7849-18.5609 13.2876-17.9627 12.0788-16.7663C10.87-15.57 10.2656-14.0665 10.2656-12.2556C10.2656-10.4697 10.87-8.9724 12.0788-7.76362C13.2876-6.55484 14.7849-5.95046 16.5709-5.95046L61.3368-5.95046L67.1992-6.05418L65.5628-4.69429L57.6268 2.86255C56.4381 3.98428 55.8438 5.43902 55.8438 7.22676C55.8438 9.04522 56.4319 10.5426 57.6082 11.7188C58.7844 12.895 60.2817 13.4831 62.1001 13.4831C63.8458 13.4831 65.3494 12.8524 66.6108 11.591L86.3862-7.61001Z"/>
   <path class="multicolor-1:systemOrangeColor SFSymbolsPreviewFF9500" d="M12.2927-61.8002C10.9413-60.5139 10.2656-58.9653 10.2656-57.1545C10.2656-55.3437 10.9413-53.7952 12.2927-52.5088L32.0681-33.3079C33.3296-32.0464 34.8331-31.4157 36.5788-31.4157C38.3973-31.4157 39.8947-32.0038 41.0709-33.18C42.2471-34.3562 42.8352-35.8536 42.8352-37.6721C42.8352-39.4598 42.2409-40.9145 41.0522-42.0363L33.1163-49.5931L31.4798-50.953L37.3422-50.8493L82.1082-50.8493C83.9267-50.8493 85.4321-51.4537 86.6247-52.6624C87.8171-53.8712 88.4134-55.3686 88.4134-57.1545C88.4134-58.9653 87.8171-60.4689 86.6247-61.6652C85.4321-62.8615 83.9267-63.4597 82.1082-63.4597L37.3422-63.4597L31.4798-63.356L33.1163-64.7159L41.0522-72.2727C42.2409-73.3944 42.8352-74.8492 42.8352-76.6369C42.8352-78.4554 42.2471-79.9527 41.0709-81.1289C39.8947-82.3052 38.3973-82.8933 36.5788-82.8933C34.8331-82.8933 33.3296-82.2626 32.0681-81.0011L12.2927-61.8002Z"/>
  </g>
  <g id="Bold-S" transform="matrix(1 0 0 1 2291.2 696)">
   <path class="multicolor-0:systemRedColor SFSymbolsPreviewFF3B30" d="M85.5098-8.21582C86.6979-9.35514 87.292-10.7101 87.292-12.2807C87.292-13.8514 86.6979-15.2064 85.5098-16.3457L65.7344-35.5351C64.6276-36.6419 63.3174-37.1953 61.8037-37.1953C60.2087-37.1953 58.9025-36.6867 57.8853-35.6694C56.868-34.6522 56.3594-33.346 56.3594-31.751C56.3594-30.221 56.8721-28.9596 57.8975-27.9668L65.8077-20.4472L69.2745-17.542L62.3164-17.7617L15.7588-17.7617C14.1963-17.7617 12.8902-17.2409 11.8404-16.1992C10.7905-15.1576 10.2656-13.8473 10.2656-12.2685C10.2656-10.7061 10.7905-9.39991 11.8404-8.3501C12.8902-7.30029 14.1963-6.77539 15.7588-6.77539L62.3164-6.77539L69.2745-6.99511L65.8077-4.11425L57.8975 3.42969C56.8721 4.42253 56.3594 5.68392 56.3594 7.21387C56.3594 8.80891 56.868 10.1151 57.8853 11.1323C58.9025 12.1496 60.2087 12.6582 61.8037 12.6582C63.3174 12.6582 64.6276 12.1048 65.7344 10.998L85.5098-8.21582Z"/>
   <path class="multicolor-1:systemOrangeColor SFSymbolsPreviewFF9500" d="M12.0479-61.1943C10.8597-60.0713 10.2656-58.7204 10.2656-57.1416C10.2656-55.5628 10.8597-54.2119 12.0479-53.0889L31.8233-33.875C32.93-32.7682 34.2402-32.2148 35.7539-32.2148C37.349-32.2148 38.6551-32.7235 39.6724-33.7407C40.6896-34.758 41.1983-36.0641 41.1983-37.6592C41.1983-39.1891 40.6856-40.4505 39.6602-41.4433L31.75-48.9873L28.2832-51.8682L35.2412-51.6484L81.7989-51.6484C83.3939-51.6484 84.7082-52.1733 85.7417-53.2231C86.7752-54.2729 87.292-55.5791 87.292-57.1416C87.292-58.7204 86.7752-60.0306 85.7417-61.0722C84.7082-62.1139 83.3939-62.6348 81.7989-62.6348L35.2412-62.6348L28.2832-62.415L31.75-65.2959L39.6602-72.8398C40.6856-73.8327 41.1983-75.0941 41.1983-76.624C41.1983-78.2191 40.6896-79.5252 39.6724-80.5425C38.6551-81.5598 37.349-82.0684 35.7539-82.0684C34.2402-82.0684 32.93-81.515 31.8233-80.4082L12.0479-61.1943Z"/>
  </g>
  <g id="Semibold-S" transform="matrix(1 0 0 1 1994.88 696)">
   <path class="multicolor-0:systemRedColor SFSymbolsPreviewFF3B30" d="M84.9055-8.6335C85.9811-9.66617 86.5189-10.8864 86.5189-12.2941C86.5189-13.7018 85.9811-14.922 84.9055-15.9547L65.1301-35.1441C64.1299-36.1442 62.953-36.6443 61.5993-36.6443C60.1583-36.6443 58.984-36.1905 58.0764-35.2828C57.1687-34.3752 56.7148-33.2009 56.7148-31.7599C56.7148-30.4077 57.1713-29.2796 58.0841-28.3756L65.9765-20.8738L70.7052-16.911L62.9918-17.2107L15.1989-17.2107C13.7905-17.2107 12.6161-16.7432 11.6759-15.8082C10.7357-14.8732 10.2656-13.6963 10.2656-12.2774C10.2656-10.869 10.7357-9.69465 11.6759-8.75445C12.6161-7.81424 13.7905-7.34414 15.1989-7.34414L62.9918-7.34414L70.7052-7.64384L65.9765-3.71435L58.0841 3.82071C57.1713 4.72467 56.7148 5.85277 56.7148 7.20498C56.7148 8.64599 57.1687 9.82033 58.0764 10.728C58.984 11.6356 60.1583 12.0895 61.5993 12.0895C62.953 12.0895 64.1299 11.5894 65.1301 10.5893L84.9055-8.6335Z"/>
   <path class="multicolor-1:systemOrangeColor SFSymbolsPreviewFF9500" d="M11.879-60.7767C10.8034-59.7662 10.2656-58.5516 10.2656-57.1327C10.2656-55.7139 10.8034-54.4993 11.879-53.4888L31.6544-34.266C32.6545-33.2659 33.8314-32.7658 35.1852-32.7658C36.6262-32.7658 37.8005-33.2196 38.7081-34.1273C39.6158-35.0349 40.0696-36.2093 40.0696-37.6503C40.0696-39.0025 39.6132-40.1306 38.7004-41.0346L30.808-48.5696L26.0793-52.4992L33.7927-52.1994L81.5856-52.1994C83.0266-52.1994 84.209-52.6695 85.1329-53.6097C86.0569-54.5499 86.5189-55.7243 86.5189-57.1327C86.5189-58.5516 86.0569-59.7285 85.1329-60.6635C84.209-61.5985 83.0266-62.066 81.5856-62.066L33.7927-62.066L26.0793-61.7663L30.808-65.6958L38.7004-73.2309C39.6132-74.1348 40.0696-75.2629 40.0696-76.6151C40.0696-78.0561 39.6158-79.2305 38.7081-80.1381C37.8005-81.0458 36.6262-81.4997 35.1852-81.4997C33.8314-81.4997 32.6545-80.9996 31.6544-79.9994L11.879-60.7767Z"/>
  </g>
  <g id="Medium-S" transform="matrix(1 0 0 1 1698.46 696)">
   <path class="multicolor-0:systemRedColor SFSymbolsPreviewFF3B30" d="M84.4473-8.95019C85.4375-9.90201 85.9326-11.02 85.9326-12.3042C85.9326-13.5884 85.4375-14.7064 84.4473-15.6582L64.6719-34.8476C63.7526-35.7669 62.6767-36.2265 61.4443-36.2265C60.1201-36.2265 59.0458-35.8143 58.2212-34.9897C57.3966-34.1652 56.9843-33.0908 56.9843-31.7666C56.9843-30.5492 57.3981-29.5221 58.2256-28.6855L66.1045-21.1972L71.7901-16.4326L63.5039-16.7929L14.7744-16.7929C13.4827-16.7929 12.4084-16.3659 11.5513-15.5117C10.6942-14.6576 10.2656-13.5817 10.2656-12.2842C10.2656-10.9925 10.6942-9.91814 11.5513-9.06104C12.4084-8.20394 13.4827-7.77539 14.7744-7.77539L63.5039-7.77539L71.7901-8.13574L66.1045-3.41113L58.2256 4.11719C57.3981 4.95378 56.9843 5.98079 56.9843 7.19824C56.9843 8.52246 57.3966 9.59684 58.2212 10.4214C59.0458 11.2459 60.1201 11.6582 61.4443 11.6582C62.6767 11.6582 63.7526 11.1986 64.6719 10.2793L84.4473-8.95019Z"/>
   <path class="multicolor-1:systemOrangeColor SFSymbolsPreviewFF9500" d="M11.751-60.46C10.7607-59.5349 10.2656-58.4235 10.2656-57.126C10.2656-55.8285 10.7607-54.7171 11.751-53.792L31.5264-34.5625C32.4457-33.6432 33.5215-33.1836 34.7539-33.1836C36.0781-33.1836 37.1525-33.5959 37.977-34.4204C38.8016-35.245 39.2139-36.3194 39.2139-37.6436C39.2139-38.861 38.8001-39.888 37.9726-40.7246L30.0937-48.2529L24.4082-52.9776L32.6943-52.6172L81.4238-52.6172C82.748-52.6172 83.8306-53.0457 84.6714-53.9029C85.5122-54.7599 85.9326-55.8343 85.9326-57.126C85.9326-58.4235 85.5122-59.4994 84.6714-60.3535C83.8306-61.2077 82.748-61.6348 81.4238-61.6348L32.6943-61.6348L24.4082-61.2744L30.0937-65.999L37.9726-73.5274C38.8001-74.3639 39.2139-75.3909 39.2139-76.6084C39.2139-77.9326 38.8016-79.007 37.977-79.8315C37.1525-80.6561 36.0781-81.0684 34.7539-81.0684C33.5215-81.0684 32.4457-80.6088 31.5264-79.6895L11.751-60.46Z"/>
  </g>
  <g id="Regular-S" transform="matrix(1 0 0 1 1402.13 696)">
   <path class="multicolor-0:systemRedColor SFSymbolsPreviewFF3B30" d="M83.8496-9.36328C84.7285-10.2096 85.168-11.1943 85.168-12.3174C85.168-13.4405 84.7285-14.4252 83.8496-15.2715L64.0742-34.4609C63.2604-35.2747 62.3164-35.6816 61.2422-35.6816C60.0703-35.6816 59.1263-35.3235 58.4102-34.6074C57.694-33.8913 57.3359-32.9473 57.3359-31.7754C57.3359-30.7337 57.694-29.8385 58.4102-29.0898L66.2715-21.6191L73.2051-15.8086L64.1719-16.248L14.2207-16.248C13.0814-16.248 12.1374-15.8737 11.3887-15.125C10.64-14.3763 10.2656-13.4323 10.2656-12.293C10.2656-11.1537 10.64-10.2096 11.3887-9.46094C12.1374-8.71224 13.0814-8.33789 14.2207-8.33789L64.1719-8.33789L73.2051-8.77734L66.2715-3.01562L58.4102 4.50391C57.694 5.2526 57.3359 6.14778 57.3359 7.18945C57.3359 8.36133 57.694 9.30534 58.4102 10.0215C59.1263 10.7376 60.0703 11.0957 61.2422 11.0957C62.3164 11.0957 63.2604 10.6888 64.0742 9.875L83.8496-9.36328Z"/>
   <path class="multicolor-1:systemOrangeColor SFSymbolsPreviewFF9500" d="M11.584-60.0469C10.7051-59.2331 10.2656-58.2565 10.2656-57.1172C10.2656-55.9779 10.7051-55.0013 11.584-54.1875L31.3594-34.9492C32.1732-34.1354 33.1172-33.7285 34.1914-33.7285C35.3633-33.7285 36.3073-34.0866 37.0234-34.8027C37.7396-35.5189 38.0977-36.4629 38.0977-37.6348C38.0977-38.6765 37.7396-39.5716 37.0234-40.3203L29.1621-47.8398L22.2285-53.6016L31.2617-53.1621L81.2129-53.1621C82.3848-53.1621 83.3369-53.5365 84.0693-54.2852C84.8018-55.0339 85.168-55.9779 85.168-57.1172C85.168-58.2565 84.8018-59.2005 84.0693-59.9492C83.3369-60.6979 82.3848-61.0723 81.2129-61.0723L31.2617-61.0723L22.2285-60.6328L29.1621-66.3945L37.0234-73.9141C37.7396-74.6628 38.0977-75.5579 38.0977-76.5996C38.0977-77.7715 37.7396-78.7155 37.0234-79.4316C36.3073-80.1478 35.3633-80.5059 34.1914-80.5059C33.1172-80.5059 32.1732-80.099 31.3594-79.2852L11.584-60.0469Z"/>
  </g>
  <g id="Light-S" transform="matrix(1 0 0 1 1106.41 696)">
   <path class="multicolor-0:systemRedColor SFSymbolsPreviewFF3B30" d="M82.1894-10.3561C82.8513-11.018 83.1823-11.7748 83.1823-12.6266C83.1823-13.4784 82.8513-14.2244 82.1894-14.8646L62.4954-34.2005C61.8444-34.8407 61.1011-35.1608 60.2656-35.1608C59.3867-35.1608 58.6706-34.8868 58.1172-34.3389C57.5638-33.7909 57.2871-33.0775 57.2871-32.1986C57.2871-31.3739 57.5801-30.6632 58.166-30.0664L66.7435-21.7493L74.0189-15.2715L65.3275-15.6133L13.2767-15.6133C12.4195-15.6133 11.7033-15.3284 11.1283-14.7588C10.5532-14.1892 10.2656-13.4703 10.2656-12.6022C10.2656-11.7342 10.5532-11.0153 11.1283-10.4456C11.7033-9.87598 12.4195-9.59116 13.2767-9.59116L65.3275-9.59116L74.0189-9.93293L66.7435-3.48763L58.166 4.86198C57.5801 5.45877 57.2871 6.16949 57.2871 6.99414C57.2871 7.87305 57.5638 8.58648 58.1172 9.13444C58.6706 9.6824 59.3867 9.95638 60.2656 9.95638C61.1011 9.95638 61.8444 9.63628 62.4954 8.99609L82.1894-10.3561Z"/>
   <path class="multicolor-1:systemOrangeColor SFSymbolsPreviewFF9500" d="M11.2585-59.0703C10.5966-58.441 10.2656-57.6923 10.2656-56.8242C10.2656-55.9562 10.5966-55.2183 11.2585-54.6107L30.9525-35.2422C31.5927-34.5911 32.3359-34.2656 33.1823-34.2656C34.072-34.2656 34.7909-34.5423 35.3388-35.0957C35.8868-35.6491 36.1608-36.3653 36.1608-37.2442C36.1608-38.058 35.8678-38.7687 35.2819-39.3763L26.7044-47.7259L19.429-54.155L28.1204-53.8294L80.1712-53.8294C81.0501-53.8294 81.7717-54.1116 82.3359-54.6758C82.9002-55.24 83.1823-55.9616 83.1823-56.8405C83.1823-57.7086 82.9002-58.4274 82.3359-58.9971C81.7717-59.5668 81.0501-59.8516 80.1712-59.8516L28.1204-59.8516L19.429-59.5098L26.7044-65.9551L35.2819-74.3047C35.8678-74.9015 36.1608-75.6122 36.1608-76.4368C36.1608-77.3157 35.8868-78.0292 35.3388-78.5771C34.7909-79.1251 34.072-79.3991 33.1823-79.3991C32.3359-79.3991 31.5927-79.079 30.9525-78.4388L11.2585-59.0703Z"/>
  </g>
  <g id="Thin-S" transform="matrix(1 0 0 1 811.012 696)">
   <path class="multicolor-0:systemRedColor SFSymbolsPreviewFF3B30" d="M79.9937-11.6692C80.3686-12.0871 80.5561-12.5426 80.5561-13.0356C80.5561-13.5286 80.3686-13.9589 79.9937-14.3264L60.4074-33.8561C59.9716-34.2666 59.4938-34.4719 58.974-34.4719C58.4826-34.4719 58.0678-34.3092 57.7297-33.9837C57.3916-33.6582 57.2226-33.2497 57.2226-32.7582C57.2226-32.2206 57.4294-31.7539 57.8431-31.358L67.3678-21.9216L75.0952-14.5611L66.8559-14.7738L12.0282-14.7738C11.5441-14.7738 11.1293-14.6073 10.7838-14.2745C10.4383-13.9416 10.2656-13.5205 10.2656-13.0112C10.2656-12.5019 10.4383-12.0808 10.7838-11.748C11.1293-11.4151 11.5441-11.2487 12.0282-11.2487L66.8559-11.2487L75.0952-11.4613L67.3678-4.11189L57.8431 5.33556C57.4294 5.73143 57.2226 6.19819 57.2226 6.73583C57.2226 7.22726 57.3916 7.63573 57.7297 7.96125C58.0678 8.28677 58.4826 8.44953 58.974 8.44953C59.4938 8.44953 59.9716 8.24424 60.4074 7.83367L79.9937-11.6692Z"/>
   <path class="multicolor-1:systemOrangeColor SFSymbolsPreviewFF9500" d="M10.8279-57.7787C10.453-57.3934 10.2656-56.9461 10.2656-56.4368C10.2656-55.9275 10.453-55.5053 10.8279-55.1703L30.4143-35.6296C30.8249-35.1939 31.3027-34.976 31.8477-34.976C32.3643-34.976 32.7853-35.145 33.1109-35.4831C33.4364-35.8213 33.5992-36.2361 33.5992-36.7275C33.5992-37.24 33.3923-37.7067 32.9785-38.1278L23.454-47.5752L15.7265-54.8868L23.9659-54.712L78.7935-54.712C79.2849-54.712 79.7015-54.8722 80.0433-55.1924C80.3851-55.5127 80.5561-55.9401 80.5561-56.4745C80.5561-56.9838 80.3851-57.4049 80.0433-57.7378C79.7015-58.0707 79.2849-58.2371 78.7935-58.2371L23.9659-58.2371L15.7265-58.0245L23.454-65.3739L32.9785-74.8213C33.3923-75.2172 33.5992-75.6839 33.5992-76.2216C33.5992-76.713 33.4364-77.1215 33.1109-77.447C32.7853-77.7725 32.3643-77.9353 31.8477-77.9353C31.3027-77.9353 30.8249-77.73 30.4143-77.3194L10.8279-57.7787Z"/>
  </g>
  <g id="Ultralight-S" transform="matrix(1 0 0 1 514.973 696)">
   <path class="multicolor-0:systemRedColor SFSymbolsPreviewFF3B30" d="M78.8691-12.3418C79.097-12.6347 79.2109-12.9358 79.2109-13.2451C79.2109-13.5544 79.097-13.8229 78.8691-14.0508L59.3379-33.6797C59.0124-33.9726 58.6706-34.1191 58.3125-34.1191C58.0195-34.1191 57.7591-34.0133 57.5312-33.8018C57.3034-33.5902 57.1895-33.3379 57.1895-33.0449C57.1895-32.6543 57.3522-32.3125 57.6777-32.0195L67.6875-22.0098L75.6465-14.1973L67.6387-14.3438L11.3887-14.3438C11.0957-14.3438 10.8353-14.238 10.6074-14.0264C10.3795-13.8148 10.2656-13.5462 10.2656-13.2207C10.2656-12.8952 10.3795-12.6266 10.6074-12.415C10.8353-12.2035 11.0957-12.0977 11.3887-12.0977L67.6387-12.0977L75.6465-12.2441L67.6875-4.43164L57.6777 5.57812C57.3522 5.87109 57.1895 6.21289 57.1895 6.60352C57.1895 6.89649 57.3034 7.14876 57.5312 7.36035C57.7591 7.57194 58.0195 7.67773 58.3125 7.67773C58.6706 7.67773 59.0124 7.53125 59.3379 7.23828L78.8691-12.3418Z"/>
   <path class="multicolor-1:systemOrangeColor SFSymbolsPreviewFF9500" d="M10.6074-57.1172C10.3795-56.8568 10.2656-56.5638 10.2656-56.2383C10.2656-55.9128 10.3795-55.6523 10.6074-55.457L30.1387-35.8281C30.4316-35.5026 30.7734-35.3398 31.1641-35.3398C31.4896-35.3398 31.7581-35.4537 31.9697-35.6816C32.1813-35.9095 32.2871-36.1699 32.2871-36.4629C32.2871-36.821 32.1243-37.1628 31.7988-37.4883L21.7891-47.498L13.8301-55.2617L21.8379-55.1641L78.0879-55.1641C78.3808-55.1641 78.6412-55.2617 78.8691-55.457C79.097-55.6523 79.2109-55.929 79.2109-56.2871C79.2109-56.6126 79.097-56.8812 78.8691-57.0928C78.6412-57.3044 78.3808-57.4102 78.0879-57.4102L21.8379-57.4102L13.8301-57.2637L21.7891-65.0762L31.7988-75.0859C32.1243-75.3789 32.2871-75.7207 32.2871-76.1113C32.2871-76.4043 32.1813-76.6566 31.9697-76.8682C31.7581-77.0797 31.4896-77.1855 31.1641-77.1855C30.7734-77.1855 30.4316-77.039 30.1387-76.7461L10.6074-57.1172Z"/>
  </g>
 </g>
</svg>
